<?xml version="1.0" standalone="no"?>
<!DOCTYPE svg PUBLIC "-//W3C//DTD SVG 1.1//EN" "http://www.w3.org/Graphics/SVG/1.1/DTD/svg11.dtd" >
<svg xmlns="http://www.w3.org/2000/svg" xmlns:xlink="http://www.w3.org/1999/xlink" version="1.1">
<metadata>
Created by FontForge 20170731 at Wed Aug  8 19:55:49 2018
 By Aleksey,,,
Copyright (c) 2018 by Fontastica. All rights reserved.
</metadata>
<defs>
<font id="VisiaPro-Bold" horiz-adv-x="582" >
  <font-face 
    font-family="Visia Pro Bold"
    font-weight="700"
    font-stretch="normal"
    units-per-em="1000"
    panose-1="0 0 8 0 0 0 0 0 0 0"
    ascent="800"
    descent="-200"
    x-height="492"
    cap-height="674"
    bbox="-61 -188 963 857"
    underline-thickness="50"
    underline-position="-225"
    unicode-range="U+0020-2122"
  />
<missing-glyph horiz-adv-x="661" 
 />
    <glyph glyph-name=".notdef" horiz-adv-x="661" 
 />
    <glyph glyph-name=".null" horiz-adv-x="0" 
 />
    <glyph glyph-name="nonmarkingreturn" horiz-adv-x="333" 
 />
    <glyph glyph-name="space" unicode=" " horiz-adv-x="295" 
 />
    <glyph glyph-name="exclam" unicode="!" horiz-adv-x="225" 
d="M82 174q-8 137 -13 327l-6 158h102q-4 -160 -16 -495h-67v10zM53 58q0 26 16.5 42.5t43.5 16.5t43 -16.5t16 -42.5t-16 -42t-43 -16t-43.5 16t-16.5 42z" />
    <glyph glyph-name="numbersign" unicode="#" horiz-adv-x="625" 
d="M571 449l-12 -75l-108 2l-16 -90h110l-14 -76h-108l-30 -163l-80 2l29 159h-101l-29 -161l-74 2l23 160h-108l12 77l111 3l15 84l-112 1l14 75h109l28 160h79l-26 -162h96l31 160h78l-28 -158h111zM271 374l-16 -85h100l14 85h-98z" />
    <glyph glyph-name="dollar" unicode="$" 
d="M122 212l5 -9q29 -53 59 -82.5t71 -40.5l1 226q-38 12 -64 24t-54.5 32t-43.5 49.5t-15 67.5q0 70 49 119.5t128 59.5v87h81v-89q100 -21 175 -141l-66 -37q-33 42 -56.5 64t-52.5 32v-209q40 -12 66.5 -23.5t58.5 -31.5t48 -50.5t16 -69.5q0 -73 -53 -126t-136 -62v-93
h-82v93q-133 14 -204 173zM165 484q0 -56 93 -92v185q-43 -8 -68 -33t-25 -60zM339 79q44 12 74 40t30 63t-26.5 56.5t-77.5 40.5v-200z" />
    <glyph glyph-name="percent" unicode="%" horiz-adv-x="800" 
d="M215 639q69 0 101.5 -49.5t32.5 -120.5q0 -82 -36.5 -125.5t-97.5 -43.5q-60 0 -97.5 46t-37.5 122q0 77 37.5 124t97.5 47zM667 627l-433 -617h-78l433 617h78zM215 364q31 0 49.5 28t18.5 76q0 49 -19 78t-50 29q-29 0 -49 -30.5t-20 -76.5t20 -75t50 -29zM592 339
q68 0 100.5 -49t32.5 -119q0 -82 -36.5 -126.5t-96.5 -44.5q-61 0 -98.5 46t-37.5 123q0 78 37.5 124t98.5 46zM592 65q31 0 49 28.5t18 75.5q0 48 -19 77.5t-50 29.5q-29 0 -49 -30.5t-20 -76.5t20 -75t51 -29z" />
    <glyph glyph-name="ampersand" unicode="&#x26;" horiz-adv-x="670" 
d="M617 60l-11 -7q-1 -1 -6 -4.5t-8 -5.5l-47 -31q-7 6 -19 16t-20.5 17t-13.5 12q-11 10 -18 15q-86 -72 -208 -72q-92 0 -151 48t-62 128v7q0 47 21 86.5t71 83.5l-4 5q-24 32 -35 56.5t-11 57.5q0 76 53 129.5t132 57.5q84 0 136 -48t52 -131q0 -59 -31 -104.5t-95 -66.5
q63 -59 113 -103q14 53 30 107l73 -22q-5 -62 -33 -147zM283 574q-42 -2 -72.5 -30.5t-30.5 -67.5q0 -41 32.5 -72.5t74.5 -32.5q37 3 64 36.5t28 74.5v6q-2 39 -28.5 62t-67.5 24zM138 195q0 -51 37.5 -81t89.5 -30q74 0 143 49q-4 4 -136 124q-9 8 -50 44
q-47 -32 -65.5 -55t-18.5 -51z" />
    <glyph glyph-name="parenleft" unicode="(" horiz-adv-x="291" 
d="M232 731q-55 -135 -76.5 -222.5t-21.5 -173.5q0 -199 104 -425h-81q-36 66 -70 195t-34 228q0 87 31 214t73 198h80z" />
    <glyph glyph-name="parenright" unicode=")" horiz-adv-x="291" 
d="M141 740q40 -68 71 -196.5t31 -213.5q0 -98 -34.5 -226.5t-70.5 -193.5h-81q104 226 104 425q0 87 -22.5 177.5t-80.5 232.5h80z" />
    <glyph glyph-name="asterisk" unicode="*" horiz-adv-x="372" 
d="M247 531q22 -34 42 -61l-65 -35q-26 39 -39 62l-19 -31q-15 -24 -20 -31q-22 12 -35 18q-18 9 -27 15q11 22 31 52q2 3 2 4q1 0 4 5h-68v69h68l-38 60l61 35l41 -64l39 64l64 -35l-38 -58h68q0 -21 2 -69h-73z" />
    <glyph glyph-name="plus" unicode="+" horiz-adv-x="507" 
d="M284 119q-30 0 -68 -2v160h-163v77h160v160h80v-159h161v-77h-160v-159h-10z" />
    <glyph glyph-name="comma" unicode="," horiz-adv-x="226" 
d="M83 122q20 5 35 10l55 14q-22 -100 -62 -221q-21 -9 -78 -29q24 152 44 225z" />
    <glyph glyph-name="hyphen" unicode="-" horiz-adv-x="453" 
d="M399 279h-346v75h346v-75z" />
    <glyph glyph-name="period" unicode="." horiz-adv-x="225" 
d="M53 87q0 27 16.5 42.5t43.5 15.5t43 -15.5t16 -42.5q0 -25 -16 -41t-43 -16t-43.5 16.5t-16.5 40.5z" />
    <glyph glyph-name="slash" unicode="/" horiz-adv-x="548" 
d="M134 -94h-81l360 839h82z" />
    <glyph glyph-name="zero" unicode="0" horiz-adv-x="619" 
d="M311 659q66 0 117 -27.5t80 -74t43.5 -102.5t14.5 -120v-5q-2 -158 -72 -244.5t-183 -86.5q-116 0 -187 90t-71 239t71 240t187 91zM311 82q77 0 122.5 66.5t45.5 178.5q0 114 -46.5 182.5t-124.5 68.5q-74 0 -122.5 -71t-48.5 -179q0 -109 49 -177.5t125 -68.5z" />
    <glyph glyph-name="one" unicode="1" horiz-adv-x="280" 
d="M47 597q60 27 106 62h76v-659h-83v564l-96 -60z" />
    <glyph glyph-name="two" unicode="2" horiz-adv-x="535" 
d="M65 91q52 22 127 87t135.5 148.5t63.5 141.5q-1 52 -34 81t-86 29q-51 0 -83.5 -23.5t-57.5 -75.5l-77 43q43 70 93.5 103.5t123.5 33.5q54 0 96.5 -18.5t65.5 -47t34.5 -55.5t13.5 -50v-15q0 -64 -50 -146t-106.5 -140.5t-107.5 -96.5h263v-90h-422l2 89z" />
    <glyph glyph-name="three" unicode="3" horiz-adv-x="533" 
d="M383 347q97 -42 97 -155q0 -90 -60.5 -141t-167.5 -51q-66 0 -109 25t-87 92l77 44q29 -42 57.5 -62.5t70.5 -20.5q59 0 96 31.5t37 82.5q0 50 -42.5 78t-125.5 28h-70v83h57q32 0 55.5 3t49 12t39.5 29t15 51v1q0 45 -32 72.5t-86 27.5q-41 0 -67.5 -17.5t-55.5 -55.5
l-78 39q24 40 48.5 64.5t52.5 35t49 13.5t55 3q91 0 146 -50.5t55 -126.5q0 -42 -13 -74.5t-55 -63.5z" />
    <glyph glyph-name="four" unicode="4" horiz-adv-x="629" 
d="M466 659v-449h110v-85h-108v-125h-85v125h-330q107 159 173.5 269t145.5 265h94zM378 210v300q-86 -170 -174 -300h174z" />
    <glyph glyph-name="five" unicode="5" horiz-adv-x="554" 
d="M231 403q86 0 143 -17t93 -74q34 -51 34 -107q0 -89 -60.5 -147t-161.5 -58q-78 0 -128.5 33.5t-97.5 109.5l72 42q31 -52 66 -77t87 -26q59 3 97.5 38t39.5 85v3q-2 38 -22.5 62.5t-57 34.5t-65.5 13t-71 3h-114q13 175 13 338h363v-77h-282q0 -76 -8 -179h60z" />
    <glyph glyph-name="six" unicode="6" horiz-adv-x="562" 
d="M252 435q17 4 38 4q92 0 155.5 -65t63.5 -156q0 -95 -63.5 -156.5t-162.5 -61.5q-100 0 -165 57.5t-65 176.5q2 4 2 15q0 82 220 363q6 8 14.5 18.5t14 18t8.5 10.5h93q-58 -94 -153 -224zM283 82q61 0 100 38t39 99q0 60 -39 98t-100 38q-63 0 -102.5 -38t-39.5 -98
q0 -61 39.5 -99t102.5 -38z" />
    <glyph glyph-name="seven" unicode="7" horiz-adv-x="546" 
d="M63 655q69 1 208 1q86 0 222 -2q-140 -344 -268 -651h-94q27 65 157 374l84 198h-319v80h10z" />
    <glyph glyph-name="eight" unicode="8" horiz-adv-x="558" 
d="M416 344q89 -46 89 -149q0 -93 -61 -146.5t-161 -53.5q-101 0 -165.5 54t-64.5 138q0 98 92 155q-70 63 -70 149q0 76 60 127.5t146 51.5t144.5 -51.5t58.5 -127.5q0 -43 -13 -76.5t-55 -70.5zM278 585q-54 0 -86 -26t-32 -71q0 -48 34 -78t87 -30q52 0 85 29t33 75
t-33 73.5t-88 27.5zM280 76q61 0 101 31.5t40 82.5q0 49 -38 78.5t-104 29.5q-65 0 -103 -29t-38 -77q0 -52 40 -84t102 -32z" />
    <glyph glyph-name="nine" unicode="9" horiz-adv-x="562" 
d="M309 224q-24 -4 -38 -4q-90 0 -154 65t-64 156q0 96 63.5 157t163.5 61q98 0 163.5 -57.5t65.5 -176.5q-2 -3 -2 -15q0 -28 -20 -71t-61.5 -103t-64.5 -90.5t-67 -88.5q-27 -34 -43 -57h-94q43 70 110 164zM280 578q-62 0 -100.5 -38.5t-38.5 -99.5q0 -59 38.5 -97
t100.5 -38t102 38t40 97q0 61 -40 99.5t-102 38.5z" />
    <glyph glyph-name="colon" unicode=":" horiz-adv-x="225" 
d="M53 457q0 25 16.5 41t43.5 16t43 -16t16 -41q0 -27 -16 -42.5t-43 -15.5t-43.5 15.5t-16.5 42.5zM53 87q0 27 16.5 42.5t43.5 15.5t43 -15.5t16 -42.5q0 -25 -16 -41t-43 -16t-43.5 16.5t-16.5 40.5z" />
    <glyph glyph-name="semicolon" unicode=";" horiz-adv-x="245" 
d="M73 456q0 25 17 41.5t43 16.5t43 -16.5t17 -41.5q0 -26 -17 -42t-43 -16q-27 0 -43.5 15.5t-16.5 42.5zM187 119q-38 -144 -56 -199l-78 -19l42 230h95z" />
    <glyph glyph-name="less" unicode="&#x3c;" horiz-adv-x="495" 
d="M442 418l-278 -107l278 -111v-93l-389 166v77l389 161v-93z" />
    <glyph glyph-name="greater" unicode="&#x3e;" horiz-adv-x="495" 
d="M53 107v93l277 111l-277 107v93l389 -161v-77z" />
    <glyph glyph-name="question" unicode="?" horiz-adv-x="523" 
d="M263 659q88 0 147 -50t59 -126q0 -34 -15.5 -66.5t-28 -46.5t-40.5 -42q-52 -52 -113 -159q-17 3 -40 3q-18 0 -30 2q16 75 29 101t66 77q28 27 42 42.5t28 41t14 48.5q0 42 -34 67.5t-93 25.5q-40 0 -67.5 -19t-65.5 -74q-32 20 -68 38l15 25q62 112 195 112zM189 58
q0 25 16.5 41t43.5 16q26 0 43 -16t17 -41q0 -27 -16.5 -42.5t-43.5 -15.5t-43.5 15.5t-16.5 42.5z" />
    <glyph glyph-name="at" unicode="@" horiz-adv-x="775" 
d="M396 666q140 0 233 -92t93 -238q0 -86 -38.5 -137t-110.5 -51q-34 0 -53 12t-39 39l-8 9q-51 -33 -103 -33q-65 0 -111 50.5t-46 116.5q0 65 46.5 114t106.5 49q59 0 106 -32v24h77v-54q0 -48 -1 -72q-2 -19 -2 -58q0 -105 44 -105q32 0 56 41.5t24 99.5q0 106 -81 183
t-197 77q-117 0 -197.5 -80t-80.5 -197q0 -118 82.5 -197t208.5 -79q24 0 74 6q4 0 11.5 0.5t11.5 0.5q42 4 66 4h60q-101 -71 -200 -71q-165 0 -270 94.5t-105 240.5q0 143 99 239t244 96zM380 242q42 0 70.5 28t28.5 69q0 42 -29 70.5t-71 28.5q-40 0 -67.5 -28.5
t-27.5 -69.5t27.5 -69.5t68.5 -28.5z" />
    <glyph glyph-name="A" unicode="A" horiz-adv-x="624" 
d="M67 0h-97l255 674h88q47 -115 164 -427q11 -29 94 -247h-92l-80 210h-258zM367 296l-96 254l-96 -254h192z" />
    <glyph glyph-name="B" unicode="B" horiz-adv-x="595" 
d="M462 334q38 -30 59 -62.5t21 -79.5q0 -114 -75 -167q-51 -25 -104 -25h-310v674h236q11 1 32 1q100 0 135 -25q84 -59 85 -159q0 -47 -15 -84.5t-64 -72.5zM453 488q0 41 -24.5 71.5t-69.5 30.5l-222 1v-216h129q35 0 54.5 1t48.5 6.5t44.5 17t27.5 34t12 54.5zM137 291
v-210l128 -2h30q5 0 15 -0.5t14 -0.5q64 0 94.5 22t30.5 81q0 43 -26 74t-76 36h-210z" />
    <glyph glyph-name="C" unicode="C" horiz-adv-x="760" 
d="M395 81q117 0 243 127q29 -14 67 -36q-41 -78 -123 -125t-179 -47q-149 0 -249.5 96.5t-100.5 238.5q0 144 104 241.5t259 97.5q87 0 157.5 -39.5t133.5 -126.5q-31 -20 -40 -26q-6 -3 -30 -18q-61 72 -110 100t-111 28q-120 0 -198 -72t-78 -181q0 -108 74.5 -183
t180.5 -75z" />
    <glyph glyph-name="D" unicode="D" horiz-adv-x="690" 
d="M284 674q87 0 156.5 -29.5t111 -79t63.5 -109t22 -123.5q0 -70 -19 -125.5t-49 -91t-73 -61t-85.5 -38t-91.5 -17.5h-266q1 46 1 147v136q-1 46 -1 141q0 182 2 250h229zM140 81l115 -2q130 0 213 67.5t83 178.5q0 97 -63.5 174.5t-158.5 83.5q-26 3 -189 4v-506z" />
    <glyph glyph-name="E" unicode="E" horiz-adv-x="546" 
d="M53 674h440v-79h-354v-210h354v-82l-353 -1v-224h353v-78h-440v674z" />
    <glyph glyph-name="F" unicode="F" horiz-adv-x="546" 
d="M493 674v-79h-354v-210h354v-82l-353 -1v-302h-87v674h440z" />
    <glyph glyph-name="G" unicode="G" horiz-adv-x="789" 
d="M386 379h227h124v-19q0 -138 -76 -229.5t-212 -124.5q-26 -6 -63 -6q-138 0 -235.5 98.5t-97.5 238.5q0 144 101 240.5t251 96.5q96 0 164 -37t127 -115l11 -14q-28 -19 -70 -41q-64 72 -111.5 98.5t-107.5 26.5q-122 0 -200 -72.5t-78 -184.5q0 -106 72 -179t176 -73
q111 0 191 80q46 49 67 138h-124q-46 -1 -146 -1v79h10z" />
    <glyph glyph-name="H" unicode="H" horiz-adv-x="608" 
d="M135 0h-82v674h82v-290h338v290h82v-674h-81v303h-339v-303z" />
    <glyph glyph-name="I" unicode="I" horiz-adv-x="189" 
d="M136 0h-84v674h84v-674z" />
    <glyph glyph-name="J" unicode="J" horiz-adv-x="543" 
d="M489 375v-63q1 -18 1 -53q0 -80 -16 -131t-61 -83q-63 -45 -156 -45q-65 0 -109.5 23t-94.5 87l64 56q40 -50 67.5 -67t80.5 -17q70 0 103 42t33 143v129q0 86 -3 278h91v-299z" />
    <glyph glyph-name="K" unicode="K" horiz-adv-x="593" 
d="M202 355q76 -77 149 -158q114 -122 189 -197q-96 0 -119 -1q-119 129 -283 290v-289h-85v674h84q1 -50 1 -160v-123q62 69 193 196l87 87h117l-326 -326z" />
    <glyph glyph-name="L" unicode="L" horiz-adv-x="527" 
d="M472 67q0 -5 0.5 -15t0.5 -14v-38h-420v674h84v-597h335v-10z" />
    <glyph glyph-name="M" unicode="M" horiz-adv-x="724" 
d="M586 131q0 22 0.5 65t0.5 64v121q0 88 -1 148q-39 -58 -129 -209q-42 -72 -97 -159l-71 119q-128 211 -151 246q-1 -49 -1 -188v-90q1 -38 1 -122q0 -20 -0.5 -64t-0.5 -63h-84q0 160 1 234v216q0 154 -1 225h94q103 -162 213 -348l105 170q73 122 109 178h97v-674h-85
v131z" />
    <glyph glyph-name="N" unicode="N" horiz-adv-x="613" 
d="M560 664q-1 -161 -1 -664h-70q-63 89 -175 253q-129 192 -177 256v-509h-82q-1 107 -1 337t-1 337h72q221 -320 346 -509v509h89v-10z" />
    <glyph glyph-name="O" unicode="O" horiz-adv-x="803" 
d="M403 674q145 0 246 -97t101 -238q0 -139 -101 -239t-245 -100q-146 0 -248.5 100t-102.5 239q0 140 102 237.5t248 97.5zM401 79q108 0 185 78.5t77 184.5q0 105 -75 177.5t-185 72.5q-111 0 -187.5 -72.5t-76.5 -178.5t77.5 -184t184.5 -78z" />
    <glyph glyph-name="P" unicode="P" horiz-adv-x="586" 
d="M135 244l2 -244h-84v674l292 2q89 0 139 -61t50 -152q0 -90 -50 -153t-141 -64zM137 591v-259h120q14 0 21 -1q45 0 70.5 3.5t51 16t36.5 40t11 72.5q0 58 -27.5 93t-74.5 35h-208z" />
    <glyph glyph-name="Q" unicode="Q" horiz-adv-x="807" 
d="M407 674q144 0 245 -100t101 -245q0 -60 -19.5 -108t-71.5 -121q29 -29 67 -69q-7 -6 -26 -25q-17 -17 -37 -35l-73 75q-66 -30 -105.5 -41t-82.5 -11q-149 0 -250.5 94.5t-101.5 238.5q0 145 103.5 246t250.5 101zM599 163q69 72 69 162q0 113 -77 190t-186 77
q-110 0 -188 -77t-78 -185q0 -105 76 -178t181 -73q66 0 133 32q-30 33 -140 145q33 33 64 60zM592 156l4 4z" />
    <glyph glyph-name="R" unicode="R" horiz-adv-x="608" 
d="M459 0l-120 245h-204l2 -245h-84v674h292q89 0 139 -60t50 -151q0 -66 -28 -120.5t-81 -79.5l129 -263h-95zM447 463q0 61 -27.5 97t-74.5 36h-208v-264h120q16 0 23 -1q45 0 70.5 3.5t50.5 16t35.5 40t10.5 72.5z" />
    <glyph glyph-name="S" unicode="S" horiz-adv-x="592" 
d="M167 499q0 -43 49 -72q27 -17 108 -43q37 -11 60.5 -19.5t56 -25.5t51.5 -35.5t32.5 -48t13.5 -64.5q0 -81 -62 -136t-159 -55h-26q-159 0 -238 178l71 36q36 -68 77.5 -104t103.5 -36q57 0 101.5 32.5t44.5 75.5q0 19 -9.5 35.5t-21.5 27.5t-37.5 23t-41.5 18t-49 18
q-36 11 -58.5 20t-55 26t-51 35t-32.5 46t-14 62q0 79 60 130t153 51q71 0 126 -34t104 -111l-67 -38q-26 31 -36.5 43t-31.5 30t-42.5 24.5t-49.5 6.5q-57 0 -93.5 -27.5t-36.5 -68.5z" />
    <glyph glyph-name="T" unicode="T" horiz-adv-x="595" 
d="M53 596v78h486l3 -77h-203l2 -597h-85v596h-203z" />
    <glyph glyph-name="U" unicode="U" horiz-adv-x="616" 
d="M561 664v-172q0 -22 0.5 -67t0.5 -69q0 -77 -1 -103q-6 -113 -78 -183t-177 -70q-97 0 -169.5 59t-80.5 154q-3 24 -3 104q0 122 1 183q1 42 1 124v50h83l-1 -294v-21q-1 -15 -1 -46q0 -38 2.5 -66.5t12.5 -60.5t27.5 -53t49 -34.5t75.5 -13.5q81 0 125 46.5t47 139.5
v403h86v-10z" />
    <glyph glyph-name="V" unicode="V" horiz-adv-x="686" 
d="M334 103q102 270 179 494q17 51 27 77h92q-148 -440 -252 -674h-78l-39 105q-111 296 -210 569h88q53 -122 149 -394q5 -15 23 -66.5t30 -85.5z" />
    <glyph glyph-name="W" unicode="W" horiz-adv-x="1016" 
d="M718 138q75 241 123 429q18 72 32 107h90q-40 -136 -64 -220q-86 -299 -133 -454h-89q-48 128 -131 401q-9 31 -38 126l-105 -336q-9 -31 -29 -96t-30 -95h-88l-55 161q-10 34 -64 221t-84 292h91q24 -72 70 -239q50 -183 86 -298q33 108 67 222q79 257 99 315h85
q45 -122 112 -351q46 -157 55 -185z" />
    <glyph glyph-name="X" unicode="X" horiz-adv-x="649" 
d="M375 353q69 -105 160 -256l60 -97h-98q-1 1 -19 29q-86 137 -154 235q-33 -48 -96 -149q-59 -94 -74 -115h-101l217 356l-28 49q-9 15 -75 117q-61 90 -97 152h95q6 -8 59 -90q51 -82 99 -153l167 243h92q-47 -77 -118 -184q-64 -98 -89 -137z" />
    <glyph glyph-name="Y" unicode="Y" horiz-adv-x="678" 
d="M150 674l190 -306l190 306h95l-244 -395v-279h-85v278l-243 396h97z" />
    <glyph glyph-name="Z" unicode="Z" horiz-adv-x="577" 
d="M60 674h464l-320 -595h306v-79h-457l330 594h-323v80z" />
    <glyph glyph-name="bracketleft" unicode="[" horiz-adv-x="303" 
d="M250 740v-76h-116v-679h116v-72h-197v827h197z" />
    <glyph glyph-name="bracketright" unicode="]" horiz-adv-x="303" 
d="M250 -87h-197v72h116v679h-116v76h197v-827z" />
    <glyph glyph-name="asciicircum" unicode="^" horiz-adv-x="532" 
d="M395 361l-133 210l-125 -210h-84l179 297h60l187 -297h-84z" />
    <glyph glyph-name="underscore" unicode="_" horiz-adv-x="527" 
d="M53 -121v73h420v-73h-420z" />
    <glyph glyph-name="a" unicode="a" horiz-adv-x="611" 
d="M477 480h79l2 -480h-81v61q-73 -67 -194 -67q-91 0 -160.5 76t-69.5 175t70 173t164 74q53 0 96.5 -13t93.5 -57v58zM305 72q72 0 122 50t50 122q0 71 -50.5 121t-121.5 50t-120 -51t-49 -125q0 -70 49 -118.5t120 -48.5z" />
    <glyph glyph-name="b" unicode="b" horiz-adv-x="607" 
d="M298 490q109 0 182.5 -71t73.5 -174t-71.5 -178t-169.5 -75q-108 0 -184 75v-67h-76v659h76v-236q61 67 169 67zM301 72q71 0 121 50t50 121q0 69 -51 119t-120 50q-70 0 -119.5 -50.5t-49.5 -120.5q0 -71 49 -120t120 -49z" />
    <glyph glyph-name="c" unicode="c" horiz-adv-x="578" 
d="M519 117q-77 -123 -213 -123q-106 0 -179.5 71.5t-73.5 178.5t69 177.5t180 70.5q138 0 221 -130l-62 -39q-39 47 -74 68.5t-83 21.5q-74 0 -121 -47.5t-47 -120.5q0 -70 48 -120t114 -50q95 0 162 90l64 -40z" />
    <glyph glyph-name="d" unicode="d" horiz-adv-x="607" 
d="M308 492q109 0 170 -68v235h76v-659h-76v68q-77 -74 -183 -74q-98 0 -170 74.5t-72 177.5t73.5 174.5t181.5 71.5zM306 73q70 0 119.5 49.5t49.5 120.5q0 69 -49.5 119.5t-119.5 50.5q-69 0 -119.5 -50t-50.5 -119q0 -71 49.5 -121t120.5 -50z" />
    <glyph glyph-name="e" unicode="e" horiz-adv-x="596" 
d="M542 228l-1 -26h-403q31 -129 164 -129q51 0 87 17.5t72 59.5l62 -37q-33 -56 -90 -87.5t-125 -31.5q-110 0 -182.5 70.5t-72.5 178.5q0 105 71.5 177t177.5 72t173 -74t67 -190zM141 283h313q-26 128 -152 128q-124 0 -161 -128z" />
    <glyph glyph-name="f" unicode="f" horiz-adv-x="392" 
d="M129 415h-76v77h76v8q0 84 25 121t107 37l58 -1v-76h-53q-17 0 -29 -5.5t-18 -12t-9 -20.5t-3.5 -23t-0.5 -28h132v-77h-130v-415h-79v415z" />
    <glyph glyph-name="g" unicode="g" horiz-adv-x="610" 
d="M474 480h81v-430q-5 -125 -68 -181.5t-189 -56.5q-64 0 -114.5 27.5t-102.5 94.5l69 42q25 -31 47.5 -49.5t45.5 -26t37 -9t39 -1.5q78 0 120 48q34 40 34 123q-35 -41 -76 -54t-92 -13q-107 0 -179.5 70t-72.5 171v22q0 93 72 164.5t166 71.5q52 0 96 -14t87 -58v59z
M304 75q70 0 119.5 48t49.5 118q0 71 -50 121t-121 50q-70 0 -119 -49t-49 -119q0 -71 49 -120t121 -49z" />
    <glyph glyph-name="h" unicode="h" horiz-adv-x="514" 
d="M271 493q84 0 136 -45q32 -31 42.5 -79t10.5 -117v-63q0 -9 -0.5 -33.5t-0.5 -38.5q-1 -33 -1 -117h-76l1 185v27q0 6 0.5 18.5t0.5 19.5q0 34 -4.5 60t-16 50.5t-36 38t-60.5 14.5q-44 -1 -73 -20t-42 -52.5t-18 -66t-5 -75.5q0 -6 0.5 -17.5t0.5 -16.5v-165h-77v659h77
v-127q0 -31 1 -44v-38q46 43 140 43z" />
    <glyph glyph-name="i" unicode="i" horiz-adv-x="215" 
d="M53 606q0 24 14.5 38.5t39.5 14.5q26 0 40.5 -14.5t14.5 -38.5t-14.5 -38.5t-40.5 -14.5q-25 0 -39.5 14.5t-14.5 38.5zM144 480v-480h-76v480h76z" />
    <glyph glyph-name="j" unicode="j" horiz-adv-x="292" 
d="M129 606q0 24 15.5 38.5t39.5 14.5q25 0 39.5 -14.5t14.5 -38.5t-14.5 -38.5t-39.5 -14.5q-24 0 -39.5 14.5t-15.5 38.5zM220 -3q0 -39 -1.5 -62.5t-9 -49.5t-21 -39.5t-38.5 -22.5t-61 -9h-36v79q9 0 16 -0.5t8 -0.5q4 -1 13 -1q25 0 40 12q14 14 14 74v21q1 13 1 44v49
q-1 18 -1 55v334h77z" />
    <glyph glyph-name="k" unicode="k" horiz-adv-x="512" 
d="M53 659h76v-376l214 209h101l-254 -246l268 -246h-104l-226 204v-204h-75v659z" />
    <glyph glyph-name="l" unicode="l" horiz-adv-x="181" 
d="M129 659v-659h-75l-2 659h77z" />
    <glyph glyph-name="m" unicode="m" horiz-adv-x="783" 
d="M544 492q46 0 89.5 -18.5t66.5 -53.5q31 -48 31 -175v-33q0 -6 -0.5 -16.5t-0.5 -15.5l-2 -180h-77v275q0 138 -105 138q-106 0 -113 -148q0 -3 -0.5 -5.5t-0.5 -4.5t-0.5 -4t-0.5 -3v-248h-83l2 252q0 161 -102 161q-31 0 -53 -12.5t-34.5 -31t-19 -48.5t-8.5 -56
t-2 -62q0 -6 0.5 -18.5t0.5 -18.5v-34v-132h-79l2 492h77v-35q15 16 36 24.5t35.5 9.5t43.5 1q43 0 77.5 -14t65.5 -56q27 40 63.5 55t90.5 15z" />
    <glyph glyph-name="n" unicode="n" horiz-adv-x="516" 
d="M267 492q74 0 126.5 -40.5t64.5 -110.5q5 -30 5 -91v-250h-79v210v29q0 84 -24 130t-89 46q-46 0 -76 -13t-43.5 -38t-18 -47.5t-4.5 -53.5q0 -19 1 -29v-23v-211h-77l2 492h77l-1 -46q46 46 136 46z" />
    <glyph glyph-name="o" unicode="o" horiz-adv-x="610" 
d="M308 492q104 0 177 -71t73 -172q0 -103 -73 -176t-179 -73q-105 0 -179 73t-74 175q0 101 75 172.5t180 71.5zM306 77q72 0 121.5 51t49.5 121q0 68 -51 117t-121 49t-119.5 -49t-49.5 -118q0 -71 49.5 -121t120.5 -50z" />
    <glyph glyph-name="p" unicode="p" horiz-adv-x="606" 
d="M298 0q-107 0 -169 68v-255h-76v667h76v-55q70 68 173 68q99 0 175 -75t76 -174q0 -103 -73 -173.5t-182 -70.5zM300 415q-71 0 -120.5 -49.5t-49.5 -119.5q0 -69 50 -118.5t120 -49.5q69 0 119.5 49.5t50.5 118.5q0 68 -50 118.5t-120 50.5z" />
    <glyph glyph-name="q" unicode="q" horiz-adv-x="606" 
d="M308 -6q-109 0 -182 71.5t-73 174.5q0 102 71.5 177t170.5 75q106 0 182 -75v63h76v-667h-76v249q-62 -68 -169 -68zM305 412q-70 0 -119.5 -50t-49.5 -119q0 -71 50 -121t120 -50t119.5 50.5t49.5 121.5q0 70 -49.5 119t-120.5 49z" />
    <glyph glyph-name="r" unicode="r" horiz-adv-x="354" 
d="M114 431q32 38 77 49.5t110 11.5v-85q-20 5 -39 5q-52 0 -90.5 -22t-38.5 -66v-47q-1 -28 -1 -102v-175h-79v480h76v-30z" />
    <glyph glyph-name="s" unicode="s" horiz-adv-x="477" 
d="M158 352q0 -20 17 -34.5t35.5 -20.5t54.5 -16q39 -11 58.5 -18t47.5 -22.5t40.5 -39t12.5 -56.5q0 -65 -49.5 -105t-133.5 -40q-58 0 -100.5 24t-87.5 89l66 44q31 -44 56 -60.5t69 -16.5q46 0 72 16.5t26 43.5q0 15 -8 26t-26 19.5t-33 13.5t-42 12q-38 11 -58.5 18
t-48 22.5t-40 38.5t-12.5 55q0 65 46.5 106t125.5 41q48 0 84.5 -20.5t89.5 -80.5l-65 -44q-24 26 -35.5 37t-31 20t-43.5 9q-39 0 -63 -16.5t-24 -44.5z" />
    <glyph glyph-name="t" unicode="t" horiz-adv-x="416" 
d="M232 176q0 -52 13.5 -75.5t50.5 -23.5q22 0 67 12v-79q-12 -3 -21 -3q-40 -7 -59 -7q-78 0 -106 45.5t-28 128.5v239h-96v79h96v119h83v-119h131v-79h-131v-237z" />
    <glyph glyph-name="u" unicode="u" horiz-adv-x="516" 
d="M247 -6q-72 0 -125.5 42t-64.5 111q-4 29 -4 90v255h77v-213q0 -6 -0.5 -16t-0.5 -15q0 -84 25.5 -130t90.5 -46q46 0 76 13.5t43.5 38t18 47.5t4.5 54q0 5 -0.5 15t-0.5 14v24v214h77l-1 -492h-79l2 42q-48 -48 -138 -48z" />
    <glyph glyph-name="v" unicode="v" 
d="M289 108l156 384h84l-199 -492h-83l-194 492h87z" />
    <glyph glyph-name="w" unicode="w" horiz-adv-x="783" 
d="M202 0l-149 492h87l101 -360l118 360h71l113 -359l105 359h82l-151 -492h-73l-114 342l-111 -342h-79z" />
    <glyph glyph-name="x" unicode="x" horiz-adv-x="567" 
d="M514 492l-183 -248l183 -244h-91l-139 181l-138 -181h-93l184 244l-184 248h91l140 -189l139 189h91z" />
    <glyph glyph-name="y" unicode="y" 
d="M390 110l-11 -29q-22 -61 -34 -89.5t-32.5 -63.5t-48.5 -64q-49 -51 -138 -51v72q56 10 92 44t36 78q0 20 -27 77q-20 40 -34 75l-140 333h84l165 -381q42 105 86 231q31 88 55 150h86z" />
    <glyph glyph-name="z" unicode="z" horiz-adv-x="500" 
d="M82 492h365l-250 -415h242v-77h-386l257 413h-228v79z" />
    <glyph glyph-name="braceleft" unicode="{" horiz-adv-x="386" 
d="M230 227q0 -34 -2 -84q-1 -21 -1 -56q0 -52 12.5 -72t61.5 -31l32 -10l-2 -65h-45q-43 0 -72 14.5t-42.5 42.5t-18.5 58.5t-5 73.5q0 8 0.5 24t0.5 24q2 32 2 45q0 45 -13 67t-55 35q-14 3 -28 10l-1 30q0 3 -0.5 15t-0.5 15q36 13 55 17q30 9 35.5 14.5t5.5 26.5
q0 12 -0.5 35t-0.5 34q-1 22 -1 62q0 103 29.5 152.5t121.5 49.5q14 2 32 2q0 -38 3 -68q-15 -5 -33 -9q-48 -10 -60 -28.5t-12 -68.5v-17q0 -36 1 -53v-43q0 -50 -9.5 -77t-42.5 -60q37 -41 45 -56.5t8 -48.5z" />
    <glyph glyph-name="bar" unicode="|" horiz-adv-x="227" 
d="M154 645v-644h-80v644h80z" />
    <glyph glyph-name="braceright" unicode="}" horiz-adv-x="386" 
d="M157 227q0 33 8 48t45 57q-33 32 -42 59t-9 78v43q1 17 1 53v17q0 36 -4 53q-12 33 -69 44q-20 5 -32 9q3 30 3 68q16 0 32 -2q91 0 120.5 -49t29.5 -152q0 -41 -1 -62q0 -11 -0.5 -34.5t-0.5 -35.5q0 -21 5.5 -26.5t35.5 -13.5q30 -9 55 -18v-30q-1 -8 -1 -30
q-13 -6 -27 -10q-44 -13 -56.5 -36t-12.5 -71q0 -7 0.5 -21.5t0.5 -21.5q1 -15 1 -45q0 -43 -5 -73.5t-18.5 -58.5t-42 -42.5t-71.5 -14.5h-45l-1 65q8 3 18.5 6t12.5 4q57 13 69 46q5 22 5 53q0 15 -2 57q-2 52 -2 87z" />
    <glyph glyph-name="yen" unicode="&#xa5;" horiz-adv-x="605" 
d="M530 278v-54h-189v-65h189v-53h-189v-95h-79v95h-189v53h189v65h-189v54h189v22l-241 359h85l194 -294l198 294h86l-243 -358v-23h189z" />
    <glyph glyph-name="copyright" unicode="&#xa9;" horiz-adv-x="769" 
d="M716 329q0 -136 -91 -236t-236 -100q-133 0 -234.5 101.5t-101.5 234.5q0 131 101.5 232.5t234.5 101.5q145 0 236 -99t91 -235zM656 329q0 110 -74 192t-192 82q-108 0 -191 -83.5t-83 -190.5q0 -106 84 -188t191 -87h3q112 4 187 86.5t75 188.5zM391 157
q-67 0 -116.5 51.5t-49.5 120.5q0 68 50 119t116 51q72 0 141 -63l-51 -57q-46 46 -86 46q-37 0 -64.5 -28.5t-27.5 -67.5q0 -40 26.5 -69t65.5 -29q38 0 86 46l51 -56q-67 -64 -141 -64z" />
    <glyph glyph-name="guillemotleft" unicode="&#xab;" horiz-adv-x="456" 
d="M142 326l112 -174h-93l-108 174l108 171h91zM292 325l111 -173h-93l-107 173l107 172h92z" />
    <glyph glyph-name="registered" unicode="&#xae;" horiz-adv-x="762" 
d="M709 321q0 -129 -100 -228.5t-228 -99.5q-129 0 -228.5 99.5t-99.5 228.5q0 128 99.5 228t228.5 100q127 0 227.5 -100.5t100.5 -227.5zM648 321q0 104 -81.5 185.5t-185.5 81.5t-185 -81.5t-81 -185.5t81 -185t185 -81q102 0 183.5 81.5t83.5 184.5zM532 159h-81
l-71 113h-47v-113h-67v322h121q51 0 83.5 -26.5t32.5 -77.5q0 -68 -54 -93zM333 418v-84h52q52 0 52 43q0 41 -52 41h-52z" />
    <glyph glyph-name="guillemotright" unicode="&#xbb;" horiz-adv-x="456" 
d="M53 152l111 173l-109 172h91l108 -172l-108 -173h-93zM203 152l110 174l-109 171h92l107 -171l-107 -174h-93z" />
    <glyph glyph-name="divide" unicode="&#xf7;" horiz-adv-x="459" 
d="M173 444q0 25 16.5 42t42.5 17t42.5 -17t16.5 -42t-16 -41t-43 -16t-43 16t-16 41zM407 279h-354v75h354v-75zM173 188q0 25 16 41.5t43 16.5t43 -16.5t16 -41.5q0 -26 -16 -42t-43 -16t-43 16t-16 42z" />
    <glyph glyph-name="tilde" unicode="&#x2dc;" horiz-adv-x="520" 
d="M442 571q0 -65 -29 -102t-75 -37q-47 0 -76 29l-30 30q-27 27 -43 27q-19 0 -29.5 -23.5t-10.5 -58.5h-65v20q0 66 28.5 102.5t75.5 36.5q21 0 39 -8t28.5 -17t27.5 -27q31 -35 54 -35q18 0 28 22.5t11 57.5h66v-17z" />
    <glyph glyph-name="endash" unicode="&#x2013;" horiz-adv-x="580" 
d="M527 157h-474v73h474v-73z" />
    <glyph glyph-name="quoteleft" unicode="&#x2018;" horiz-adv-x="242" 
d="M120 716q39 16 69 24q-6 -42 -28 -165q-6 -38 -12 -68q-20 1 -44 1q-28 0 -52 -2q16 56 21 78q23 86 42 130z" />
    <glyph glyph-name="quoteright" unicode="&#x2019;" horiz-adv-x="246" 
d="M120 524q-28 -11 -62 -20q14 85 28 165q2 10 6.5 34t5.5 34q20 -2 44 -2q28 0 52 2q-9 -30 -20 -74q-25 -93 -44 -134z" />
    <glyph glyph-name="quotesinglbase" unicode="&#x201a;" horiz-adv-x="239" 
d="M100 131q55 0 86 -3l-18 -68q-24 -94 -40 -131q-27 -17 -75 -36q6 63 31 197l8 41h8z" />
    <glyph glyph-name="quotedblleft" unicode="&#x201c;" horiz-adv-x="369" 
d="M250 718q29 13 68 25q-23 -162 -39 -235q-20 3 -44 3q-25 0 -52 -4q2 6 19 71q25 95 45 139zM127 716q39 16 68 24q-24 -156 -39 -233q-12 1 -45 1q-27 0 -51 -2l19 71q22 90 44 137z" />
    <glyph glyph-name="quotedblright" unicode="&#x201d;" horiz-adv-x="371" 
d="M259 530q-32 -14 -68 -24q9 67 27 171l11 64q22 -4 45 -4q25 0 52 4q-12 -35 -19 -70q-25 -97 -45 -139zM134 527q-40 -16 -68 -23q8 63 39 233q24 -2 45 -2q25 0 51 3q-2 -6 -19 -71q-22 -90 -44 -139z" />
    <glyph glyph-name="quotedblbase" unicode="&#x201e;" horiz-adv-x="367" 
d="M55 -89q7 67 29 178q7 38 8 42h94q-11 -40 -17 -68q-22 -90 -41 -135q-18 -11 -50 -23q-5 -3 -25 -10zM229 128q18 1 85 1q-2 -7 -8 -31t-8 -34q-19 -84 -41 -130q-16 -15 -42 -26q-12 -4 -32 -16q5 74 27 184l11 52h8z" />
    <glyph glyph-name="ellipsis" unicode="&#x2026;" horiz-adv-x="649" 
d="M53 85q0 27 16.5 43.5t43.5 16.5t43 -16.5t16 -43.5q0 -25 -16 -41t-43 -16t-43.5 16t-16.5 41zM264 87q0 27 16.5 42.5t42.5 15.5q28 0 45 -15.5t17 -42.5q0 -24 -17.5 -40.5t-44.5 -16.5q-25 0 -42 16.5t-17 40.5zM477 87q0 27 15.5 42.5t42.5 15.5q28 0 44 -15t16 -43
q0 -25 -16.5 -41t-43.5 -16q-26 0 -42 16.5t-16 40.5z" />
    <glyph glyph-name="guilsinglleft" unicode="&#x2039;" horiz-adv-x="307" 
d="M144 326l110 -174h-93l-108 174l108 171h91z" />
    <glyph glyph-name="guilsinglright" unicode="&#x203a;" horiz-adv-x="307" 
d="M53 152l111 174l-109 171h91l108 -171l-108 -174h-93z" />
    <glyph glyph-name="Euro" unicode="&#x20ac;" 
d="M444 609q-77 0 -139.5 -38t-98.5 -111h325l-27 -71l-318 3q-3 -25 -3 -43q0 -21 3 -46h347l-36 -68h-289q37 -71 98.5 -108t136.5 -37q47 0 104 18v-71q-53 -18 -115 -18q-104 0 -188.5 58t-121.5 158h-101l1 66l85 1q-3 21 -3 47q0 17 2 44h-82v67h96q36 103 121.5 162
t193.5 59q69 0 126 -22v-72q-64 22 -117 22z" />
    <glyph glyph-name="trademark" unicode="&#x2122;" horiz-adv-x="739" 
d="M530 596v48l-21 -36q-52 -85 -57 -94q-67 109 -77 125l-1 2l-1 1v-30v-37v-115h-62l1 110v88v43h-96v-242h-65v242h-105v63h276v-2h49q37 -57 80 -130q16 24 32 52q24 42 48 78h60v-302h-61v136z" />
    <glyph glyph-name="fraction" horiz-adv-x="320" 
d="M20 18h-81l360 839h82z" />
    <glyph glyph-name="exclamdown" horiz-adv-x="225" 
d="M53 602q0 25 16.5 41t43.5 16t43 -16t16 -41q0 -27 -16 -43t-43 -16t-43.5 16t-16.5 43zM149 495q12 -335 16 -495h-102l6 159q6 209 13 336h67z" />
    <glyph glyph-name="questiondown" horiz-adv-x="523" 
d="M189 602q0 27 16.5 42t43.5 15t43.5 -15t16.5 -42q0 -25 -17 -41.5t-43 -16.5q-27 0 -43.5 16.5t-16.5 41.5zM263 0q-76 0 -125.5 34t-84.5 104q36 18 68 38q38 -55 65.5 -74t67.5 -19q59 0 93 25t34 67q0 24 -14.5 49.5t-28 40t-41.5 42.5q-53 53 -66.5 79t-28.5 100
l30 1q5 1 20 2t20 1q63 -109 113 -158q50 -51 65 -79q19 -37 19 -77q0 -75 -59 -125.5t-147 -50.5z" />
    <glyph glyph-name="CR" horiz-adv-x="282" 
 />
    <glyph glyph-name="cent" horiz-adv-x="578" 
d="M524 125l-5 -8q-65 -105 -180 -121v-77h-75v78q-93 14 -152 82.5t-59 164.5q0 98 56 165.5t153 79.5v90h77v-89q111 -13 184 -128l-62 -39q-34 40 -61 61t-61 27v-332q65 10 121 86zM136 245q0 -62 36 -108.5t92 -57.5l-2 329q-58 -11 -92 -55.5t-34 -107.5z" />
    <glyph glyph-name="sterling" horiz-adv-x="539" 
d="M419 477q-2 50 -37 83.5t-87 33.5q-54 0 -90 -36.5t-36 -90.5v-120h218l-43 -69h-175v-209h276v117h73v-186h-497v57l68 11v210h-58v69h58v125q0 87 57.5 142t148.5 55q87 0 141.5 -56.5t55.5 -145.5h-73v10z" />
    <glyph glyph-name="greaterequal" horiz-adv-x="312" 
d="M-38 219v93l277 111l-277 107v94l389 -162v-77z" />
    <glyph glyph-name="lessequal" horiz-adv-x="312" 
d="M351 530l-278 -107l278 -111v-93l-389 166v77l389 162v-94z" />
    <glyph glyph-name="NULL" horiz-adv-x="282" 
 />
    <glyph glyph-name="_FSHallmark" horiz-adv-x="754" 
d="M701 603v-74h-630v74h630zM619 388q0 14 -16.5 27t-38.5 13q-20 0 -36 -9.5t-16 -21.5q0 -17 9 -26.5t39 -17.5l27 -6q27 -6 37.5 -9t28.5 -9.5t25.5 -13.5t14 -18.5t7.5 -27.5q1 -42 -36.5 -68t-98.5 -26q-68 0 -103.5 34t-35.5 79l73 -1q0 -8 4 -18t21 -21.5t44 -11.5
q24 0 39.5 8.5t15.5 19.5q0 22 -60 36q-56 14 -92 33q-38 20 -38 63q0 41 37.5 67t94.5 26q60 0 95 -30.5t35 -70.5h-76zM305 347v-70h-151v-102h-83v313h265v-71h-182v-70h151zM329 213q0 15 11 26t27 11q17 0 29.5 -11t12.5 -26q0 -16 -12 -26t-30 -10q-16 0 -27 10.5
t-11 25.5zM700 136v-75h-631v75h631z" />
    <glyph glyph-name="_Fontastica" horiz-adv-x="754" 
d="M513 260h-295v-147h-87q-1 1 -1 4v510h382v-78h-294v-210h295v-79zM569 402h-296v79h296v146h87v-513h-383v78h296v210zM569 63q-11 -7 -1 -19q3 -4 9 -4q7 0 14 4l4 -4q-6 -9 -18 -9q-8 0 -16 5q-6 6 -6.5 16t5.5 17q8 8 17 8q10 0 18 -8l-4 -6q-10 5 -12 5h-2
q-6 -2 -8 -5zM142 32h-11v44h32v-8h-21v-12h20v-7h-20v-17zM203 76q15 0 22 -12q7 -8 1.5 -20t-18.5 -13q-4 -2 -6 -2q-6 0 -9 3q-14 6 -14 19q0 11 7 18t17 7zM279 76h9v-44q-2 0 -3.5 -0.5t-2.5 -0.5q-3 0 -7 5q-7 10 -17 23v-27h-10v44q10 0 13 -6l9 -12l9 -12v30z
M321 68h-14v8h37v-8h-14v-36h-9v36zM444 55q9 -1 9 -10q2 -8 -8 -13q-2 -1 -8 -1q-14 0 -21 7l3 6l14 -4h6l2 1q1 0 1 1q0 4 -2 5q-1 2 -8 4l-2 1q-3 1 -4 1q-7 2 -7 10q-1 7 6 11q3 2 10 2q11 0 18 -4l-4 -8q-2 1 -5.5 2.5t-4.5 1.5h-6q-3 0 -3 -3q-2 -2 3 -6q6 -1 11 -4z
M482 68h-14v8h38v-8h-14v-36h-10v36zM535 32h-11v44h11v-44zM640 76q2 -4 8 -19.5t11 -24.5h-10l-4 9h-21l-4 -9h-10q10 20 18 44h12zM382 74q9 -17 18 -42h-10l-3 9h-20q-2 -7 -4 -9h-9q5 13 18 42h10zM216 54q0 14 -12 14q-1 0 -2.5 -0.5t-2.5 -0.5q-15 -7 -9 -18
q3 -10 13 -10q3 0 4 1q9 2 9 13v1zM369 49h15q-6 9 -7 16zM627 49h14q-2 2 -3.5 8t-3.5 8z" />
    </font>
</defs>
</svg>
