<?xml version="1.0" standalone="no"?>
<!DOCTYPE svg PUBLIC "-//W3C//DTD SVG 1.1//EN" "http://www.w3.org/Graphics/SVG/1.1/DTD/svg11.dtd" >
<svg xmlns="http://www.w3.org/2000/svg" xmlns:xlink="http://www.w3.org/1999/xlink" version="1.1">
<metadata>
Created by FontForge 20170731 at Wed Aug  8 20:29:27 2018
 By Aleksey,,,
Copyright (c) 2018 by Fontastica. All rights reserved.
</metadata>
<defs>
<font id="VisiaPro-BoldItalicOutline" horiz-adv-x="582" >
  <font-face 
    font-family="Visia Pro Bold Italic Outline"
    font-weight="700"
    font-style="italic"
    font-stretch="normal"
    units-per-em="1000"
    panose-1="0 0 8 0 0 0 0 0 0 0"
    ascent="800"
    descent="-200"
    x-height="502"
    cap-height="684"
    bbox="-69.2857 -198 1092.13 867"
    underline-thickness="50"
    underline-position="-225"
    slope="-10"
    unicode-range="U+0020-2122"
  />
<missing-glyph horiz-adv-x="661" 
 />
    <glyph glyph-name=".notdef" horiz-adv-x="661" 
 />
    <glyph glyph-name=".null" horiz-adv-x="0" 
 />
    <glyph glyph-name="nonmarkingreturn" horiz-adv-x="333" 
 />
    <glyph glyph-name="space" unicode=" " horiz-adv-x="295" 
 />
    <glyph glyph-name="exclam" unicode="!" horiz-adv-x="225" 
d="M102 175q10 85 34 247t33 238q2 9 10 9h102q12 0 10 -12q-68 -330 -103 -495q-2 -8 -10 -8h-67q-5 0 -8 3.5t-2 7.5zM111 164h67q68 322 103 495h-102q-1 -8 -22 -158q-30 -209 -45 -327zM193 71q0 -35 -23 -58t-57 -23q-26 0 -43.5 14.5t-17.5 41.5q0 34 24 57.5
t58 23.5q26 0 42.5 -15t16.5 -41zM63 58q-5 -26 9 -42t41 -16t45.5 16t23.5 42q5 27 -8 43t-40 16t-47 -16.5t-24 -42.5z" />
    <glyph glyph-name="numbersign" unicode="#" horiz-adv-x="625" 
d="M633 371q-2 -7 -9 -7l-100 2l-25 -70h96q6 0 8.5 -4t0.5 -9l-27 -76q-2 -7 -9 -7h-101l-57 -156q-2 -7 -9 -7l-79 2q-6 0 -8.5 4t-0.5 9l51 146h-79l-56 -154q-2 -7 -9 -7l-74 2q-6 0 -8.5 4t-0.5 9l47 147h-94q-6 0 -8.5 4t-0.5 9l25 77q0 2 3.5 4.5t5.5 2.5l105 3
l23 64l-98 1q-14 0 -9 14l28 75q3 6 9 6h101l55 153q2 7 9 7h78q14 0 10 -13l-50 -149h75l57 154q3 6 9 6h78q6 0 8.5 -4t0.5 -9l-50 -145h97q6 0 8.5 -4t0.5 -9zM651 449h-111l55 158h-78l-59 -160h-96l54 162h-78l-57 -160h-108l-28 -75l112 -1l-30 -84l-112 -3l-25 -77
h108l-52 -160l74 -2l58 161h100l-56 -159l79 -2l59 163h108l27 76h-110l32 90l107 -2zM337 374h98l-30 -85h-99zM320 299h78l23 65h-77z" />
    <glyph glyph-name="dollar" unicode="$" 
d="M156 221q1 1 4 1q6 0 10 -7q28 -97 93 -122l38 206q-30 11 -52.5 22t-46.5 29t-37 43.5t-13 57.5q0 84 64.5 143.5t149.5 72.5l14 80q2 8 10 8h80q12 0 10 -12l-14 -79q92 -25 148 -145q4 -9 -4 -13l-73 -37q-2 -1 -5 -1q-6 0 -9 5q-38 68 -75 87l-33 -188
q32 -11 55.5 -21.5t49.5 -28.5t40 -44.5t14 -60.5q0 -87 -69 -149.5t-157 -74.5l-15 -86q-2 -8 -10 -8h-82q-12 0 -10 12l15 82q-129 22 -172 179q-2 8 6 12zM84 175q43 -159 174 -173l-17 -93h82l16 93q85 9 147.5 62t75.5 126q7 39 -4 69.5t-39 50.5t-52.5 31.5
t-62.5 23.5l36 209q28 -9 47 -31.5t45 -64.5l73 37q-55 120 -150 141l15 89h-80l-16 -87q-80 -10 -138 -59.5t-71 -119.5q-7 -38 3 -67.5t35.5 -49.5t49 -32t59.5 -24l-41 -226q-39 11 -63.5 40.5t-44.5 82.5l-3 9zM251 484q6 35 35.5 60t73.5 33l-33 -185q-39 16 -60.5 37
t-15.5 55zM348 564q-37 -11 -62.5 -35.5t-25.5 -57.5q0 -38 59 -65zM388 279q48 -19 70.5 -40.5t16.5 -56.5q-7 -35 -41.5 -63t-80.5 -40zM366 93q41 14 70.5 41.5t29.5 61.5q0 41 -70 69z" />
    <glyph glyph-name="percent" unicode="%" horiz-adv-x="800" 
d="M446 516q0 -54 -18 -103.5t-60 -86t-100 -36.5t-88.5 38t-30.5 96q0 82 48.5 153.5t129.5 71.5q61 0 90 -36.5t29 -96.5zM327 639q-60 0 -105.5 -47t-58.5 -124q-13 -76 16 -122t89 -46t104.5 43.5t59.5 125.5q12 72 -12 121t-93 49zM777 637q8 0 10.5 -5t-2.5 -12
l-541 -617l-4 -1l-4 -2h-79q-8 0 -10.5 5.5t3.5 11.5l543 617q0 3 7 3h77zM700 627l-543 -617h79l541 617h-77zM279 364q-30 0 -45 29t-7 75t33.5 76.5t54.5 30.5q32 0 45.5 -29t5.5 -78q-8 -48 -31.5 -76t-55.5 -28zM359 502q0 63 -44 63q-34 0 -57.5 -42.5t-23.5 -84.5
q0 -27 11.5 -45.5t33.5 -18.5q37 0 58.5 41t21.5 87zM770 216q0 -53 -18.5 -103t-60.5 -86.5t-99 -36.5q-59 0 -89.5 38.5t-30.5 96.5q0 52 19 102t61.5 86t98.5 36q60 0 89.5 -36.5t29.5 -96.5zM651 339q-61 0 -106.5 -46.5t-58.5 -123.5t16 -123t90 -46q60 0 104.5 44.5
t59.5 126.5q5 43 1 80.5t-31.5 62.5t-74.5 25zM603 65q-30 0 -45 29t-7 75t33 76.5t54 30.5q32 0 45.5 -29.5t5.5 -77.5q-8 -47 -31.5 -75.5t-54.5 -28.5zM682 203q0 63 -44 63q-34 0 -57 -42.5t-23 -84.5q0 -27 11.5 -45.5t33.5 -18.5q36 0 57.5 41.5t21.5 86.5z" />
    <glyph glyph-name="ampersand" unicode="&#x26;" horiz-adv-x="670" 
d="M635 67q9 -9 -2 -16l-81 -48l-2 -1h-2q-6 0 -8 3l-54 54q-100 -69 -220 -69q-80 0 -137 40t-57 120q0 110 122 206q-29 47 -29 88q0 87 72.5 156t159.5 69q73 0 121 -39t48 -112q0 -74 -41 -131t-110 -83q26 -29 73 -80q33 72 43 93q4 6 12 6l70 -22q9 -4 7 -13
q-18 -65 -58 -142zM550 144q42 83 60 147l-70 22q-27 -56 -49 -107q-47 50 -94 103q67 21 106 66.5t49 104.5q15 83 -28.5 131t-126.5 48q-80 -4 -142.5 -57.5t-76.5 -129.5q-6 -33 0.5 -57t25.5 -57l3 -5q-58 -44 -86 -83.5t-36 -86.5l-1 -7q-11 -80 39.5 -128t142.5 -48
q122 0 221 72l60 -60l52 31q9 6 17 10l12 7zM384 574q41 -1 63.5 -24t17.5 -62l-1 -6q-8 -42 -41.5 -75t-70.5 -36q-42 1 -68.5 32t-19.5 73q7 40 42.5 68t77.5 30zM273 460q0 -32 23.5 -55.5t55.5 -23.5q36 0 70 40.5t34 79.5q0 29 -20 46t-52 17q-41 0 -76 -32t-35 -72z
M172 188q0 5 1 7q4 28 26.5 51t75.5 55q30 -32 42 -44q95 -102 114 -124q-77 -49 -151 -49q-53 0 -82.5 28t-25.5 76zM280 94q64 0 136 41q-62 69 -143 153q-28 -16 -44 -28t-31.5 -34.5t-15.5 -48.5q0 -40 27.5 -61.5t70.5 -21.5z" />
    <glyph glyph-name="parenleft" unicode="(" horiz-adv-x="291" 
d="M191 192q0 -135 41 -279q1 -5 -2 -9t-8 -4h-81q-6 0 -9 6q-41 109 -41 296q0 70 10 133q15 89 70 217t109 199q4 4 8 4h81q7 0 9.5 -4.5t-0.5 -10.5q-51 -89 -76 -136.5t-55.5 -120.5t-43 -142t-12.5 -149zM369 745h-81q-54 -71 -108 -198t-69 -214q-16 -113 -5 -235.5
t35 -187.5h81q-65 228 -29 425q15 86 52 173.5t116 222.5z" />
    <glyph glyph-name="parenright" unicode=")" horiz-adv-x="291" 
d="M320 462q0 -84 -9 -134q-16 -89 -71 -218.5t-109 -205.5q-4 -4 -8 -4h-82q-8 0 -10 4.5t2 10.5q188 295 188 536q0 109 -42 292q-2 12 10 12h81q6 0 9 -6q41 -97 41 -287zM270 745h-81q32 -144 39.5 -233.5t-7.5 -176.5q-36 -201 -180 -425h82q47 65 104 193.5t74 226.5
q15 79 7 211t-36 199z" />
    <glyph glyph-name="asterisk" unicode="*" horiz-adv-x="372" 
d="M356 521q13 -26 25 -46q5 -9 -5 -14l-71 -35q-1 -1 -4 -1q-6 0 -9 6q-4 8 -22 46l-39 -48q-3 -4 -8 -4q-4 0 -29 14.5t-33 20.5q-8 5 -3 14q11 15 35 45h-47q-12 0 -10 12l12 69q2 8 10 8h53l-21 46q-4 9 4 13l67 35q2 1 5 1q6 0 9 -6l23 -49l40 51q4 4 8 4q1 0 3 -1h2
l58 -35q10 -7 3 -15q-22 -28 -34 -41h46q5 0 8 -3.5t2 -7.5q-2 -12 -6 -35.5t-5 -34.5q-2 -9 -10 -9h-57zM413 531q2 14 6.5 40.5t4.5 29.5h-68q23 25 48 57l-58 35l-50 -64l-30 64l-67 -35l27 -60h-68l-12 -69h68q-41 -52 -48 -61l7.5 -5t10.5 -6t7 -4q16 -8 32 -18
q30 35 49 62q13 -31 29 -62l71 35q-14 23 -39 77l8 -16h72z" />
    <glyph glyph-name="plus" unicode="+" horiz-adv-x="507" 
d="M238 107q-13 0 -11 12l26 148h-151q-12 0 -10 12l14 77q2 8 10 8h151l26 152q2 8 10 8h80q12 0 10 -12l-26 -147h150q12 0 10 -12l-14 -77q-2 -8 -10 -8h-152l-26 -151q-2 -8 -10 -8q-27 0 -77 -2zM315 119l28 159h160l14 77h-162l28 159h-80l-28 -160h-159l-14 -77h163
l-28 -160q38 2 68 2h10z" />
    <glyph glyph-name="comma" unicode="," horiz-adv-x="226" 
d="M146 142q34 10 51 14h3q15 0 8 -14q-88 -198 -101 -222q-4 -4 -5 -4q-72 -30 -89 -30q-12 0 -7 13q49 151 84 226q3 6 8 6q21 3 48 11zM99 121q-34 -73 -84 -225q56 18 83 29q27 51 70 151l31 70q-8 -2 -30.5 -7.5t-27.5 -6.5q-12 -4 -36 -10z" />
    <glyph glyph-name="hyphen" unicode="-" horiz-adv-x="453" 
d="M458 277q-2 -8 -10 -8h-346q-12 0 -10 12l13 74q2 8 10 8h346q12 0 10 -12zM461 353h-346l-13 -74h346z" />
    <glyph glyph-name="period" unicode="." horiz-adv-x="225" 
d="M198 101q0 -34 -22.5 -58t-56.5 -24q-27 0 -44.5 15.5t-17.5 42.5q0 34 24.5 56t57.5 22q26 0 42.5 -13.5t16.5 -40.5zM68 87q-4 -25 10 -41.5t41 -16.5q26 0 45 17t23 41q5 27 -8 42.5t-40 15.5t-46.5 -15.5t-24.5 -42.5z" />
    <glyph glyph-name="slash" unicode="/" horiz-adv-x="548" 
d="M126 -99q-2 -5 -9 -5h-81q-7 0 -9.5 4.5t0.5 10.5l508 839q5 5 9 5h82q7 0 10 -4.5t-1 -10.5zM626 745h-82l-508 -839h81z" />
    <glyph glyph-name="zero" unicode="0" horiz-adv-x="619" 
d="M643 424q0 -73 -21 -147.5t-60.5 -140t-105 -106.5t-145.5 -41q-107 0 -162.5 71t-55.5 180q0 72 21.5 146t62 138t106 104.5t144.5 40.5q109 0 162.5 -67.5t53.5 -177.5zM427 659q-116 0 -203 -91t-113 -240t29 -239t171 -90q113 0 198 86.5t115 244.5l1 5
q13 61 7 119.5t-26 104t-66.5 73t-112.5 27.5zM325 82q-76 0 -112.5 68.5t-17.5 177.5q19 108 80 179t135 71q78 0 112 -68.5t14 -182.5q-19 -112 -76.5 -178.5t-134.5 -66.5zM533 404q0 71 -30 117.5t-93 46.5t-113.5 -53t-74 -122t-23.5 -133q0 -71 31.5 -119.5
t94.5 -48.5q51 0 92.5 30.5t66 78.5t37 100.5t12.5 102.5z" />
    <glyph glyph-name="one" unicode="1" horiz-adv-x="280" 
d="M142 598q0 2 2.5 5t3.5 3q62 26 115 61l6 2h76q12 0 10 -12l-116 -659q-2 -8 -10 -8h-83q-12 0 -10 12l96 543l-88 -50q-6 -2 -7 -2q-10 0 -8 12zM139 504l106 60l-99 -564h83l116 659h-76q-53 -36 -117 -62z" />
    <glyph glyph-name="two" unicode="2" horiz-adv-x="535" 
d="M465 491q0 38 -25 57.5t-67 19.5q-50 0 -85 -23.5t-65 -70.5q-2 -5 -8 -5q-3 0 -5 2l-70 43q-10 6 -3 14q54 69 112 105t137 36q81 0 135.5 -45t54.5 -126q0 -47 -32 -106t-81.5 -113.5t-100.5 -99.5t-98 -79h231q12 0 10 -12l-16 -90q-2 -8 -10 -8h-422q-12 0 -10 12
l18 89q3 6 7 8q53 15 146.5 87t170 162t76.5 143zM75 89l-18 -89h422l16 90h-263q46 30 98.5 74.5t104.5 99t89 114.5t42 110q1 18 -2 38.5t-15 45t-31 43t-53.5 31.5t-78.5 13q-73 0 -129.5 -33.5t-111.5 -103.5l70 -43q34 52 70.5 75.5t87.5 23.5q53 0 81 -29t19 -81
q-19 -87 -159.5 -213.5t-232.5 -163.5z" />
    <glyph glyph-name="three" unicode="3" horiz-adv-x="533" 
d="M470 344q58 -38 58 -115q0 -113 -81 -176t-195 -63q-72 0 -112.5 28t-72.5 95q-4 9 4 13l85 44q2 1 5 1q6 0 9 -5q20 -40 43.5 -59t61.5 -19q58 0 101.5 34.5t43.5 88.5q0 78 -161 78q-10 0 -27 -0.5t-23 -0.5q-12 0 -10 12l14 83q2 8 10 8h38q29 0 49 1t48.5 6.5t46 16
t30.5 31t13 49.5q0 36 -26 54t-66 18q-39 0 -67.5 -17t-61.5 -53q-1 -3 -8 -3l-4 1l-71 39q-10 6 -3 15q52 67 102 93.5t131 26.5q76 0 129.5 -39.5t53.5 -115.5q0 -105 -87 -170zM514 191q21 115 -72 157l10 -4q47 31 66 63.5t26 74.5q14 76 -32.5 126.5t-137.5 50.5
q-68 0 -117.5 -20.5t-107.5 -95.5l71 -39q35 38 65 55.5t71 17.5q54 0 81 -27.5t19 -72.5v-1q-6 -31 -23.5 -51t-44.5 -29t-51.5 -12t-56.5 -3h-57l-14 -83h69q83 0 121 -28t29 -78q-9 -51 -51.5 -82.5t-101.5 -31.5q-42 0 -67 20.5t-47 62.5l-85 -44q32 -67 71 -92t105 -25
q107 0 176.5 51t85.5 140z" />
    <glyph glyph-name="four" unicode="4" horiz-adv-x="629" 
d="M515 220h98q12 0 10 -12l-15 -85q-2 -8 -10 -8h-100l-20 -117q-2 -8 -10 -8h-85q-12 0 -10 12l20 113h-318q-8 0 -10.5 5t2.5 12q236 275 413 533q4 4 8 4h94q12 0 10 -12zM582 659h-94q-106 -154 -191.5 -264t-221.5 -270h330l-22 -125h85l22 125h108l15 85h-110z
M241 210q115 134 227 300l-53 -300h-174zM407 220l43 246q-98 -139 -187 -246h144z" />
    <glyph glyph-name="five" unicode="5" horiz-adv-x="554" 
d="M531 316q19 -38 19 -79q0 -107 -82 -177t-189 -70q-81 0 -128.5 36t-81.5 113q-4 9 4 13l79 42q2 1 5 1q7 0 9 -6q21 -49 49.5 -73t76.5 -24q54 0 102.5 39.5t48.5 90.5q0 56 -65 77q-39 12 -122 12h-115q-12 0 -10 13q42 162 73 337q2 8 10 8h363q12 0 10 -12l-14 -77
q-2 -8 -10 -8h-274q-11 -66 -34 -159q8 0 25.5 0.5t26.5 0.5q38 0 66.5 -3t61 -12.5t57 -30t39.5 -52.5zM242 403q22 88 39 179h282l14 77h-363q-30 -170 -73 -338h115q42 0 70 -3t63 -13t51 -34.5t12 -62.5l-1 -3q-10 -50 -54.5 -85t-104.5 -38q-51 1 -82 26t-53 77
l-79 -42q34 -76 78.5 -109.5t122.5 -33.5q101 0 171.5 58t86.5 147q10 56 -15 107q-26 57 -80 74t-140 17h-60z" />
    <glyph glyph-name="six" unicode="6" horiz-adv-x="562" 
d="M367 449q84 0 139 -54t55 -138q0 -112 -83.5 -189.5t-195.5 -77.5q-92 0 -147.5 47.5t-55.5 139.5q0 26 5 59l2 4l2 4q0 2 0.5 4t0.5 3q28 114 332 415q3 3 7 3h93q7 0 10 -5t-2 -11q-56 -70 -174 -204h12zM329 435q132 148 192 224h-93q-313 -313 -329 -410l-5 -15
q-20 -119 34.5 -176.5t153.5 -57.5q100 0 174.5 61.5t91.5 156.5q16 91 -36.5 156t-144.5 65q-21 0 -38 -4zM297 82q-63 0 -96 38t-22 99q10 60 57 98t109 38t94 -38t21 -98q-10 -61 -56 -99t-107 -38zM453 247q0 46 -30 72t-78 26q-65 0 -111.5 -44t-46.5 -109
q0 -48 30.5 -74t79.5 -26q65 0 110.5 45t45.5 110z" />
    <glyph glyph-name="seven" unicode="7" horiz-adv-x="546" 
d="M387 666q73 0 221 -2q7 0 9.5 -4.5t-0.5 -10.5q-161 -277 -383 -651q-2 -5 -9 -5h-94q-7 0 -9.5 4.5t0.5 10.5q63 107 180 301t154 256h-302q-12 0 -10 12l14 80q2 8 10 8h37q31 0 91.5 0.5t90.5 0.5zM168 655l-14 -80h319q-68 -116 -119 -198q-18 -31 -100 -168
t-123 -206h94q201 338 383 651q-136 2 -221 2q-139 0 -209 -1h-10z" />
    <glyph glyph-name="eight" unicode="8" horiz-adv-x="558" 
d="M494 345q59 -42 59 -115q0 -110 -80 -177.5t-190 -67.5q-85 0 -147.5 43t-62.5 127q0 118 117 190q-43 50 -43 108q0 98 76.5 162.5t175.5 64.5q75 0 130 -42t55 -117q0 -101 -90 -176zM477 344q49 38 68 71.5t26 75.5q14 76 -35.5 127.5t-136.5 51.5q-86 0 -155.5 -51.5
t-82.5 -127.5q-15 -86 44 -149q-102 -57 -119 -155q-14 -84 41 -138t156 -54q100 0 170.5 53.5t86.5 146.5q19 106 -69 152zM381 585q55 0 83 -27.5t20 -73.5t-46 -75t-90 -29q-53 0 -81.5 30t-20.5 78q8 45 44.5 71t90.5 26zM254 468q0 -37 26.5 -57.5t67.5 -20.5
q51 0 89.5 32t38.5 81q0 36 -27 54t-68 18q-53 0 -90 -28.5t-37 -78.5zM293 76q-62 0 -96.5 32t-25.5 83q9 49 52 78t108 29q66 0 99 -29.5t24 -78.5q-9 -51 -54 -82.5t-107 -31.5zM446 210q0 40 -33.5 59t-81.5 19q-62 0 -107 -30t-45 -86q0 -42 33 -64t81 -22q61 0 107 34
t46 90z" />
    <glyph glyph-name="nine" unicode="9" horiz-adv-x="562" 
d="M310 210q-83 0 -138 54t-55 137q0 113 83 190.5t196 77.5q92 0 147.5 -47.5t55.5 -138.5q0 -27 -5 -60l-1 -3q-2 -2 -2 -5q-22 -81 -148 -223q-38 -43 -103.5 -112t-81.5 -87q0 -3 -7 -3h-94q-7 0 -10 5t2 11q65 81 174 205q-4 -1 -13 -1zM349 224q-118 -130 -192 -224
h94q25 28 53 57q56 59 83 88.5t80 90t80 103.5t32 71l5 15q21 119 -34.5 176.5t-153.5 57.5q-100 0 -174 -61.5t-91 -156.5q-17 -91 35.5 -156t143.5 -65q13 0 39 4zM381 578q63 0 96 -38.5t22 -99.5q-11 -59 -57 -97t-109 -38q-61 0 -93.5 38t-21.5 97q11 61 56.5 99.5
t106.5 38.5zM226 413q0 -46 29.5 -72t77.5 -26q66 0 112.5 44.5t46.5 109.5q0 47 -31 73t-80 26q-64 0 -109.5 -45.5t-45.5 -109.5z" />
    <glyph glyph-name="colon" unicode=":" horiz-adv-x="225" 
d="M263 469q0 -34 -22.5 -57t-56.5 -23q-26 0 -43.5 13.5t-17.5 40.5q0 35 23 58t58 23q25 0 42 -14.5t17 -40.5zM134 457q-5 -27 8.5 -42.5t41.5 -15.5q26 0 45 15.5t23 42.5q5 25 -8 41t-40 16t-46.5 -16t-23.5 -41zM198 101q0 -34 -22.5 -58t-56.5 -24q-27 0 -44.5 15.5
t-17.5 42.5q0 34 24.5 56t57.5 22q26 0 42.5 -13.5t16.5 -40.5zM68 87q-4 -25 10 -41.5t41 -16.5q26 0 45 17t23 41q5 27 -8 42.5t-40 15.5t-46.5 -15.5t-24.5 -42.5z" />
    <glyph glyph-name="semicolon" unicode=";" horiz-adv-x="245" 
d="M284 467q0 -34 -23.5 -56.5t-57.5 -22.5q-26 0 -43.5 14.5t-17.5 41.5q0 34 24 57t58 23q26 0 43 -15.5t17 -41.5zM153 456q-4 -27 9.5 -42.5t40.5 -15.5t46.5 15.5t23.5 42.5q5 25 -9.5 41.5t-39.5 16.5q-27 0 -46.5 -16.5t-24.5 -41.5zM216 115q-9 -19 -40.5 -90.5
t-50.5 -109.5q-3 -3 -7 -5l-80 -19h-3q-14 0 -8 13l82 230q2 7 9 7h95q7 0 9.5 -4.5t-0.5 -9.5zM213 131h-95l-82 -230l80 19q36 71 91 199z" />
    <glyph glyph-name="less" unicode="&#x3c;" horiz-adv-x="495" 
d="M525 416q0 -2 -2.5 -4.5t-4.5 -2.5l-272 -99l235 -101q8 -3 6 -11l-16 -93q-2 -8 -9 -8q-4 0 -5 1l-360 166q-6 2 -6 11l14 77q3 7 6 7l417 161q2 1 6 1q10 0 8 -12zM532 511l-417 -161l-14 -77l360 -166l16 93l-258 111l296 107z" />
    <glyph glyph-name="greater" unicode="&#x3e;" horiz-adv-x="495" 
d="M76 98q-2 -1 -6 -1q-10 0 -8 12l16 93q4 7 7 7l273 103l-235 97q-6 2 -6 11l16 93q2 8 9 8q3 0 5 -1l360 -161q8 -3 6 -11l-13 -77q0 -2 -2.5 -4.5t-3.5 -2.5zM490 273l13 77l-360 161l-16 -93l258 -107l-297 -111l-16 -93z" />
    <glyph glyph-name="question" unicode="?" horiz-adv-x="523" 
d="M567 512q0 -32 -9 -59.5t-28.5 -52.5t-35.5 -40.5t-44 -39.5q-66 -55 -140 -157q-2 -4 -10 -4q-12 2 -35 3t-33 2q-13 2 -8 14q30 77 49 104t80 78q16 14 35 29q70 63 70 111q0 35 -29.5 51t-72.5 16t-72.5 -21.5t-68.5 -67.5q-3 -4 -8 -4q-2 0 -6 2q-31 22 -61 37
q-10 6 -3 15q38 50 67 77t73 45.5t102 18.5q75 0 131.5 -41t56.5 -116zM379 659q-81 0 -130 -32t-104 -105q37 -21 62 -38q46 55 77 74t72 19q59 0 88.5 -25.5t21.5 -67.5q-4 -23 -22.5 -49t-35 -41t-49.5 -42q-61 -50 -78.5 -76t-47.5 -102q12 -2 29 -2q24 0 40 -3
q77 105 141 159q24 20 35.5 30.5t30.5 31.5t29.5 44t15.5 49q13 76 -37 126t-138 50zM330 69q0 -34 -23.5 -56.5t-57.5 -22.5q-26 0 -43.5 14.5t-17.5 41.5q0 33 24 56t57 23q26 0 43.5 -15t17.5 -41zM199 58q-4 -27 9.5 -42.5t40.5 -15.5t46.5 15.5t23.5 42.5q5 25 -9.5 41
t-40.5 16q-27 0 -46 -16t-24 -41z" />
    <glyph glyph-name="at" unicode="@" horiz-adv-x="775" 
d="M732 336q0 -83 -38.5 -140.5t-120.5 -57.5q-31 0 -48.5 8t-36.5 31l-17 18q-47 -30 -101 -30q-70 0 -118.5 54t-48.5 123q0 66 48 119.5t115 53.5q54 0 96 -24v6q0 10 10 10h77q10 0 10 -10v-54q0 -21 -1.5 -65t-1.5 -65q0 -95 34 -95t52 45.5t18 85.5q0 106 -80 178
t-188 72q-113 0 -190.5 -77t-77.5 -190q0 -117 81.5 -191.5t199.5 -74.5q1 0 73 6q50 5 150 5q9 0 11 -6.5t-5 -11.5q-104 -73 -206 -73q-103 0 -189.5 39.5t-141 119.5t-54.5 186q0 148 102.5 246.5t250.5 98.5q147 0 241.5 -96.5t94.5 -243.5zM396 666q-145 0 -244 -96
t-99 -239q0 -146 105 -240.5t270 -94.5q99 0 200 71h-60q-24 0 -66 -4q-4 0 -11.5 -0.5t-11.5 -0.5q-50 -6 -74 -6q-126 0 -208.5 79t-82.5 197q0 117 80.5 197t197.5 80q116 0 197 -77t81 -183q0 -58 -24 -99.5t-56 -41.5q-44 0 -44 105q0 39 2 58q1 24 1 72v54h-77v-24
q-47 32 -106 32q-60 0 -106.5 -49t-46.5 -114q0 -66 46 -116.5t111 -50.5q52 0 103 33l8 -9q20 -27 39 -39t53 -12q72 0 110.5 51t38.5 137q0 146 -93 238t-233 92zM380 242q-41 0 -68.5 28.5t-27.5 69.5t27.5 69.5t67.5 28.5q42 0 71 -28.5t29 -70.5q0 -41 -28.5 -69
t-70.5 -28zM469 339q0 37 -26 63t-64 26q-36 0 -60.5 -25.5t-24.5 -62.5t24.5 -62.5t61.5 -25.5t63 25t26 62z" />
    <glyph glyph-name="A" unicode="A" horiz-adv-x="624" 
d="M-30 -10q-7 0 -9.5 4.5t0.5 10.5l375 674q2 5 8 5h88q8 0 10 -8q40 -181 139 -674q2 -12 -10 -12h-92q-8 0 -10 8l-41 202h-244l-108 -205q-2 -5 -9 -5h-97zM67 0l111 210h258l43 -210h92l-50 247q-66 326 -89 427h-88l-374 -674h97zM227 296q52 95 94 169q27 47 47 85
l52 -254h-193zM408 306l-44 215l-120 -215h164z" />
    <glyph glyph-name="B" unicode="B" horiz-adv-x="595" 
d="M536 332q53 -51 53 -112q0 -55 -32.5 -116.5t-79.5 -87.5q-49 -26 -114 -26h-310q-12 0 -10 12l119 674q2 8 10 8q44 0 134 0.5t134 0.5q102 0 136 -27q65 -51 65 -133q0 -120 -105 -193zM521 334q55 35 77 72.5t30 84.5q16 99 -58 159q-31 25 -130 25q-21 0 -32 -1h-236
l-119 -674h310q53 0 109 25q83 53 104 167q9 50 -9.5 84t-55.5 66zM539 488q-5 -27 -15.5 -47t-28 -32t-33.5 -19.5t-42 -10.5t-42.5 -3.5t-45.5 -0.5h-129l38 216l222 -1q45 0 64 -30.5t12 -71.5zM249 581l-34 -196h117q34 0 58.5 2t53 9t46 20t29.5 37t12 57q0 32 -18 51
t-50 19zM189 291h210q48 -5 68.5 -36t13.5 -74q-11 -59 -45 -81t-98 -22q-5 0 -14.5 0.5t-14.5 0.5h-30l-128 2zM163 91q174 -3 175 -3q135 0 135 115q0 32 -21 55t-53 23h-202z" />
    <glyph glyph-name="C" unicode="C" horiz-adv-x="760" 
d="M668 216q2 2 7 2q12 0 66 -38q7 -5 2 -14q-56 -81 -148.5 -128.5t-191.5 -47.5q-130 0 -218 77.5t-88 207.5q0 112 63 207.5t163 148.5t211 53q94 0 159 -43t112 -128q4 -10 -4 -13q-10 -7 -44 -26.5t-38 -19.5t-8 4q-43 64 -85 94t-106 30q-126 0 -220 -83.5t-94 -206.5
q0 -88 58 -144.5t146 -56.5q113 0 258 125zM410 81q-106 0 -167.5 75t-42.5 183t110 180.5t210 72.5q62 0 106.5 -28.5t92.5 -99.5q12 7 33 18q6 4 22.5 13.5t21.5 12.5q-48 87 -111 126.5t-151 39.5q-154 0 -275 -97.5t-147 -242.5q-25 -141 58.5 -237.5t232.5 -96.5
q97 0 187.5 47t144.5 125q-33 22 -61 36q-148 -127 -264 -127z" />
    <glyph glyph-name="D" unicode="D" horiz-adv-x="690" 
d="M402 684q137 0 223 -75t86 -211q0 -34 -6 -67q-46 -253 -289 -323q-69 -18 -97 -18h-266q-12 0 -10 12q18 94 57 323t64 351q2 8 10 8h228zM174 674q-14 -68 -46 -250q-50 -291 -75 -424h266q50 5 94.5 17.5t92 38t84 61t65 91t40.5 125.5q7 51 4 99.5t-25 92.5t-56 77
t-90 52.5t-126 19.5h-228zM244 587q163 -1 187 -4q94 -6 144 -83.5t33 -174.5q-19 -111 -114 -178.5t-225 -67.5l-114 2zM167 91q68 -2 102 -2q133 0 233 77t100 205q0 83 -46 138.5t-126 63.5q-33 4 -102 4h-68h-8z" />
    <glyph glyph-name="E" unicode="E" horiz-adv-x="546" 
d="M162 676q2 8 10 8h439q12 0 10 -12l-13 -79q-2 -8 -10 -8h-346l-33 -190h342q12 0 10 -12l-15 -82q-2 -8 -10 -8l-345 -1l-35 -204h340q12 0 10 -12l-13 -78q-2 -8 -10 -8h-440q-12 0 -10 12zM53 0h440l13 78h-352l39 224l353 1l15 82h-354l37 210h354l13 79h-439z" />
    <glyph glyph-name="F" unicode="F" horiz-adv-x="546" 
d="M611 684q12 0 10 -12l-13 -79q-2 -8 -10 -8h-346l-33 -190h342q12 0 10 -12l-15 -82q-2 -8 -10 -8l-345 -1l-51 -294q-2 -8 -10 -8h-87q-12 0 -10 12l119 674q2 8 10 8h439zM172 674l-119 -674h87l53 302l353 1l15 82h-354l37 210h354l13 79h-439z" />
    <glyph glyph-name="G" unicode="G" horiz-adv-x="789" 
d="M680 389q20 0 61 -0.5t62 -0.5q12 0 10 -11q-23 -148 -118.5 -249.5t-242.5 -131.5q-33 -6 -66 -6q-125 0 -206.5 81.5t-81.5 205.5q0 111 60 205.5t158 148t208 53.5q101 0 166.5 -41t114.5 -130q4 -9 -4 -14q-70 -42 -81 -42q-5 0 -9 4q-45 63 -85.5 92t-103.5 29
q-127 0 -222 -84t-95 -209q0 -86 55.5 -141t141.5 -55q95 0 168 54t114 144h-11q-41 0 -122.5 -0.5t-122.5 -0.5q-12 0 -10 12l14 79q2 8 10 8h238zM442 379l-14 -79q101 0 147 1h124q-37 -91 -92 -138q-93 -80 -205 -80q-104 0 -163 73t-40 179q20 111 110.5 184t212.5 73
q60 0 102.5 -26.5t94.5 -98.5q45 22 77 41l-8 14q-46 78 -107 115t-157 37q-151 0 -268.5 -97t-142.5 -240q-25 -140 55 -238.5t218 -98.5q36 0 64 6q142 33 234 124.5t116 229.5l3 18q-17 0 -59 0.5t-64 0.5h-228h-10z" />
    <glyph glyph-name="H" unicode="H" horiz-adv-x="608" 
d="M145 -2q-2 -8 -10 -8h-82q-12 0 -10 12l119 674q2 8 10 8h82q12 0 10 -12l-49 -278h317l49 282q2 8 10 8h83q12 0 10 -12l-119 -674q-2 -8 -10 -8h-81q-12 0 -10 12l51 291h-318zM189 303h338l-53 -303h81l119 674h-83l-51 -290h-337l51 290h-82l-119 -674h82z" />
    <glyph glyph-name="I" unicode="I" horiz-adv-x="189" 
d="M146 -2q-2 -8 -10 -8h-84q-12 0 -10 12l119 674q2 8 10 8h84q12 0 10 -12zM255 674h-84l-119 -674h84z" />
    <glyph glyph-name="J" unicode="J" horiz-adv-x="543" 
d="M565 373q-3 -15 -8.5 -55.5t-11.5 -70.5t-14 -57q-29 -99 -99 -149.5t-175 -50.5q-71 0 -113 26t-80 89q-4 8 3 13l73 56q4 2 6 2q6 0 9 -5q29 -47 51.5 -63t72.5 -16q35 0 62.5 12.5t44 30.5t29 47.5t18.5 54t12 59.5q3 19 8 54t7 48q38 220 47 278q2 8 10 8h90
q12 0 10 -12zM607 674h-90q-16 -102 -47 -278l-22 -130q-18 -101 -58 -142.5t-111 -41.5q-53 0 -77 17t-56 67l-73 -56q38 -64 78.5 -87t105.5 -23q92 0 164 45q51 32 76 83t39 131q2 17 8 53l6 33t5 30z" />
    <glyph glyph-name="K" unicode="K" horiz-adv-x="593" 
d="M285 347q22 -28 80 -105.5t100 -131.5t83 -104q5 -6 2.5 -11t-10.5 -5h-51q-45 0 -68 -1q-4 0 -8 4q-101 134 -218 273l-47 -268q-2 -8 -10 -8h-85q-12 0 -10 12l119 674q2 8 10 8h84q12 0 10 -12q-7 -40 -22 -125t-22 -129q34 32 171 149t144 117h117q9 0 11 -6t-4 -12z
M654 674h-117q-87 -74 -103 -87q-173 -146 -227 -196q4 23 10.5 60t10.5 63q22 120 28 160h-84l-119 -674h85l51 289q127 -149 232 -290q23 1 119 1q-61 74 -154 197q-51 69 -115 151z" />
    <glyph glyph-name="L" unicode="L" horiz-adv-x="527" 
d="M483 -2q-2 -8 -10 -8h-420q-12 0 -10 12l119 674q2 8 10 8h84q12 0 10 -12l-103 -585h323q12 0 10 -12q-2 -13 -6 -38.5t-7 -38.5zM486 77h-335l105 597h-84l-119 -674h420q4 18 6 38q1 5 2.5 14.5t2.5 14.5z" />
    <glyph glyph-name="M" unicode="M" horiz-adv-x="724" 
d="M664 495q-55 -66 -155.5 -196t-111.5 -144q-5 -5 -8 -5q-6 0 -9 7q-125 291 -146 336q-4 -24 -36.5 -211t-50.5 -285q-2 -8 -10 -8h-84q-12 0 -10 12q15 87 56.5 318t62.5 357q2 8 10 8h94q7 0 9 -6q68 -151 145 -333q44 55 132 167t133 168q4 4 8 4h96q12 0 10 -12
l-118 -674q-2 -8 -10 -8h-85q-12 0 -10 12q62 328 88 493zM586 0h85l118 674h-96l-81 -102t-60 -76q-104 -132 -135 -170q-84 202 -151 348h-94q-25 -147 -77 -441q-21 -109 -42 -234h84l23 127q24 145 70 400q33 -69 108 -246l51 -119q85 108 124 159q137 175 166 209
q-8 -56 -25 -148l-21 -121q-15 -79 -23 -129z" />
    <glyph glyph-name="N" unicode="N" horiz-adv-x="613" 
d="M687 662q-18 -94 -118 -664q-2 -8 -10 -8h-70q-7 0 -9 5q-39 73 -120 236.5t-128 248.5l-85 -482q-2 -8 -10 -8h-82q-12 0 -10 12q19 112 58.5 337t58.5 337q2 8 10 8h72q6 0 9 -5q164 -320 243 -482l84 479q2 8 10 8h89q12 0 10 -12zM679 674h-89l-90 -509
q-76 157 -256 509h-72q-8 -46 -58 -337q-31 -170 -59 -337h82l90 509q24 -43 132 -256q86 -172 130 -253h70q87 498 118 664z" />
    <glyph glyph-name="O" unicode="O" horiz-adv-x="803" 
d="M825 397q0 -106 -60.5 -201t-157.5 -150.5t-203 -55.5q-129 0 -217.5 82t-88.5 211q0 107 61.5 200.5t159 147t203.5 53.5q129 0 216 -79t87 -208zM522 674q-146 0 -265 -97.5t-144 -237.5q-24 -139 60.5 -239t230.5 -100q144 0 262.5 99.5t143.5 239.5q25 141 -59 238
t-229 97zM415 79q-107 0 -170.5 78t-45.5 184q19 106 108 178.5t200 72.5q110 0 172.5 -72.5t43.5 -177.5q-18 -106 -109 -184.5t-199 -78.5zM717 386q0 88 -60 142t-150 54q-117 0 -209.5 -84t-92.5 -200q0 -89 60 -149t150 -60q115 0 208.5 91t93.5 206z" />
    <glyph glyph-name="P" unicode="P" horiz-adv-x="586" 
d="M147 -2q-2 -8 -10 -8h-84q-12 0 -10 12l119 674q2 8 10 8q194 2 292 2q78 0 122 -47t44 -126q0 -108 -68 -192t-176 -85l-199 -2zM178 244l208 2q91 1 152 64t77 153q16 91 -23 152t-128 61l-292 -2l-119 -674h84zM241 591h208q47 0 68.5 -35t11.5 -93
q-15 -83 -58.5 -107.5t-133.5 -24.5q-7 1 -21 1h-120zM208 342q22 0 65 -0.5t64 -0.5q88 0 128 23t54 101q3 17 3 33q0 38 -18.5 60.5t-54.5 22.5h-200z" />
    <glyph glyph-name="Q" unicode="Q" horiz-adv-x="807" 
d="M693 100l50 -63q6 -8 -2 -14q-13 -9 -37.5 -30t-36.5 -30q-4 -2 -6 -2q-5 0 -8 4l-55 69q-119 -50 -194 -50q-131 0 -219.5 76.5t-88.5 206.5q0 110 61.5 207t160.5 153.5t208 56.5q130 0 215.5 -82t85.5 -211q0 -87 -33 -151t-101 -140zM704 6q16 14 31 25l-55 69
q65 73 93 121t38 108q25 145 -58 245t-227 100q-147 0 -268.5 -101t-146.5 -246q-25 -144 59.5 -238.5t233.5 -94.5q43 0 84.5 11t112.5 41l60 -75q26 19 43 35zM509 592q109 0 172.5 -77t43.5 -190q-16 -90 -97 -162l-119 153q-40 -29 -75 -60q78 -96 115 -145
q-73 -32 -139 -32q-105 0 -168.5 73t-44.5 178q20 108 111.5 185t200.5 77zM629 178q91 85 91 196q0 91 -59.5 149.5t-151.5 58.5q-117 0 -211.5 -89.5t-94.5 -205.5q0 -87 59.5 -142.5t147.5 -55.5q60 0 123 26q-12 16 -107 135q-5 7 2 14q36 32 75 60q4 2 6 2q5 0 8 -4z
" />
    <glyph glyph-name="R" unicode="R" horiz-adv-x="608" 
d="M375 235h-188l-40 -237q-2 -8 -10 -8h-84q-12 0 -10 12l119 674q2 8 10 8h292q78 0 122 -46.5t44 -124.5t-39 -150t-107 -105l80 -255q4 -13 -10 -13h-95q-2 0 -5.5 2.5t-3.5 4.5zM459 0h95l-82 263q57 25 94 79t49 121q16 91 -23 151t-128 60h-292l-119 -674h84l41 245
h204zM529 463q-8 -44 -22.5 -71t-41 -40t-54 -17t-72.5 -4q-8 1 -23 1h-120l46 264h208q47 0 68 -36t11 -97zM250 586l-42 -244q22 0 65.5 -0.5t65.5 -0.5q89 0 128 22.5t52 101.5q3 17 3 35q0 39 -18 62.5t-54 23.5h-200z" />
    <glyph glyph-name="S" unicode="S" horiz-adv-x="592" 
d="M359 406q11 -4 31 -10.5t28 -9.5q37 -13 61 -24t51 -30.5t41 -47t14 -62.5q0 -102 -83 -167t-185 -65h-26q-167 0 -217 185q-2 8 6 12l77 36q1 1 4 1q7 0 9 -6q25 -66 57.5 -100t90.5 -34q52 0 104 33t52 79q0 16 -8.5 29.5t-26.5 24.5t-28 16t-31 14q-51 19 -59 22
q-36 13 -59.5 24.5t-51 31t-41 46.5t-13.5 61q0 97 79.5 158t177.5 61q78 0 128.5 -38t84.5 -113q4 -9 -4 -13l-73 -38q-2 -1 -4 -1q-7 0 -9 5q-5 6 -13.5 20t-13.5 20q-23 31 -46.5 45t-60.5 14q-51 0 -94.5 -27t-43.5 -72q0 -16 8.5 -29.5t26.5 -23.5t29 -15t31 -12z
M255 499q8 41 49 68.5t98 27.5q23 0 42 -6t30 -12t26.5 -24.5t20.5 -26.5t23 -35l73 38q-36 77 -84.5 111t-119.5 34q-93 0 -162 -51t-83 -130q-16 -91 68 -141q38 -24 109 -48q31 -12 46 -18t38.5 -18t33.5 -23t16.5 -27.5t3.5 -35.5q-7 -43 -57.5 -75.5t-107.5 -32.5
q-62 0 -96.5 35.5t-60.5 104.5l-77 -36q49 -178 207 -178h26q97 0 168.5 55t86.5 136q6 35 -2.5 64.5t-24 48t-45 35.5t-51.5 25.5t-57 19.5q-77 26 -101 43q-43 29 -36 72z" />
    <glyph glyph-name="T" unicode="T" horiz-adv-x="595" 
d="M158 586q-12 0 -10 12l14 78q2 8 10 8h486q5 0 8 -3.5t2 -7.5l-11 -78q-2 -9 -10 -9h-195l-101 -588q-2 -8 -10 -8h-85q-12 0 -10 12l103 584h-191zM361 596l-105 -596h85l103 596h203l11 78h-486l-14 -78h203z" />
    <glyph glyph-name="U" unicode="U" horiz-adv-x="616" 
d="M634 354q-16 -89 -19 -103q-27 -113 -111 -187t-198 -74q-93 0 -158 54.5t-65 147.5q0 43 16 127q55 298 65 357q2 8 10 8h83q12 0 10 -12l-53 -294l-15 -78q-8 -52 -8 -79q0 -65 30.5 -95.5t96.5 -30.5q80 0 129.5 47.5t64.5 130.5l71 403q2 8 10 8h87q12 0 10 -12
q-12 -61 -31.5 -177t-24.5 -141zM680 674h-87l-71 -403q-19 -93 -71 -139.5t-133 -46.5q-44 0 -73 13.5t-42.5 34t-18 53t-2.5 61t9 66.5l9 46q0 4 2 11t2 10l53 294h-83q-10 -58 -32 -174l-33 -183q-14 -74 -15 -104q-9 -96 53 -154.5t159 -58.5q105 0 189 70t110 183
q5 21 19 103q5 27 13 73.5t11 62.5q19 118 30 172z" />
    <glyph glyph-name="V" unicode="V" horiz-adv-x="686" 
d="M650 679q2 5 9 5h92q7 0 9.5 -4.5t-0.5 -10.5q-236 -456 -371 -674q-3 -5 -9 -5h-78q-8 0 -10 8q-22 121 -66.5 347t-63.5 327q-2 12 10 12h88q8 0 10 -7q20 -77 36 -158t37 -202t28 -160q42 77 88.5 164t103 193.5t87.5 164.5zM366 128q-14 73 -27 152q-43 257 -79 394
h-88q58 -310 110 -569l20 -105h78q139 224 371 674h-92l-41 -77q-96 -185 -252 -469z" />
    <glyph glyph-name="W" unicode="W" horiz-adv-x="1016" 
d="M932 571q39 88 50 108q2 5 9 5h90q16 0 9 -14q-145 -317 -315 -674q-2 -6 -9 -6h-89q-8 0 -10 8q-11 58 -22 127t-17.5 116.5t-17 131.5t-15.5 120q-41 -83 -121.5 -248.5t-120.5 -248.5q-2 -6 -9 -6h-88q-8 0 -10 8q-34 205 -84 675q-1 4 2 7.5t8 3.5h91q8 0 10 -8
q13 -90 30 -259.5t27 -245.5q189 396 246 508q2 5 9 5h85q8 0 10 -8q14 -74 25.5 -157.5t23 -188t18.5 -158.5q115 236 185 399zM742 138q-4 31 -8 60t-8 64t-7 61q-25 226 -49 351h-85q-53 -103 -155 -315q-47 -101 -106 -222q-14 107 -33 298q-22 199 -28 239h-91
q16 -154 58 -513l26 -161h88l93 191q90 186 164 336q11 -81 16 -126q37 -284 60 -401h89q170 357 315 674h-90q-16 -28 -50 -107q-74 -171 -199 -429zM727 107l9 19z" />
    <glyph glyph-name="X" unicode="X" horiz-adv-x="649" 
d="M604 4q7 -14 -9 -14h-98q-7 0 -9 5q-3 5 -7.5 15t-6.5 15q-58 127 -106 221q-18 -22 -91.5 -114t-115.5 -139q0 -3 -7 -3h-101q-7 0 -10 5t2 11l277 352q-21 51 -70.5 154t-71.5 158q-5 14 9 14h95q6 0 9 -5q23 -42 59.5 -123.5t48.5 -106.5l200 232q3 3 8 3h92
q7 0 10 -5t-2 -11q-50 -63 -145 -177t-115 -139q25 -52 155 -348zM437 353q32 39 113 137q97 115 151 184h-92l-210 -243q-23 45 -72 153q-33 73 -43 90h-95q25 -63 70 -152q46 -97 54 -117l20 -49l-280 -356h101q23 25 94 115q78 98 122 149q47 -90 113 -235q3 -7 14 -29
h98q-40 90 -43 97q-69 161 -115 256z" />
    <glyph glyph-name="Y" unicode="Y" horiz-adv-x="678" 
d="M269 684q7 0 9 -6l129 -291l233 293q4 4 8 4h96q8 0 10 -5t-2 -11l-313 -393l-48 -277q-2 -8 -10 -8h-85q-12 0 -10 12l49 275l-172 393q-3 6 0 10t9 4h97zM172 674l173 -396l-49 -278h85l49 279l314 395h-96l-243 -306l-136 306h-97z" />
    <glyph glyph-name="Z" unicode="Z" horiz-adv-x="577" 
d="M169 676q2 8 10 8h464q7 0 10 -5t-2 -11l-414 -579h287q12 0 10 -12l-14 -79q-2 -8 -10 -8h-457q-7 0 -10 5t2 11l423 578h-303q-12 0 -10 12zM165 594h323l-435 -594h457l14 79h-306l425 595h-464z" />
    <glyph glyph-name="bracketleft" unicode="[" horiz-adv-x="303" 
d="M380 750q12 0 10 -12l-13 -76q-2 -8 -10 -8h-108l-116 -659h104q12 0 10 -12l-12 -71q-2 -8 -10 -8h-197q-12 0 -10 12l146 826q2 8 10 8h196zM184 740l-146 -826h197l12 71h-116l120 679h116l13 76h-196z" />
    <glyph glyph-name="bracketright" unicode="]" horiz-adv-x="303" 
d="M245 -89q-2 -8 -10 -8h-197q-12 0 -10 12l12 72q2 8 10 8h108l116 659h-104q-12 0 -10 12l14 76q2 8 10 8h196q12 0 10 -12zM380 740h-196l-14 -76h116l-120 -679h-116l-12 -72h197z" />
    <glyph glyph-name="asciicircum" unicode="^" horiz-adv-x="532" 
d="M459 351q-6 0 -9 6l-89 195l-152 -197q-4 -4 -8 -4h-84q-7 0 -10 5t2 11l231 297q4 4 8 4h60q7 0 9 -6l135 -297q7 -14 -9 -14h-84zM543 361l-135 297h-60l-231 -297h84l162 210l96 -210h84z" />
    <glyph glyph-name="underscore" unicode="_" horiz-adv-x="527" 
d="M32 -131q-12 0 -10 12l13 73q2 8 10 8h419q12 0 10 -12l-12 -73q-2 -8 -10 -8h-420zM452 -121l12 73h-419l-13 -73h420z" />
    <glyph glyph-name="a" unicode="a" horiz-adv-x="611" 
d="M551 482q2 8 10 8h79q12 0 10 -12l-82 -480q-2 -8 -10 -8h-81q-12 0 -10 12l6 36q-80 -54 -191 -54q-87 0 -143.5 66t-56.5 153q0 112 90 205.5t202 93.5q106 0 170 -59zM551 422q-42 44 -83.5 57t-93.5 13q-94 0 -177.5 -74t-100.5 -173t39 -175t147 -76q121 0 205 67
l-10 -61h81l82 480h-79zM318 72q-71 0 -112 48.5t-28 118.5q13 74 71.5 125t129.5 51t112 -50t29 -121q-13 -72 -71.5 -122t-130.5 -50zM513 273q0 58 -38 95t-96 37q-76 0 -135 -59.5t-59 -136.5q0 -56 38 -91.5t95 -35.5q76 0 135.5 58t59.5 133z" />
    <glyph glyph-name="b" unicode="b" horiz-adv-x="607" 
d="M611 288q0 -116 -92 -211t-207 -95q-102 0 -165 63l-8 -47q-2 -8 -10 -8h-76q-12 0 -10 12l116 659q2 8 10 8h76q12 0 10 -12l-37 -209q73 52 166 52q97 0 162 -58t65 -154zM384 490q-107 0 -180 -67l41 236h-76l-116 -659h76l12 67q63 -75 171 -75q98 0 182.5 75
t102.5 178t-43 174t-170 71zM313 72q-70 0 -110.5 49.5t-28.5 119.5q13 70 71.5 120.5t127.5 50.5t111.5 -50t30.5 -119q-13 -71 -72 -121t-130 -50zM507 270q0 57 -38.5 94.5t-95.5 37.5q-74 0 -132.5 -58.5t-58.5 -131.5q0 -57 37 -93.5t94 -36.5q74 0 134 57.5t60 130.5z
" />
    <glyph glyph-name="c" unicode="c" horiz-adv-x="578" 
d="M305 -16q-96 0 -159.5 59.5t-63.5 154.5q0 125 91 214.5t216 89.5q144 0 207 -136q4 -7 -4 -13l-69 -39h-2q-2 -1 -3 -1q-6 0 -8 5q-30 44 -59 64.5t-74 20.5q-78 0 -134.5 -55.5t-56.5 -133.5q0 -55 35.5 -92t89.5 -37q51 0 91.5 22t80.5 65q1 3 7 3q2 0 6 -2l56 -40
q7 -5 2 -14q-42 -60 -109.5 -97.5t-139.5 -37.5zM546 125l-56 40q-84 -90 -179 -90q-66 0 -105.5 50t-26.5 120q13 73 68.5 120.5t129.5 47.5q48 0 79 -21.5t62 -68.5l69 39q-60 130 -198 130q-111 0 -192.5 -70.5t-100.5 -177.5t42 -178.5t167 -71.5q135 0 235 123z" />
    <glyph glyph-name="d" unicode="d" horiz-adv-x="607" 
d="M584 661q2 8 10 8h76q12 0 10 -12l-116 -659q-2 -8 -10 -8h-76q-12 0 -10 12l8 43q-87 -61 -182 -61q-92 0 -152 63.5t-60 154.5q0 122 95.5 211t217.5 89q98 0 152 -55zM395 492q-108 0 -194 -71.5t-105 -174.5q-18 -103 41 -177.5t157 -74.5q106 0 196 74l-12 -68h76
l116 659h-76l-41 -235q-49 68 -158 68zM319 73q-71 0 -112 50t-28 121q12 69 71.5 119t128.5 50t110 -50.5t29 -119.5q-13 -70 -71 -120t-128 -50zM511 272q0 56 -38 93.5t-94 37.5q-74 0 -133.5 -58t-59.5 -132q0 -57 38 -93.5t95 -36.5q74 0 133 57.5t59 131.5z" />
    <glyph glyph-name="e" unicode="e" horiz-adv-x="596" 
d="M185 192q12 -109 130 -109q50 0 88 17.5t77 56.5q3 3 7 3q2 0 6 -2l56 -37q8 -6 2 -14q-44 -57 -109 -90t-135 -33q-98 0 -161.5 57.5t-63.5 154.5q0 122 92 214t214 92q97 0 153.5 -59.5t56.5 -156.5q0 -94 -21 -94h-392zM583 228q20 117 -34 190.5t-161 73.5
q-105 0 -189 -72t-103 -177q-19 -108 41 -178.5t170 -70.5q68 0 130.5 31.5t105.5 87.5l-56 37q-43 -42 -82 -59.5t-90 -17.5q-133 0 -141 129h403zM375 411q125 0 129 -128h-313q59 128 184 128zM493 293q-8 108 -118 108q-112 0 -168 -108h286z" />
    <glyph glyph-name="f" unicode="f" horiz-adv-x="392" 
d="M207 502q15 86 50.5 126t119.5 40q9 0 29 -0.5t29 -0.5q12 0 10 -12l-14 -76q-2 -8 -10 -8h-29h-26q-32 -2 -43 -17t-18 -52h120q12 0 10 -12l-14 -77q-2 -8 -10 -8h-122l-71 -407q-2 -8 -10 -8h-79q-12 0 -10 12l71 403h-64q-12 0 -10 12l14 77q2 8 10 8h67zM129 0h79
l73 415h130l14 77h-132q0 4 1 6q6 41 21 62t54 21h52l14 76l-58 1q-81 0 -113 -37t-47 -121l-1 -8h-76l-14 -77h76z" />
    <glyph glyph-name="g" unicode="g" horiz-adv-x="610" 
d="M639 490q12 0 10 -12q-11 -65 -37 -209t-39 -221q-45 -246 -308 -246q-72 0 -118.5 31t-86.5 96q-4 9 4 14l77 42q2 1 5 1q6 0 9 -5q29 -48 59 -64.5t85 -16.5q132 0 169 133q-65 -49 -164 -49q-94 0 -158.5 57.5t-64.5 151.5q0 15 7 66q16 95 104.5 169.5t185.5 74.5
q105 0 164 -60l7 39q2 8 10 8h80zM559 480l-11 -59q-36 44 -77 58t-93 14q-94 0 -178.5 -71.5t-101.5 -164.5l-3 -22q-18 -101 42 -171t167 -70q111 0 180 67q-16 -84 -56 -123q-51 -48 -129 -48q-25 0 -38.5 1.5t-35.5 9t-41 26t-38 49.5l-77 -42q41 -67 86 -94.5
t110 -27.5q126 0 198.5 56.5t99.5 181.5l76 430h-80zM318 75q-72 0 -113 49t-28 120q12 70 70 119t128 49q71 0 112 -50t28 -121q-12 -70 -69.5 -118t-127.5 -48zM508 272q0 57 -38 93.5t-95 36.5q-75 0 -133 -57t-58 -132q0 -57 38 -92.5t96 -35.5q75 0 132.5 56t57.5 131z
" />
    <glyph glyph-name="h" unicode="h" horiz-adv-x="514" 
d="M358 503q78 0 122.5 -37.5t44.5 -114.5q0 -58 -22 -175q-30 -149 -35 -178q-2 -8 -10 -8h-76q-12 0 -10 12l33 185q2 11 6.5 32t6.5 31q6 32 6 63q0 90 -84 90q-38 0 -67 -15t-46.5 -43.5t-28 -56.5t-18.5 -66q-4 -18 -10 -53t-6 -37l-24 -134q-2 -8 -10 -8h-77
q-12 0 -10 12l116 659q2 8 10 8h77q12 0 10 -12q-5 -25 -14.5 -87.5t-16.5 -95.5q52 29 133 29zM480 117q3 15 8 42.5t9 50t7 42.5q27 144 -18 196q-45 45 -128 45q-94 0 -147 -42v3v1q4 19 5 33q2 8 4.5 24t3.5 20l22 127h-77l-116 -659h77l24 134q1 12 5 31q7 42 12.5 68
t19.5 63.5t31.5 59.5t48 39t69.5 18q47 -1 70.5 -25t23.5 -60t-6 -78q-2 -10 -7 -38l-6 -27l-33 -185h76q9 56 22 117zM218 445l-5 5h7q-2 -2 -2 -5z" />
    <glyph glyph-name="i" unicode="i" horiz-adv-x="215" 
d="M280 618q0 -33 -21.5 -54t-54.5 -21q-24 0 -39.5 13.5t-15.5 37.5q0 32 21.5 53.5t52.5 21.5q24 0 40.5 -13t16.5 -38zM160 606q-4 -24 8 -38.5t36 -14.5q26 0 43.5 14.5t21.5 38.5q5 24 -7.5 38.5t-38.5 14.5q-25 0 -42 -15t-21 -38zM229 490q12 0 10 -12l-85 -480
q-2 -8 -10 -8h-76q-12 0 -10 12l85 480q2 8 10 8h76zM153 480l-85 -480h76l85 480h-76z" />
    <glyph glyph-name="j" unicode="j" horiz-adv-x="292" 
d="M356 618q0 -33 -21 -54t-54 -21q-24 0 -40 14t-16 38q0 31 22.5 52.5t52.5 21.5q24 0 40 -13t16 -38zM236 606q-4 -24 8.5 -38.5t36.5 -14.5q25 0 42.5 14.5t21.5 38.5q5 24 -7.5 38.5t-37.5 14.5q-24 0 -42 -14.5t-22 -38.5zM230 -5q-7 -39 -12.5 -61.5t-18 -50.5
t-29.5 -43t-46 -25.5t-68 -10.5h-36q-12 0 -10 12l14 79q2 8 10 8q6 0 18 -1t18 -1q27 0 37.5 10.5t16.5 38.5q4 15 10 50q11 59 85 482q2 8 10 8h77q12 0 10 -12zM306 480h-77l-59 -334q-8 -54 -18 -104q-3 -20 -8 -44q-12 -79 -31 -95q-16 -12 -43 -12q-8 0 -12 1
q-1 0 -8 0.5t-16 0.5l-14 -79h36q36 0 62.5 9t43 22.5t28 39.5t17.5 49.5t13 62.5z" />
    <glyph glyph-name="k" unicode="k" horiz-adv-x="512" 
d="M159 661q2 8 10 8h76q12 0 10 -12l-61 -349l230 192q5 2 6 2h101q9 0 11 -6t-5 -12l-289 -239l217 -238q6 -6 3.5 -11.5t-10.5 -5.5h-104q-4 0 -7 3l-177 190l-32 -185q-2 -8 -10 -8h-75q-12 0 -10 12zM53 0h75l36 204l190 -204h104l-225 246l298 246h-101l-251 -209
l66 376h-76z" />
    <glyph glyph-name="l" unicode="l" horiz-adv-x="181" 
d="M245 669q12 0 10 -12l-116 -659q-2 -8 -10 -8h-75q-12 0 -10 12l114 659q2 8 10 8h77zM168 659l-114 -659h75l116 659h-77z" />
    <glyph glyph-name="m" unicode="m" horiz-adv-x="783" 
d="M784 424q12 -25 12 -71q0 -59 -24 -183q-7 -37 -19 -96.5t-15 -75.5q-2 -8 -10 -8h-77q-12 0 -10 12l48 275q4 19 4 44q0 82 -74 82q-106 0 -134 -157l-44 -248q-2 -8 -10 -8h-83q-12 0 -10 12l47 252q6 30 6 60q0 89 -70 89q-32 0 -57 -14t-40 -39.5t-23.5 -50.5
t-15.5 -57q-4 -18 -14 -78q-7 -43 -29 -166q-2 -8 -10 -8h-79q-12 0 -10 12l89 492q2 8 10 8h77q12 0 10 -12l-2 -10q36 22 107 22q89 0 132 -63q60 63 165 63q47 0 91 -19.5t62 -58.5zM631 492q-55 0 -93.5 -15t-72.5 -55q-25 42 -56.5 56t-74.5 14q-29 0 -44 -1t-37 -9.5
t-41 -24.5l7 35h-77l-89 -492h79l23 132l6 34q1 6 3 18.5t3 18.5q8 46 17 77.5t26 65t45 50.5t66 17q100 0 74 -161l-47 -252h83l44 248q4 15 4 17q5 21 8.5 33t15 37t25 39.5t37.5 26.5t54 12q104 0 80 -138l-48 -275h77l34 180l6 32l6 33q23 125 1 175q-18 35 -58 53.5
t-86 18.5z" />
    <glyph glyph-name="n" unicode="n" horiz-adv-x="516" 
d="M528 341q0 -27 -11 -93l-44 -250q-2 -8 -10 -8h-79q-12 0 -10 12l37 210l9 51q4 34 4 51q0 46 -18.5 68.5t-61.5 22.5q-67 0 -101 -27t-50 -90q-5 -19 -16 -80l-37 -210q-2 -8 -10 -8h-77q-12 0 -10 12l89 492q2 8 10 8h77q12 0 10 -12l-4 -21q51 33 129 33
q76 0 125 -42.5t49 -118.5zM354 492q-90 0 -144 -46l9 46h-77l-89 -492h77l37 210q6 49 14.5 81.5t27 63t52 45.5t83.5 15q45 0 67 -23.5t22.5 -62.5t-7.5 -90q-1 -8 -5 -29l-37 -210h79l44 250q10 60 11 91q0 70 -45 110.5t-119 40.5z" />
    <glyph glyph-name="o" unicode="o" horiz-adv-x="611" 
d="M615 291q0 -121 -94 -211t-215 -90q-94 0 -158.5 60.5t-64.5 155.5q0 119 96 207.5t216 88.5q94 0 157 -59t63 -152zM395 492q-105 0 -192.5 -71.5t-105.5 -172.5q-18 -102 43 -175t166 -73q106 0 191.5 72.5t103.5 175.5q18 102 -42 173t-164 71zM320 77q-71 0 -112 50
t-29 121q13 69 71 118t129 49q70 0 112 -49.5t30 -117.5q-13 -69 -71 -120t-130 -51zM513 275q0 56 -38.5 93t-95.5 37q-74 0 -133 -56.5t-59 -129.5q0 -58 37.5 -95t95.5 -37q73 0 133 58t60 130z" />
    <glyph glyph-name="p" unicode="p" horiz-adv-x="606" 
d="M106 -189q-2 -8 -10 -8h-76q-12 0 -10 12l118 667q2 8 10 8h76q12 0 10 -12l-5 -29q75 54 170 54q91 0 155.5 -64.5t64.5 -156.5q0 -119 -95.5 -205.5t-215.5 -86.5q-96 0 -151 55zM298 0q109 0 194.5 70.5t103.5 173.5q17 99 -45.5 174t-161.5 75q-103 0 -185 -68l10 55
h-76l-118 -667h76l45 255q50 -68 157 -68zM373 415q70 0 111 -50.5t29 -118.5q-12 -69 -71 -118.5t-129 -49.5t-111 49.5t-29 118.5q13 70 71.5 119.5t128.5 49.5zM181 218q0 -57 37.5 -93.5t94.5 -36.5q74 0 133.5 56.5t59.5 130.5q0 56 -38 93t-95 37q-74 0 -133 -57
t-59 -130z" />
    <glyph glyph-name="q" unicode="q" horiz-adv-x="606" 
d="M81 197q0 116 92.5 210.5t208.5 94.5q99 0 162 -63l7 43q2 8 10 8h76q12 0 10 -12l-117 -667q-2 -8 -10 -8h-76q-12 0 -10 12l40 222q-73 -53 -167 -53q-96 0 -161 58t-65 155zM307 -6q107 0 181 68l-44 -249h76l117 667h-76l-11 -63q-62 75 -168 75q-99 0 -184 -75
t-103 -177q-18 -103 42.5 -174.5t169.5 -71.5zM378 412q70 0 111 -49t29 -119q-13 -71 -71 -121.5t-128 -50.5t-111.5 50t-28.5 121q12 69 70.5 119t128.5 50zM186 213q0 -57 38 -94t95 -37q74 0 133 59t59 132q0 57 -38 93t-95 36q-75 0 -133.5 -57.5t-58.5 -131.5z" />
    <glyph glyph-name="r" unicode="r" horiz-adv-x="354" 
d="M388 502q12 0 10 -12l-15 -85q-1 -8 -12 -8q-20 5 -37 5q-49 0 -87.5 -20t-46.5 -60q-10 -49 -58 -324q-2 -8 -10 -8h-79q-12 0 -10 12l85 480q2 8 10 8h76q12 0 10 -12l-2 -9q57 33 166 33zM373 407l15 85q-64 0 -111 -11t-85 -48l17 17l5 30h-76l-85 -480h79l31 175
l18 102q6 27 9 47q8 44 50 66t94 22q19 0 39 -5z" />
    <glyph glyph-name="s" unicode="s" horiz-adv-x="477" 
d="M260 310q10 -5 36 -13l42 -12q26 -8 44 -15.5t38 -20.5t30.5 -33.5t10.5 -46.5q0 -85 -67.5 -132t-152.5 -47q-66 0 -105 28t-72 90q-3 8 4 14l74 44q1 1 5 1q6 0 9 -5q22 -41 42 -56.5t60 -15.5q35 0 67.5 13.5t32.5 44.5q0 19 -31 34q-13 6 -36 13l-44 12
q-26 8 -44 15.5t-38.5 21t-31 33.5t-10.5 46q0 81 64 130t146 49q57 0 91.5 -25.5t72.5 -79.5q7 -8 -3 -14l-72 -44q-2 -2 -5 -2q-4 0 -8 4q-15 22 -24.5 32.5t-27 20t-39.5 9.5q-34 0 -61.5 -15.5t-27.5 -43.5q0 -19 31 -34zM220 352q4 28 31.5 44.5t66.5 16.5q35 0 53 -14
t46 -52l72 44q-42 60 -75 80.5t-81 20.5q-79 0 -133 -41t-65 -106q-5 -26 1.5 -46.5t17.5 -33t34 -24t38 -17t44 -13.5q26 -7 40 -12t30.5 -13.5t23 -19.5t3.5 -26q-5 -27 -34 -43.5t-75 -16.5q-44 0 -66 16.5t-45 60.5l-74 -44q34 -65 72 -89t96 -24q84 0 140.5 40
t67.5 105q6 33 -2 56.5t-33.5 39t-43.5 22.5t-55 18q-21 6 -31.5 9.5t-26 10t-23 13t-12 16.5t-2.5 22z" />
    <glyph glyph-name="t" unicode="t" horiz-adv-x="416" 
d="M273 174q-5 -23 -5 -44q0 -23 9.5 -33t31.5 -10t66 12h4q11 0 9 -12l-13 -79q-2 -10 -35.5 -14t-56.5 -4q-120 0 -120 117q0 29 7 69l40 227h-84q-12 0 -10 12l14 79q2 8 10 8h88l19 111q2 8 10 8h82q12 0 10 -12l-19 -107h120q12 0 10 -12l-14 -79q-2 -8 -10 -8h-123z
M305 413h131l14 79h-132l21 119h-82l-21 -119h-96l-14 -79h96l-42 -239q-7 -49 -6 -87.5t28 -62.5t81 -24q20 0 60 7q10 0 22 3l13 79q-45 -12 -69 -12q-37 0 -47 25t1 74z" />
    <glyph glyph-name="u" unicode="u" horiz-adv-x="516" 
d="M73 147q0 15 4 47q6 30 8 45l45 255q2 8 10 8h77q12 0 10 -12l-38 -213l-9 -50q-4 -34 -4 -50q0 -95 81 -95q39 0 67 10.5t44 24t28 44t16.5 52.5t12.5 67l37 214q2 8 10 8h77q12 0 10 -12l-87 -492q-2 -8 -10 -8h-79q-12 0 -10 12l4 16q-52 -34 -131 -34
q-76 0 -124.5 44t-48.5 119zM246 -6q90 0 146 48l-9 -42h79l87 492h-77l-37 -214q-2 -8 -4 -24q-14 -92 -49.5 -137t-124.5 -45q-64 0 -81 46t-3 130l6 31l38 213h-77l-45 -255q-11 -54 -12 -90q-1 -69 45 -111t118 -42z" />
    <glyph glyph-name="v" unicode="v" 
d="M312 135l211 362q3 5 9 5h84q7 0 9.5 -4.5t-0.5 -10.5l-286 -492q-3 -5 -9 -5h-83q-8 0 -10 8l-107 492q-2 12 10 12h87q8 0 10 -8zM227 492h-87l107 -492h83l286 492h-84l-224 -384z" />
    <glyph glyph-name="w" unicode="w" horiz-adv-x="783" 
d="M202 -10q-8 0 -10 9l-62 492q-1 4 2 7.5t8 3.5h86q10 0 10 -9l34 -326l166 330q2 5 9 5h72q8 0 10 -9l44 -325l155 328q2 6 9 6h82q16 0 9 -14l-238 -492q-2 -6 -9 -6h-73q-8 0 -10 8l-49 312l-157 -315q-2 -5 -9 -5h-79zM281 0l171 342l54 -342h73l238 492h-82
l-169 -359l-49 359h-72l-181 -360l-38 360h-86l62 -492h79z" />
    <glyph glyph-name="x" unicode="x" horiz-adv-x="567" 
d="M601 502q8 0 10.5 -5.5t-3.5 -11.5l-222 -242l137 -238q3 -6 0.5 -10.5t-9.5 -4.5h-91q-7 0 -9 5l-100 169l-161 -171q0 -3 -7 -3h-93q-8 0 -10.5 5.5t3.5 11.5l222 239l-137 241q-3 6 -0.5 10.5t9.5 4.5h91q7 0 9 -5l99 -177l164 179q0 3 7 3h91zM510 492l-173 -189
l-106 189h-91l140 -248l-227 -244h93l170 181l107 -181h91l-140 244l227 248h-91z" />
    <glyph glyph-name="y" unicode="y" 
d="M418 105q-7 -12 -25.5 -47t-29.5 -54q-54 -93 -116.5 -147t-153.5 -54q-12 0 -10 12l13 72q2 6 8 8q52 8 97 43.5t45 81.5q0 18 -13 66q-19 61 -22 71l-81 333q-2 12 10 12h84q8 0 10 -7l92 -357q25 45 91 169t104 190q3 5 9 5h86q7 0 9.5 -4.5t-0.5 -10.5zM616 492h-86
q-31 -54 -82 -150q-73 -137 -126 -231l-98 381h-84l81 -333q5 -23 21 -75q17 -57 13 -77q-7 -44 -49 -78t-100 -44l-13 -72q88 0 147 51q85 76 169 246z" />
    <glyph glyph-name="z" unicode="z" horiz-adv-x="500" 
d="M159 494q2 8 10 8h365q8 0 10 -5t-2 -11l-310 -399h221q12 0 10 -12l-14 -77q-2 -8 -10 -8h-386q-7 0 -10 5t2 11l316 397h-206q-12 0 -10 12zM155 413h227l-329 -413h386l14 77h-242l323 415h-365z" />
    <glyph glyph-name="braceleft" unicode="{" horiz-adv-x="386" 
d="M300 -7q22 -6 32 -10q8 -3 6 -11l-13 -65q-2 -8 -10 -8h-45q-123 0 -123 122q0 38 16 108q15 64 15 102q0 23 -10 32.5t-35 18.5q-3 1 -13.5 5t-15.5 7q-8 4 -6 11q3 12 6 34.5t3 24.5q0 6 7 9q9 3 29 8.5t29 8.5q2 1 5.5 1.5t5.5 1t4.5 1t4.5 1.5q11 4 15 9t6 19
q4 22 10.5 66t10.5 65q21 120 67 165.5t162 46.5q12 0 10 -12q-7 -37 -8 -66q0 -8 -7 -10l-36 -9q-46 -10 -60 -25.5t-22 -63.5q-3 -17 -9.5 -65t-12.5 -72q-19 -68 -69 -112q2 -3 9.5 -13t10.5 -16q15 -24 15 -45q0 -16 -6 -52q-7 -32 -13 -57q-18 -76 -18 -107
q0 -15 9 -25.5t18 -14t26 -8.5zM270 227q6 33 1 48.5t-36 56.5q46 37 60 73t24 107q2 10 4.5 28t3.5 25l3 17q9 50 24.5 68.5t65.5 28.5q18 4 35 9q1 25 8 68q-18 0 -32 -2q-48 0 -81.5 -13.5t-54 -42.5t-31.5 -62t-20 -84l-21 -131q-4 -21 -10.5 -26.5t-37.5 -14.5
q-23 -5 -58 -17l-4 -30q-3 -20 -5 -30q12 -6 26 -10q40 -13 50 -37t0 -65q-3 -21 -9 -45q-2 -8 -5 -24t-5 -24q-8 -53 -7.5 -95t28 -68t84.5 -26h45l13 65q-7 3 -17 6t-13 4q-47 11 -57 33t1 70q2 9 5.5 28t5.5 28q1 5 17 84z" />
    <glyph glyph-name="bar" unicode="|" horiz-adv-x="227" 
d="M268 655q12 0 10 -12l-114 -644q-2 -8 -10 -8h-80q-12 0 -10 12l114 644q2 8 10 8h80zM188 645l-114 -644h80l114 644h-80z" />
    <glyph glyph-name="braceright" unicode="}" horiz-adv-x="386" 
d="M225 414q0 24 5 56l12 54q16 72 16 105q0 22 -27 33q-10 4 -30.5 9t-27.5 8q-9 2 -7 12q9 34 15 67q2 8 10 8q32 0 52 -2t44 -9t37.5 -19.5t23 -36.5t9.5 -58q0 -33 -7 -77q-4 -25 -14 -75q0 -1 -4 -17.5t-6 -25.5q-6 -22 -6 -41q0 -5 7 -8q15 -4 75 -25q6 -2 6 -10
q-5 -35 -12 -62l-2 -2q-1 -2 -2 -3l-2 -1q-20 -8 -30 -11q-43 -11 -57 -30.5t-23 -68.5q-2 -9 -15 -93q-8 -44 -19 -75t-30.5 -59.5t-52 -43t-77.5 -14.5h-45q-5 0 -8 3.5t-2 7.5l10 65q3 8 7 8q22 8 33 11q48 13 62 27.5t22 63.5q5 27 12 76t10 68q10 55 68 104
q-30 40 -30 81zM197 227q-3 -18 -7.5 -48t-5.5 -39q-4 -32 -9 -57q-9 -50 -25 -68.5t-66 -30.5q-4 -1 -14.5 -4t-18.5 -6l-10 -65h45q40 0 70.5 14.5t48 35t30 55.5t17.5 61t11 68q4 31 7 43q8 48 24.5 71t62.5 36q14 3 29 10q4 14 6 30q4 16 6 30q-12 5 -52 18
q-28 8 -33 13.5t-1 26.5q2 10 6.5 33.5t7.5 36.5l12 62q16 68 6.5 121.5t-55.5 70.5q-24 9 -66 9q-16 2 -32 2q-5 -31 -15 -68q15 -5 31 -9q56 -11 61 -44q1 -17 -5 -53l-3 -17q-5 -32 -19 -96q-10 -45 -5 -74.5t33 -62.5q-45 -42 -55.5 -57t-16.5 -48z" />
    <glyph glyph-name="yen" unicode="&#xa5;" horiz-adv-x="605" 
d="M579 287q12 0 10 -12l-9 -53q-2 -8 -10 -8h-181l-8 -45h177q12 0 10 -12l-9 -53q-2 -8 -10 -8h-181l-15 -88q-2 -8 -10 -8h-80q-12 0 -10 12l15 84h-177q-12 0 -10 12l9 53q2 8 10 8h182l7 45h-177q-12 0 -10 12l9 53q2 8 10 8h181l2 12l-176 356q-7 14 9 14h85q7 0 9 -6
l136 -280l239 283q3 3 8 3h86q8 0 10.5 -5t-2.5 -11l-304 -356l-2 -10h177zM390 277l5 24l305 358h-86l-249 -294l-143 294h-85l177 -359l-4 -23h-189l-9 -53h189l-11 -65h-190l-9 -53h189l-17 -96h80l17 96h189l9 53h-189l12 65h189l9 53h-189z" />
    <glyph glyph-name="copyright" unicode="&#xa9;" horiz-adv-x="769" 
d="M389 -17q-137 0 -241.5 104.5t-104.5 241.5q0 136 105 240t241 104q144 0 240.5 -100t96.5 -244q0 -145 -96 -245.5t-241 -100.5zM716 329q0 136 -91 235t-236 99q-133 0 -234.5 -101.5t-101.5 -232.5q0 -133 101.5 -234.5t234.5 -101.5q145 0 236 100t91 236zM656 329
q0 -106 -75 -188.5t-187 -86.5h-3q-107 5 -191 87t-84 188q0 107 83 190.5t191 83.5q118 0 192 -82t74 -192zM390 593q-104 0 -184 -80.5t-80 -183.5q0 -101 83 -183t185 -82t177 81t75 184q0 110 -73.5 187t-182.5 77zM215 329q0 71 52.5 125.5t123.5 54.5q77 0 148 -66
q7 -6 1 -14l-51 -57q-5 -3 -8 -3q-4 0 -7 3q-43 43 -79 43q-33 0 -57.5 -26t-24.5 -60q0 -36 23.5 -62t58.5 -26q34 0 79 43q3 3 7 3t7 -3l51 -56q8 -8 0 -14q-71 -67 -148 -67q-72 0 -124 55t-52 127zM391 157q74 0 141 64l-51 56q-48 -46 -86 -46q-39 0 -65.5 29t-26.5 69
q0 39 27.5 67.5t64.5 28.5q40 0 86 -46l51 57q-69 63 -141 63q-66 0 -116 -51t-50 -119q0 -69 49.5 -120.5t116.5 -51.5z" />
    <glyph glyph-name="guillemotleft" unicode="&#xab;" horiz-adv-x="456" 
d="M212 325l78 -169q7 -14 -9 -14h-93q-6 0 -9 6l-77 174q-1 2 -0.5 5.5t1.5 4.5l138 171q4 4 8 4h91q8 0 10.5 -5t-2.5 -11zM362 324l77 -168q7 -14 -9 -14h-93q-6 0 -9 6l-76 173q-2 4 1 10l137 172q4 4 8 4h92q8 0 10.5 -5t-2.5 -11zM340 497h-91l-138 -171l77 -174h93
l-81 174zM490 497h-92l-137 -172l76 -173h93l-80 173z" />
    <glyph glyph-name="registered" unicode="&#xae;" horiz-adv-x="762" 
d="M381 -17q-133 0 -235.5 102.5t-102.5 235.5t102.5 235.5t235.5 102.5q132 0 235 -103t103 -235q0 -133 -102.5 -235.5t-235.5 -102.5zM709 321q0 127 -100.5 227.5t-227.5 100.5q-129 0 -228.5 -100t-99.5 -228q0 -129 99.5 -228.5t228.5 -99.5q128 0 228 99.5t100 228.5
zM648 321q-2 -103 -83.5 -184.5t-183.5 -81.5q-104 0 -185 81t-81 185t81 185.5t185 81.5t185.5 -81.5t81.5 -185.5zM381 578q-100 0 -178 -78t-78 -179t77.5 -178.5t178.5 -77.5q98 0 177.5 79.5t79.5 176.5q0 101 -78 179t-179 78zM451 149q-5 0 -8 5l-68 108h-32v-103
q0 -10 -10 -10h-67q-10 0 -10 10v322q0 10 10 10h121q55 0 90.5 -29.5t35.5 -84.5q0 -68 -49 -97l76 -115q4 -7 2 -11.5t-10 -4.5h-81zM532 159l-83 125q54 25 54 93q0 51 -32.5 77.5t-83.5 26.5h-121v-322h67v113h47l71 -113h81zM385 418q52 0 52 -41q0 -43 -52 -43h-52v84
h52zM343 408v-64h42q42 0 42 33q0 31 -42 31h-42z" />
    <glyph glyph-name="guillemotright" unicode="&#xbb;" horiz-adv-x="456" 
d="M80 142q-8 0 -10 5t2 11l137 169l-75 166q-7 14 9 14h91q7 0 9 -6l77 -172q2 -4 -1 -10l-138 -173q-4 -4 -8 -4h-93zM230 142q-8 0 -10 5t2 11l137 170l-76 165q-7 14 9 14h92q7 0 9 -6l77 -171q2 -4 -1 -10l-138 -174q-4 -4 -8 -4h-93zM173 152l138 173l-77 172h-91
l78 -172l-141 -173h93zM323 152l138 174l-77 171h-92l79 -171l-141 -174h93z" />
    <glyph glyph-name="divide" unicode="&#xf7;" horiz-adv-x="459" 
d="M380 456q0 -33 -23.5 -56t-56.5 -23q-25 0 -42.5 14.5t-17.5 40.5q0 34 23.5 57.5t57.5 23.5q25 0 42 -15.5t17 -41.5zM251 444q-5 -25 8.5 -41t40.5 -16t45.5 16t23.5 41t-8.5 42t-39.5 17q-27 0 -46 -17t-24 -42zM466 277q-2 -8 -10 -8h-354q-12 0 -10 12l13 74
q2 8 10 8h354q12 0 10 -12zM469 353h-354l-13 -74h354zM335 200q0 -34 -23 -57t-57 -23q-26 0 -43 14.5t-17 41.5q0 34 23.5 57t57.5 23q25 0 42 -15t17 -41zM206 188q-5 -26 8.5 -42t40.5 -16t45.5 16t23.5 42q5 25 -8.5 41.5t-39.5 16.5q-27 0 -46 -16.5t-24 -41.5z" />
    <glyph glyph-name="tilde" unicode="&#x2dc;" horiz-adv-x="520" 
d="M415 422q-35 0 -56.5 15t-47.5 48q-8 10 -11 13q-10 10 -20 10q-16 0 -28.5 -26t-15.5 -48q-2 -8 -10 -8h-65q-12 0 -10 12q7 33 15 57t23.5 52t42 43t61.5 15q51 0 87 -47q25 -40 47 -40q28 0 43 72q2 8 10 8h66q12 0 10 -12q-5 -29 -14.5 -55t-25.5 -52t-42 -41.5
t-59 -15.5zM546 588h-66q-7 -35 -21 -57.5t-32 -22.5q-10 0 -19 5.5t-14.5 11t-15.5 18.5q-19 27 -36.5 39.5t-48.5 12.5q-48 0 -82.5 -36.5t-45.5 -102.5l-4 -20h65q6 35 21 58.5t33 23.5q4 0 7 -1t6.5 -2.5t5.5 -3t5.5 -5l5 -5t5 -5.5t4.5 -5l25 -30q21 -29 71 -29
q46 0 81 37t47 102z" />
    <glyph glyph-name="endash" unicode="&#x2013;" horiz-adv-x="580" 
d="M565 155q-2 -8 -10 -8h-474q-12 0 -10 12l13 73q2 8 10 8h474q12 0 10 -12zM568 230h-474l-13 -73h474z" />
    <glyph glyph-name="quoteleft" unicode="&#x2018;" horiz-adv-x="242" 
d="M318 750h3q12 0 9 -13q-65 -189 -82 -233q-2 -7 -9 -7q-14 1 -41 1q-19 0 -55 -2q-7 -1 -10 3.5t0 10.5q8 17 23.5 52.5t23.5 53.5q42 92 57 107q34 17 81 27zM242 714q-23 -36 -65 -130q-13 -32 -35 -78q26 2 52 2q25 0 45 -1l24 68q16 45 57 165q-28 -7 -74 -24z" />
    <glyph glyph-name="quoteright" unicode="&#x2019;" horiz-adv-x="246" 
d="M146 494q-13 0 -8 13q25 79 81 233q2 7 10 7q15 -2 44 -2q18 0 50 2q7 1 10 -3.5t0 -10.5q-20 -41 -47 -106q-31 -69 -55 -103q0 -4 -4 -4q-13 -6 -42 -16t-39 -10zM223 529q28 43 67 134q27 60 34 74q-24 -2 -52 -2q-24 0 -44 2l-24 -68q-38 -105 -57 -165q38 9 65 20z
" />
    <glyph glyph-name="quotesinglbase" unicode="&#x201a;" horiz-adv-x="239" 
d="M123 141q58 0 87 -3q13 -2 8 -14q-9 -19 -25 -56t-19 -45q-27 -62 -50 -99l-4 -4q-37 -20 -82 -36q-2 -1 -6 -1q-11 0 -8 13q18 65 82 238q2 7 9 7h8zM115 131l-15 -41q-45 -123 -66 -197l33 13q28 11 48 23q22 36 64 131q18 42 30 68q-31 3 -86 3h-8z" />
    <glyph glyph-name="quotedblleft" unicode="&#x201c;" horiz-adv-x="369" 
d="M407 738q12 5 40 15h5q11 0 8 -13q-9 -27 -37.5 -109t-43.5 -126q-3 -7 -11 -7q-23 3 -43 3q-29 0 -50 -4h-3q-15 0 -8 14q44 102 46 107q50 107 61 109q8 1 36 11zM323 750h3q12 0 9 -13q-52 -156 -81 -233q-2 -7 -10 -7q-12 1 -37 1q-21 0 -57 -2q-7 -1 -10 3.5t0 10.5
q8 17 23.5 52.5t23.5 53.5q29 64 54 103l3 4q25 13 79 27zM373 717q-28 -45 -69 -139l-31 -71q27 4 52 4q24 0 44 -3l22 63q24 66 59 172q-44 -13 -73 -25zM249 714q-30 -47 -68 -137q-4 -9 -15.5 -35.5t-16.5 -35.5q26 2 51 2q33 0 45 -1q36 95 80 233q-23 -6 -72 -24z" />
    <glyph glyph-name="quotedblright" unicode="&#x201d;" horiz-adv-x="371" 
d="M322 507q-2 -1 -12.5 -4t-19 -5t-11.5 -2q-12 0 -9 13q4 12 81 235q2 9 11 7q19 -4 42 -4q28 0 51 4h2q15 0 8 -14q-42 -98 -46 -107q-51 -102 -58 -107q-9 -4 -39 -16zM197 507q-8 -2 -21.5 -6.5t-18.5 -6.5h-3q-13 0 -8 13q46 145 80 234q2 6 10 6q30 -2 44 -2
q24 0 50 3h2q15 0 8 -14q-10 -20 -25.5 -56.5t-21.5 -49.5q-47 -108 -60 -110q-16 -3 -36 -11zM356 532q27 42 69 139q2 5 31 70q-27 -4 -52 -4q-23 0 -44 4l-22 -64q-34 -93 -58 -171q39 10 72 24zM231 528q34 55 69 139q21 50 31 71q-26 -3 -51 -3q-21 0 -45 2
q-36 -95 -80 -233q32 8 72 23z" />
    <glyph glyph-name="quotedblbase" unicode="&#x201e;" horiz-adv-x="367" 
d="M106 134q2 7 9 7h94q16 0 9 -14q-8 -17 -22 -51.5t-22 -51.5q-42 -97 -54 -105q-64 -34 -88 -34q-12 0 -7 13q36 114 81 236zM337 139q16 0 9 -14q-7 -15 -14 -31.5t-15 -36.5t-13 -31q-30 -66 -49 -97l-3 -3q-18 -14 -42 -24q-28 -12 -42 -19q-4 -2 -6 -2q-5 0 -7 4
t-1 9q9 37 22 76t31 87.5t27 73.5q2 7 9 7h14q13 0 39.5 0.5t40.5 0.5zM34 -105q19 5 27 10q34 11 54 23q27 45 65 135l29 68h-94l-16 -42q-49 -141 -60 -178zM243 128q-3 -7 -10 -26t-9 -26q-42 -110 -60 -184q26 13 35 16q27 11 47 26q26 41 63 130q3 7 13 31t15 34
q-68 0 -86 -1h-8z" />
    <glyph glyph-name="ellipsis" unicode="&#x2026;" horiz-adv-x="649" 
d="M411 99q0 -33 -24.5 -56.5t-57.5 -23.5q-26 0 -43.5 16t-17.5 42q0 34 24 56t57 22q27 0 44.5 -14t17.5 -42zM621 100q0 -34 -23.5 -57.5t-57.5 -23.5q-26 0 -42.5 15.5t-16.5 41.5q0 34 23 56.5t57 22.5q26 0 43 -14t17 -41zM198 98q0 -34 -23 -57t-57 -23
q-26 0 -43.5 15t-17.5 41q0 35 24 57.5t58 22.5q26 0 42.5 -15t16.5 -41zM279 87q-4 -24 10 -41t40 -17q27 0 46.5 17t24.5 41q4 27 -10 42.5t-41 15.5q-26 0 -45.5 -15.5t-24.5 -42.5zM492 87q-5 -24 8.5 -41t39.5 -17q27 0 46 16.5t24 41.5q4 28 -9 43t-40 15
q-58 0 -69 -58zM68 85q-5 -25 9 -41t41 -16t45.5 16t23.5 41q4 27 -9 43t-39 16q-28 0 -47.5 -16t-23.5 -43z" />
    <glyph glyph-name="guilsinglleft" unicode="&#x2039;" horiz-adv-x="307" 
d="M214 325l76 -169q7 -14 -9 -14h-93q-6 0 -9 6l-77 174q-1 2 -0.5 5.5t1.5 4.5l138 171q4 4 8 4h91q8 0 10 -5t-2 -11zM340 497h-91l-138 -171l77 -174h93l-79 174z" />
    <glyph glyph-name="guilsinglright" unicode="&#x203a;" horiz-adv-x="307" 
d="M80 142q-8 0 -10 5t2 11l137 170l-75 165q-7 14 9 14h91q7 0 9 -6l78 -171q2 -4 -1 -10l-139 -174q-4 -4 -8 -4h-93zM173 152l139 174l-78 171h-91l78 -171l-141 -174h93z" />
    <glyph glyph-name="Euro" unicode="&#x20ac;" 
d="M613 470q7 0 9.5 -4.5t-0.5 -10.5l-40 -71q-2 -5 -9 -5l-311 3q-10 -35 -11 -69h335q8 0 10 -5t-2 -11l-48 -68q-4 -4 -8 -4h-275q25 -61 76 -93t120 -32q48 0 104 18h4q11 0 9 -12l-12 -71q-2 -12 -51 -19t-77 -7q-104 0 -181 58t-99 158h-93q-12 0 -10 12l12 66
q2 8 10 8l76 1q3 31 11 70h-69q-12 0 -10 12l12 68q2 8 10 8h90q55 100 151.5 160.5t208.5 60.5q73 0 126 -23q8 -3 6 -11l-13 -72q-2 -8 -10 -8q-2 0 -3 1q-57 21 -109 21q-73 0 -137 -34t-109 -95h307zM552 609q52 0 112 -22l13 72q-53 22 -122 22q-108 0 -204 -59
t-150 -162h-96l-12 -68h82q-13 -54 -15 -90l-85 -1l-12 -66h101q19 -100 93.5 -158t178.5 -58q61 0 118 18l12 71q-60 -18 -107 -18q-75 0 -130.5 37t-79.5 108h289l48 68h-346q2 46 15 89l318 -3l40 71h-326q49 73 118.5 111t146.5 38z" />
    <glyph glyph-name="trademark" unicode="&#x2122;" horiz-adv-x="739" 
d="M371 772q5 0 8 -5q35 -53 72 -116q12 19 36 58t36 59q4 4 8 4h60q10 0 10 -10v-302q0 -10 -10 -10h-61q-10 0 -10 10v148q-9 -16 -29 -49t-30 -50q-5 -6 -9 -6q-5 0 -8 6q-10 15 -40 67q-4 7 -11.5 18.5t-9.5 15.5v-150q0 -10 -10 -10h-62q-10 0 -10 10q0 18 0.5 55
t0.5 55v121h-76v-232q0 -10 -10 -10h-65q-10 0 -10 10v232h-95q-10 0 -10 10v63q0 10 10 10h276q2 0 6 -2h43zM530 460h61v302h-60q-24 -36 -48 -78q-16 -28 -32 -52q-43 73 -80 130h-49v2h-276v-63h105v-242h65v242h96v-43v-88l-1 -110h62v115v37v30l1 -1q0 1 0 0.5t1 -2.5
q10 -16 77 -125q5 9 57 94l21 36v-48v-136z" />
    <glyph glyph-name="fraction" horiz-adv-x="320" 
d="M32 13q-2 -5 -9 -5h-81q-7 0 -10 4.5t1 10.5l508 839q5 5 9 5h82q7 0 10 -4.5t-1 -10.5zM532 857h-82l-508 -839h81z" />
    <glyph glyph-name="exclamdown" horiz-adv-x="225" 
d="M289 614q0 -34 -23 -58t-57 -24q-26 0 -43.5 15.5t-17.5 42.5q0 34 24 56.5t58 22.5q25 0 42 -14.5t17 -40.5zM159 602q-5 -27 9 -43.5t41 -16.5t45.5 16.5t23.5 43.5q5 25 -8.5 41t-39.5 16q-27 0 -46.5 -16t-24.5 -41zM236 505q5 0 8 -3.5t2 -7.5q-29 -219 -71 -496
q-2 -8 -10 -8h-102q-12 0 -10 12q89 421 106 495q2 8 10 8h67zM169 495q-27 -120 -73 -336q-2 -10 -33 -159h102q47 311 71 495h-67z" />
    <glyph glyph-name="questiondown" horiz-adv-x="523" 
d="M426 614q0 -33 -24 -56.5t-57 -23.5q-26 0 -43.5 15t-17.5 42q0 34 23.5 56t57.5 22q26 0 43.5 -14t17.5 -41zM295 602q-5 -25 9 -41.5t41 -16.5q26 0 45.5 16.5t24.5 41.5q4 27 -9.5 42t-40.5 15t-46 -15t-24 -42zM79 108l-11 26q-4 9 5 13q50 24 74 38q2 1 5 1
q6 0 9 -5q24 -48 45.5 -68t62.5 -20q54 0 94 25.5t40 72.5q0 36 -38 84q-3 4 -11 13t-11 13q-44 52 -54.5 83t-10.5 102q0 10 10 10q48 2 70 4q8 0 10 -6q43 -106 83 -156q21 -25 31.5 -40t20.5 -40.5t10 -52.5q0 -94 -78 -154.5t-172 -60.5q-139 0 -184 118zM263 0
q88 0 155.5 50.5t81.5 125.5q6 35 -4 67.5t-19.5 46t-33.5 42.5q-41 49 -84 158l-41 -3q-3 0 -15 -0.5t-15 -0.5q0 -69 9.5 -98.5t53.5 -80.5q24 -28 34.5 -42.5t20.5 -40t6 -49.5q-8 -42 -46 -67t-97 -25q-40 0 -64.5 19t-52.5 74q-40 -22 -75 -38q7 -14 11 -26
q42 -112 175 -112z" />
    <glyph glyph-name="CR" horiz-adv-x="282" 
 />
    <glyph glyph-name="cent" horiz-adv-x="578" 
d="M552 133q7 -5 2 -14q-36 -51 -91 -86.5t-116 -45.5l-12 -70q-2 -8 -10 -8h-75q-12 0 -10 12l12 68q-78 15 -124 71t-46 136q0 113 73 199.5t184 102.5l15 83q2 8 10 8h77q12 0 10 -12l-14 -78q106 -18 159 -133q4 -7 -4 -13l-69 -39h-2q-2 -1 -3 -1q-6 0 -8 4
q-45 68 -91 82l-54 -307q57 14 118 80q1 3 7 3q2 0 6 -2zM490 165q-71 -76 -137 -86l58 332q32 -6 56 -27t51 -61l69 39q-53 115 -162 128l16 89h-77l-16 -90q-98 -12 -166 -79.5t-86 -165.5q-17 -96 30 -164.5t138 -82.5l-14 -78h75l13 77q117 16 202 121l6 8zM179 245
q11 63 53 107.5t102 55.5l-56 -329q-54 11 -82 57.5t-17 108.5zM322 395q-60 -16 -98 -67.5t-38 -114.5q0 -43 22.5 -76.5t61.5 -45.5z" />
    <glyph glyph-name="sterling" horiz-adv-x="539" 
d="M494 494q0 41 -26.5 65.5t-67.5 24.5q-51 0 -90 -34t-48 -85l-20 -108h206q8 0 10 -5t-2 -11l-55 -69q-4 -4 -8 -4h-167l-32 -189h255l19 109q2 8 10 8h73q12 0 10 -12l-33 -186q-2 -8 -10 -8h-497q-12 0 -10 12l10 57q2 6 8 8l63 10l35 191h-47q-12 0 -10 12l12 69
q2 8 10 8h51l20 117q16 92 86 148.5t164 56.5q79 0 127.5 -46t48.5 -125q0 -15 -4 -43q-2 -8 -10 -8h-73q-10 0 -10 11q2 18 2 26zM502 467h73q15 89 -30 145.5t-132 56.5q-91 0 -158 -55t-82 -142l-22 -125h-59l-12 -69h59l-38 -210l-70 -11l-10 -57h497l33 186h-73
l-21 -117h-275l36 209h175l55 69h-218l22 120q9 54 51 90.5t97 36.5q51 0 80.5 -33.5t22.5 -83.5z" />
    <glyph glyph-name="greaterequal" horiz-adv-x="312" 
d="M5 210q-2 -1 -6 -1q-9 0 -8 12l16 93q3 7 7 7l273 103l-235 97q-6 2 -6 11l16 94q2 8 9 8q3 0 5 -1l360 -162q8 -3 6 -11l-13 -77q0 -2 -2.5 -4.5t-3.5 -2.5zM419 385l13 77l-360 162l-16 -94l258 -107l-297 -111l-16 -93z" />
    <glyph glyph-name="lessequal" horiz-adv-x="312" 
d="M454 528q0 -2 -3 -4.5t-4 -2.5l-272 -99l235 -101q8 -3 6 -11l-17 -93q-2 -8 -9 -8q-4 0 -5 1l-359 166q-6 2 -6 11l14 77q4 7 6 7l417 162q2 1 6 1q9 0 8 -12zM461 624l-417 -162l-14 -77l359 -166l17 93l-258 111l296 107z" />
    <glyph glyph-name="NULL" horiz-adv-x="282" 
 />
    <glyph glyph-name="_FSHallmark" horiz-adv-x="754" 
d="M701 603v-74h-630v74h630zM619 388q0 14 -16.5 27t-38.5 13q-20 0 -36 -9.5t-16 -21.5q0 -17 9 -26.5t39 -17.5l27 -6q27 -6 37.5 -9t28.5 -9.5t25.5 -13.5t14 -18.5t7.5 -27.5q1 -42 -36.5 -68t-98.5 -26q-68 0 -103.5 34t-35.5 79l73 -1q0 -8 4 -18t21 -21.5t44 -11.5
q24 0 39.5 8.5t15.5 19.5q0 22 -60 36q-56 14 -92 33q-38 20 -38 63q0 41 37.5 67t94.5 26q60 0 95 -30.5t35 -70.5h-76zM305 347v-70h-151v-102h-83v313h265v-71h-182v-70h151zM329 213q0 15 11 26t27 11q17 0 29.5 -11t12.5 -26q0 -16 -12 -26t-30 -10q-16 0 -27 10.5
t-11 25.5zM700 136v-75h-631v75h631z" />
    <glyph glyph-name="_Fontastica" horiz-adv-x="754" 
d="M513 260h-295v-147h-87q-1 1 -1 4v510h382v-78h-294v-210h295v-79zM569 402h-296v79h296v146h87v-513h-383v78h296v210zM569 63q-11 -7 -1 -19q3 -4 9 -4q7 0 14 4l4 -4q-6 -9 -18 -9q-8 0 -16 5q-6 6 -6.5 16t5.5 17q8 8 17 8q10 0 18 -8l-4 -6q-10 5 -12 5h-2
q-6 -2 -8 -5zM142 32h-11v44h32v-8h-21v-12h20v-7h-20v-17zM203 76q15 0 22 -12q7 -8 1.5 -20t-18.5 -13q-4 -2 -6 -2q-6 0 -9 3q-14 6 -14 19q0 11 7 18t17 7zM279 76h9v-44q-2 0 -3.5 -0.5t-2.5 -0.5q-3 0 -7 5q-7 10 -17 23v-27h-10v44q10 0 13 -6l9 -12l9 -12v30z
M321 68h-14v8h37v-8h-14v-36h-9v36zM444 55q9 -1 9 -10q2 -8 -8 -13q-2 -1 -8 -1q-14 0 -21 7l3 6l14 -4h6l2 1q1 0 1 1q0 4 -2 5q-1 2 -8 4l-2 1q-3 1 -4 1q-7 2 -7 10q-1 7 6 11q3 2 10 2q11 0 18 -4l-4 -8q-2 1 -5.5 2.5t-4.5 1.5h-6q-3 0 -3 -3q-2 -2 3 -6q6 -1 11 -4z
M482 68h-14v8h38v-8h-14v-36h-10v36zM535 32h-11v44h11v-44zM640 76q2 -4 8 -19.5t11 -24.5h-10l-4 9h-21l-4 -9h-10q10 20 18 44h12zM382 74q9 -17 18 -42h-10l-3 9h-20q-2 -7 -4 -9h-9q5 13 18 42h10zM216 54q0 14 -12 14q-1 0 -2.5 -0.5t-2.5 -0.5q-15 -7 -9 -18
q3 -10 13 -10q3 0 4 1q9 2 9 13v1zM369 49h15q-6 9 -7 16zM627 49h14q-2 2 -3.5 8t-3.5 8z" />
    </font>
</defs>
</svg>
