<?xml version="1.0" standalone="no"?>
<!DOCTYPE svg PUBLIC "-//W3C//DTD SVG 1.1//EN" "http://www.w3.org/Graphics/SVG/1.1/DTD/svg11.dtd" >
<svg xmlns="http://www.w3.org/2000/svg" xmlns:xlink="http://www.w3.org/1999/xlink" version="1.1">
<metadata>
Created by FontForge 20170731 at Wed Aug  8 19:53:33 2018
 By Aleksey,,,
Copyright (c) 2018 by Fontastica. All rights reserved.
</metadata>
<defs>
<font id="VisiaPro-BoldItalic" horiz-adv-x="582" >
  <font-face 
    font-family="Visia Pro Bold"
    font-weight="700"
    font-style="italic"
    font-stretch="normal"
    units-per-em="1000"
    panose-1="0 0 8 0 0 0 0 0 0 0"
    ascent="800"
    descent="-200"
    x-height="492"
    cap-height="674"
    bbox="-58 -188 1081 857"
    underline-thickness="50"
    underline-position="-225"
    slope="-10"
    unicode-range="U+0020-2122"
  />
<missing-glyph horiz-adv-x="661" 
 />
    <glyph glyph-name=".notdef" horiz-adv-x="661" 
 />
    <glyph glyph-name=".null" horiz-adv-x="0" 
 />
    <glyph glyph-name="nonmarkingreturn" horiz-adv-x="333" 
 />
    <glyph glyph-name="space" unicode=" " horiz-adv-x="295" 
 />
    <glyph glyph-name="exclam" unicode="!" horiz-adv-x="225" 
d="M112 174q15 118 45 327q21 150 22 158h102q-35 -173 -103 -495h-67zM63 58q4 26 24 42.5t47 16.5t40 -16t8 -43q-5 -26 -23.5 -42t-45.5 -16t-41 16t-9 42z" />
    <glyph glyph-name="numbersign" unicode="#" horiz-adv-x="625" 
d="M651 449l-27 -75l-107 2l-32 -90h110l-27 -76h-108l-59 -163l-79 2l56 159h-100l-58 -161l-74 2l52 160h-108l25 77l112 3l30 84l-112 1l28 75h108l57 160h78l-54 -162h96l59 160h78l-55 -158h111zM337 374l-31 -85h99l30 85h-98z" />
    <glyph glyph-name="dollar" unicode="$" 
d="M160 212l3 -9q20 -53 44.5 -82.5t63.5 -40.5l41 226q-36 12 -59.5 24t-49 32t-35.5 49.5t-3 67.5q13 70 71 119.5t138 59.5l16 87h80l-15 -89q95 -21 150 -141l-73 -37q-17 28 -27.5 43t-28 30.5t-36.5 22.5l-36 -209q38 -12 62.5 -23.5t52.5 -31.5t39 -50.5t4 -69.5
q-13 -73 -75.5 -126t-147.5 -62l-16 -93h-82l17 93q-131 14 -174 173zM251 484q-6 -34 15.5 -55t60.5 -37l33 185q-44 -8 -73.5 -33t-35.5 -60zM353 79q46 12 80.5 40t41.5 63q6 35 -16.5 56.5t-70.5 40.5z" />
    <glyph glyph-name="percent" unicode="%" horiz-adv-x="800" 
d="M327 639q69 0 93 -49t12 -121q-15 -82 -59.5 -125.5t-104.5 -43.5t-89 46t-16 122q13 77 58.5 124t105.5 47zM777 627l-541 -617h-79l543 617h77zM279 364q32 0 55.5 28t31.5 76q8 49 -5.5 78t-45.5 29q-29 0 -54.5 -30.5t-33.5 -76.5t7 -75t45 -29zM651 339
q47 0 74.5 -25t31.5 -62.5t-1 -80.5q-15 -82 -59.5 -126.5t-104.5 -44.5q-61 0 -90 46t-16 123t58.5 123.5t106.5 46.5zM603 65q31 0 54.5 28.5t31.5 75.5q8 48 -5.5 77.5t-45.5 29.5q-29 0 -54 -30.5t-33 -76.5t7 -75t45 -29z" />
    <glyph glyph-name="ampersand" unicode="&#x26;" horiz-adv-x="670" 
d="M628 60l-12 -7q-8 -4 -17 -10l-52 -31l-60 60q-99 -72 -221 -72q-92 0 -142.5 48t-39.5 128l1 7q8 47 36 86.5t86 83.5l-3 5q-19 33 -25.5 57t-0.5 57q14 76 76.5 129.5t142.5 57.5q83 0 126.5 -48t28.5 -131q-10 -59 -49 -104.5t-106 -66.5q47 -53 94 -103q22 51 49 107
l70 -22q-18 -64 -60 -147zM384 574q-42 -2 -77.5 -30t-42.5 -68q-7 -42 19.5 -73t68.5 -32q37 3 70.5 36t41.5 75l1 6q5 39 -17.5 62t-63.5 24zM172 188q-4 -48 25.5 -76t82.5 -28q74 0 151 49q-19 22 -114 124q-12 12 -42 44q-53 -32 -75.5 -55t-26.5 -51q-1 -2 -1 -7z" />
    <glyph glyph-name="parenleft" unicode="(" horiz-adv-x="291" 
d="M361 731q-79 -135 -116 -222.5t-52 -173.5q-36 -197 29 -425h-81q-24 65 -35 187.5t5 235.5q15 87 69 214t108 198h81z" />
    <glyph glyph-name="parenright" unicode=")" horiz-adv-x="291" 
d="M272 740q28 -67 36 -199t-7 -211q-17 -98 -74 -226.5t-104 -193.5h-82q144 224 180 425q15 87 7.5 176.5t-39.5 233.5h81z" />
    <glyph glyph-name="asterisk" unicode="*" horiz-adv-x="372" 
d="M341 531l-8 16q25 -54 39 -77l-71 -35q-16 31 -29 62q-19 -27 -49 -62q-16 10 -32 18q-1 1 -7 4t-10.5 6l-7.5 5q7 9 48 61h-68l12 69h68l-27 60l67 35l30 -64l50 64l58 -35q-25 -32 -48 -57h68q0 -3 -4.5 -29.5t-6.5 -40.5h-72z" />
    <glyph glyph-name="plus" unicode="+" horiz-adv-x="507" 
d="M305 119q-30 0 -68 -2l28 160h-163l14 77h159l28 160h80l-28 -159h162l-14 -77h-160l-28 -159h-10z" />
    <glyph glyph-name="comma" unicode="," horiz-adv-x="226" 
d="M105 122q24 6 36 10q5 1 27.5 6.5t30.5 7.5l-31 -70q-43 -100 -70 -151q-27 -11 -83 -29q50 152 84 225z" />
    <glyph glyph-name="hyphen" unicode="-" horiz-adv-x="453" 
d="M448 279h-346l13 74h346z" />
    <glyph glyph-name="period" unicode="." horiz-adv-x="225" 
d="M68 87q5 27 24.5 42.5t46.5 15.5t40 -15.5t8 -42.5q-4 -24 -23 -41t-45 -17q-27 0 -41 16.5t-10 41.5z" />
    <glyph glyph-name="slash" unicode="/" horiz-adv-x="548" 
d="M117 -94h-81l508 839h82z" />
    <glyph glyph-name="zero" unicode="0" horiz-adv-x="619" 
d="M427 659q66 0 112.5 -27.5t66.5 -73t26 -104t-7 -119.5l-1 -5q-30 -158 -115 -244.5t-198 -86.5q-116 0 -171 90t-29 239t113 240t203 91zM325 82q77 0 134.5 66.5t76.5 178.5q20 114 -14 182.5t-112 68.5q-74 0 -135 -71t-80 -179q-19 -109 17.5 -177.5t112.5 -68.5z
" />
    <glyph glyph-name="one" unicode="1" horiz-adv-x="280" 
d="M152 597q64 26 117 62h76l-116 -659h-83l99 564l-106 -60z" />
    <glyph glyph-name="two" unicode="2" horiz-adv-x="535" 
d="M81 91q92 37 232.5 163.5t159.5 213.5q9 52 -19 81t-81 29q-51 0 -87.5 -23.5t-70.5 -75.5l-70 43q55 70 111.5 103.5t129.5 33.5q44 0 78.5 -13t53.5 -31.5t31 -43t15 -45t2 -38.5q-5 -50 -42 -110t-89 -114.5t-104.5 -99t-98.5 -74.5h263l-16 -90h-422l18 89z" />
    <glyph glyph-name="three" unicode="3" horiz-adv-x="533" 
d="M544 482q-7 -42 -26 -74.5t-66 -63.5l-10 4q93 -42 72 -157q-16 -89 -85.5 -140t-176.5 -51q-66 0 -105 25t-71 92l85 44q22 -42 47 -62.5t67 -20.5q59 0 101.5 31.5t51.5 82.5q9 50 -29 78t-121 28h-69l14 83h57q32 0 56.5 3t51.5 12t44.5 29t23.5 51v1q8 45 -19 72.5
t-81 27.5q-41 0 -71 -17.5t-65 -55.5l-71 39q58 75 107.5 95.5t117.5 20.5q91 0 137.5 -50.5t32.5 -126.5z" />
    <glyph glyph-name="four" unicode="4" horiz-adv-x="629" 
d="M582 659l-79 -449h110l-15 -85h-108l-22 -125h-85l22 125h-330q136 160 221.5 270t191.5 264h94zM415 210l53 300q-112 -166 -227 -300h174z" />
    <glyph glyph-name="five" unicode="5" horiz-adv-x="554" 
d="M302 403q86 0 140 -17t80 -74q25 -51 15 -107q-16 -89 -86.5 -147t-171.5 -58q-78 0 -122.5 33.5t-78.5 109.5l79 42q22 -52 53 -77t82 -26q60 3 104.5 38t54.5 85l1 3q4 38 -12 62.5t-51 34.5t-63 13t-70 3h-115q43 168 73 338h363l-14 -77h-282q-17 -91 -39 -179h60z
" />
    <glyph glyph-name="six" unicode="6" horiz-adv-x="562" 
d="M329 435q17 4 38 4q92 0 144.5 -65t36.5 -156q-17 -95 -91.5 -156.5t-174.5 -61.5q-99 0 -153.5 57.5t-34.5 176.5q3 4 5 15q16 97 329 410h93q-60 -76 -192 -224zM297 82q61 0 107 38t56 99q11 60 -21 98t-94 38t-109 -38t-57 -98q-11 -61 22 -99t96 -38z" />
    <glyph glyph-name="seven" unicode="7" horiz-adv-x="546" 
d="M178 655q70 1 209 1q85 0 221 -2q-182 -313 -383 -651h-94q41 69 123 206t100 168q51 82 119 198h-319l14 80h10z" />
    <glyph glyph-name="eight" unicode="8" horiz-adv-x="558" 
d="M471 347q88 -46 69 -152q-16 -93 -86.5 -146.5t-170.5 -53.5q-101 0 -156 54t-41 138q17 98 119 155q-59 63 -44 149q13 76 82.5 127.5t155.5 51.5q87 0 136.5 -51.5t35.5 -127.5q-7 -42 -26 -75.5t-68 -71.5zM381 585q-54 0 -90.5 -26t-44.5 -71q-8 -48 20.5 -78
t81.5 -30q52 0 90 29t46 75t-20 73.5t-83 27.5zM293 76q62 0 107 31.5t54 82.5q9 49 -24 78.5t-99 29.5q-65 0 -108 -29t-52 -78q-9 -51 25.5 -83t96.5 -32z" />
    <glyph glyph-name="nine" unicode="9" horiz-adv-x="562" 
d="M349 224q-26 -4 -39 -4q-91 0 -143.5 65t-35.5 156q17 95 91 156.5t174 61.5q98 0 153.5 -57.5t34.5 -176.5q-2 -3 -5 -15q-5 -28 -32 -71t-80 -103.5t-80 -90t-83 -88.5q-28 -29 -53 -57h-94q74 94 192 224zM381 578q-61 0 -106.5 -38.5t-56.5 -99.5q-11 -59 21.5 -97
t93.5 -38q63 0 109 38t57 97q11 61 -22 99.5t-96 38.5z" />
    <glyph glyph-name="colon" unicode=":" horiz-adv-x="225" 
d="M134 457q4 25 23.5 41t46.5 16t40 -16t8 -41q-4 -27 -23 -42.5t-45 -15.5q-28 0 -41.5 15.5t-8.5 42.5zM68 87q5 27 24.5 42.5t46.5 15.5t40 -15.5t8 -42.5q-4 -24 -23 -41t-45 -17q-27 0 -41 16.5t-10 41.5z" />
    <glyph glyph-name="semicolon" unicode=";" horiz-adv-x="245" 
d="M153 456q5 25 24.5 41.5t46.5 16.5q25 0 39.5 -16.5t9.5 -41.5q-4 -27 -23.5 -42.5t-46.5 -15.5t-40.5 15.5t-9.5 42.5zM207 119q-55 -127 -91 -199l-80 -19l82 230h95z" />
    <glyph glyph-name="less" unicode="&#x3c;" horiz-adv-x="495" 
d="M515 418l-296 -107l258 -111l-16 -93l-360 166l14 77l417 161z" />
    <glyph glyph-name="greater" unicode="&#x3e;" horiz-adv-x="495" 
d="M72 107l16 93l297 111l-258 107l16 93l360 -161l-13 -77z" />
    <glyph glyph-name="question" unicode="?" horiz-adv-x="523" 
d="M379 659q88 0 138 -50t37 -126q-5 -26 -15.5 -49t-29.5 -44t-30.5 -31.5t-35.5 -30.5q-64 -54 -141 -159q-16 3 -40 3q-17 0 -29 2q30 76 47.5 102t78.5 76q33 27 49.5 42t35 41t22.5 49q8 42 -21.5 67.5t-88.5 25.5q-41 0 -72 -19t-77 -74q-25 17 -62 38q55 73 104 105
t130 32zM199 58q5 25 24 41t46 16q26 0 40.5 -16t9.5 -41q-4 -27 -23.5 -42.5t-46.5 -15.5t-40.5 15.5t-9.5 42.5z" />
    <glyph glyph-name="at" unicode="@" horiz-adv-x="775" 
d="M396 666q140 0 233 -92t93 -238q0 -86 -38.5 -137t-110.5 -51q-34 0 -53 12t-39 39l-8 9q-51 -33 -103 -33q-65 0 -111 50.5t-46 116.5q0 65 46.5 114t106.5 49q59 0 106 -32v24h77v-54q0 -48 -1 -72q-2 -19 -2 -58q0 -105 44 -105q32 0 56 41.5t24 99.5q0 106 -81 183
t-197 77q-117 0 -197.5 -80t-80.5 -197q0 -118 82.5 -197t208.5 -79q24 0 74 6q4 0 11.5 0.5t11.5 0.5q42 4 66 4h60q-101 -71 -200 -71q-165 0 -270 94.5t-105 240.5q0 143 99 239t244 96zM380 242q42 0 70.5 28t28.5 69q0 42 -29 70.5t-71 28.5q-40 0 -67.5 -28.5
t-27.5 -69.5t27.5 -69.5t68.5 -28.5z" />
    <glyph glyph-name="A" unicode="A" horiz-adv-x="624" 
d="M67 0h-97l374 674h88q23 -101 89 -427l50 -247h-92l-43 210h-258zM420 296l-52 254q-20 -38 -47 -85q-42 -74 -94 -169h193z" />
    <glyph glyph-name="B" unicode="B" horiz-adv-x="595" 
d="M511 342q37 -32 55.5 -66t9.5 -84q-21 -114 -104 -167q-56 -25 -109 -25h-310l119 674h236q11 1 32 1q99 0 130 -25q74 -60 58 -159q-8 -47 -30 -84.5t-77 -72.5zM539 488q7 41 -12 71.5t-64 30.5l-222 1l-38 -216h129q29 0 45.5 0.5t42.5 3.5t42 10.5t33.5 19.5t28 32
t15.5 47zM189 291l-38 -210l128 -2h30q5 0 14.5 -0.5t14.5 -0.5q64 0 98 22t45 81q7 43 -13.5 74t-68.5 36h-210z" />
    <glyph glyph-name="C" unicode="C" horiz-adv-x="760" 
d="M410 81q116 0 264 127q28 -14 61 -36q-54 -78 -144.5 -125t-187.5 -47q-149 0 -232.5 96.5t-58.5 237.5q26 145 147 242.5t275 97.5q88 0 151 -39.5t111 -126.5q-5 -3 -21.5 -12.5t-22.5 -13.5q-21 -11 -33 -18q-48 71 -92.5 99.5t-106.5 28.5q-119 0 -210 -72.5
t-110 -180.5t42.5 -183t167.5 -75z" />
    <glyph glyph-name="D" unicode="D" horiz-adv-x="690" 
d="M402 674q70 0 126 -19.5t90 -52.5t56 -77t25 -92.5t-4 -99.5q-12 -70 -40.5 -125.5t-65 -91t-84 -61t-92 -38t-94.5 -17.5h-266q25 133 75 424q32 182 46 250h228zM155 81l114 -2q130 0 225 67.5t114 178.5q17 97 -33 174.5t-144 83.5q-24 3 -187 4z" />
    <glyph glyph-name="E" unicode="E" horiz-adv-x="546" 
d="M172 674h439l-13 -79h-354l-37 -210h354l-15 -82l-353 -1l-39 -224h352l-13 -78h-440z" />
    <glyph glyph-name="F" unicode="F" horiz-adv-x="546" 
d="M611 674l-13 -79h-354l-37 -210h354l-15 -82l-353 -1l-53 -302h-87l119 674h439z" />
    <glyph glyph-name="G" unicode="G" horiz-adv-x="789" 
d="M452 379h228q22 0 64 -0.5t59 -0.5l-3 -18q-24 -138 -116 -229.5t-234 -124.5q-28 -6 -64 -6q-138 0 -218 98.5t-55 238.5q25 143 142.5 240t268.5 97q96 0 157 -37t107 -115l8 -14q-32 -19 -77 -41q-52 72 -94.5 98.5t-102.5 26.5q-122 0 -212.5 -73t-110.5 -184
q-19 -106 40 -179t163 -73q112 0 205 80q55 47 92 138h-124q-46 -1 -147 -1l14 79h10z" />
    <glyph glyph-name="H" unicode="H" horiz-adv-x="608" 
d="M135 0h-82l119 674h82l-51 -290h337l51 290h83l-119 -674h-81l53 303h-338z" />
    <glyph glyph-name="I" unicode="I" horiz-adv-x="189" 
d="M136 0h-84l119 674h84z" />
    <glyph glyph-name="J" unicode="J" horiz-adv-x="543" 
d="M555 375q-1 -8 -5 -30l-6 -33q-6 -36 -8 -53q-14 -80 -39 -131t-76 -83q-72 -45 -164 -45q-65 0 -105.5 23t-78.5 87l73 56q32 -50 56 -67t77 -17q71 0 111 41.5t58 142.5l22 130q31 176 47 278h90z" />
    <glyph glyph-name="K" unicode="K" horiz-adv-x="593" 
d="M271 348q63 -82 115 -151q93 -123 154 -197q-96 0 -119 -1q-105 141 -232 290l-51 -289h-85l119 674h84q-6 -40 -28 -160q-4 -26 -10.5 -63t-10.5 -60q54 50 227 196q16 13 103 87h117z" />
    <glyph glyph-name="L" unicode="L" horiz-adv-x="527" 
d="M484 67q-1 -5 -2.5 -14.5t-2.5 -14.5q-2 -20 -6 -38h-420l119 674h84l-105 -597h335z" />
    <glyph glyph-name="M" unicode="M" horiz-adv-x="724" 
d="M610 131q8 50 23 129l21 121q17 92 25 148q-29 -34 -166 -209q-39 -51 -124 -159l-51 119q-75 177 -108 246q-46 -255 -70 -400l-23 -127h-84q21 125 42 234q52 294 77 441h94q67 -146 151 -348q31 38 135 170q6 8 60 76l81 102h96l-118 -674h-85z" />
    <glyph glyph-name="N" unicode="N" horiz-adv-x="613" 
d="M677 664q-31 -166 -118 -664h-70q-44 81 -130 253q-108 213 -132 256l-90 -509h-82q28 167 59 337q50 291 58 337h72q180 -352 256 -509l90 509h89z" />
    <glyph glyph-name="O" unicode="O" horiz-adv-x="803" 
d="M522 674q145 0 229 -97t59 -238q-25 -140 -143.5 -239.5t-262.5 -99.5q-146 0 -230.5 100t-60.5 239q25 140 144 237.5t265 97.5zM415 79q108 0 199 78.5t109 184.5q19 105 -43.5 177.5t-172.5 72.5q-111 0 -200 -72.5t-108 -178.5q-18 -106 45.5 -184t170.5 -78z" />
    <glyph glyph-name="P" unicode="P" horiz-adv-x="586" 
d="M178 244l-41 -244h-84l119 674l292 2q89 0 128 -61t23 -152q-16 -90 -77 -153t-152 -64zM241 591l-45 -259h120q14 0 21 -1q90 0 133.5 24.5t58.5 107.5q10 58 -11.5 93t-68.5 35h-208z" />
    <glyph glyph-name="Q" unicode="Q" horiz-adv-x="807" 
d="M526 674q144 0 227 -100t58 -245q-10 -60 -38 -108t-93 -121l55 -69q-15 -11 -31 -25q-17 -16 -43 -35l-60 75q-71 -30 -112.5 -41t-84.5 -11q-149 0 -233.5 94.5t-59.5 238.5q25 145 146.5 246t268.5 101zM725 325q20 113 -43.5 190t-172.5 77t-200.5 -77t-111.5 -185
q-19 -105 44.5 -178t168.5 -73q66 0 139 32q-37 49 -115 145q35 31 75 60l119 -153q81 72 97 162z" />
    <glyph glyph-name="R" unicode="R" horiz-adv-x="608" 
d="M459 0l-77 245h-204l-41 -245h-84l119 674h292q89 0 128 -60t23 -151q-12 -67 -49 -121t-94 -79l82 -263h-95zM529 463q10 61 -11 97t-68 36h-208l-46 -264h120q15 0 23 -1q45 0 72.5 4t54 17t41 40t22.5 71z" />
    <glyph glyph-name="S" unicode="S" horiz-adv-x="592" 
d="M255 499q-7 -43 36 -72q24 -17 101 -43q35 -11 57 -19.5t51.5 -25.5t45 -35.5t24 -48t2.5 -64.5q-15 -81 -86.5 -136t-168.5 -55h-26q-158 0 -207 178l77 36q26 -69 60.5 -104.5t96.5 -35.5q57 0 107.5 32.5t57.5 75.5q3 19 -3.5 35.5t-16.5 27.5t-33.5 23t-38.5 18
t-46 18q-71 24 -109 48q-84 50 -68 141q14 79 83 130t162 51q71 0 119.5 -34t84.5 -111l-73 -38q-18 27 -23 35t-20.5 26.5t-26.5 24.5t-30 12t-42 6q-57 0 -98 -27.5t-49 -68.5z" />
    <glyph glyph-name="T" unicode="T" horiz-adv-x="595" 
d="M158 596l14 78h486l-11 -78h-203l-103 -596h-85l105 596h-203z" />
    <glyph glyph-name="U" unicode="U" horiz-adv-x="616" 
d="M678 664q-11 -54 -30 -172q-3 -16 -11 -62.5t-13 -73.5q-14 -82 -19 -103q-26 -113 -110 -183t-189 -70q-97 0 -159 58.5t-53 154.5q1 30 15 104l33 183q22 116 32 174h83l-53 -294q0 -3 -2 -10t-2 -11l-9 -46q-7 -38 -9 -66.5t2.5 -61t18 -53t42.5 -34t73 -13.5
q81 0 133 46.5t71 139.5l71 403h87z" />
    <glyph glyph-name="V" unicode="V" horiz-adv-x="686" 
d="M366 128q156 284 252 469l41 77h92q-232 -450 -371 -674h-78l-20 105q-52 259 -110 569h88q36 -137 79 -394q13 -80 27 -152z" />
    <glyph glyph-name="W" unicode="W" horiz-adv-x="1016" 
d="M742 138q125 258 199 429q34 79 50 107h90q-145 -317 -315 -674h-89q-23 117 -60 401q-5 45 -16 126q-74 -150 -164 -336l-93 -191h-88l-26 161q-42 359 -58 513h91q6 -40 28 -239q19 -191 33 -298q59 121 106 222q102 212 155 315h85q24 -125 49 -351q3 -26 7 -61t8 -64
t8 -60zM727 107l9 19z" />
    <glyph glyph-name="X" unicode="X" horiz-adv-x="649" 
d="M437 353q46 -95 115 -256q3 -7 43 -97h-98q-11 22 -14 29q-66 145 -113 235q-44 -51 -122 -149q-71 -90 -94 -115h-101l280 356l-20 49q-8 20 -54 117q-45 89 -70 152h95q10 -17 43 -90q50 -108 72 -153l210 243h92q-54 -69 -151 -184q-81 -98 -113 -137z" />
    <glyph glyph-name="Y" unicode="Y" horiz-adv-x="678" 
d="M269 674l136 -306l243 306h96l-314 -395l-49 -279h-85l49 278l-173 396h97z" />
    <glyph glyph-name="Z" unicode="Z" horiz-adv-x="577" 
d="M179 674h464l-425 -595h306l-14 -79h-457l435 594h-323z" />
    <glyph glyph-name="bracketleft" unicode="[" horiz-adv-x="303" 
d="M380 740l-13 -76h-116l-120 -679h116l-12 -71h-197l146 826h196z" />
    <glyph glyph-name="bracketright" unicode="]" horiz-adv-x="303" 
d="M235 -87h-197l12 72h116l120 679h-116l14 76h196z" />
    <glyph glyph-name="asciicircum" unicode="^" horiz-adv-x="532" 
d="M459 361l-96 210l-162 -210h-84l231 297h60l135 -297h-84z" />
    <glyph glyph-name="underscore" unicode="_" horiz-adv-x="527" 
d="M32 -121l13 73h419l-12 -73h-420z" />
    <glyph glyph-name="a" unicode="a" horiz-adv-x="611" 
d="M561 480h79l-82 -480h-81l10 61q-84 -67 -205 -67q-91 0 -147 76t-39 175t100.5 173t177.5 74q52 0 93.5 -13t83.5 -57zM318 72q72 0 130.5 50t71.5 122q12 71 -29 121t-112 50t-129.5 -51t-71.5 -125q-13 -70 28 -118.5t112 -48.5z" />
    <glyph glyph-name="b" unicode="b" horiz-adv-x="607" 
d="M384 490q109 0 170 -71t43 -174t-102.5 -178t-182.5 -75q-108 0 -171 75l-12 -67h-76l116 659h76l-41 -236q73 67 180 67zM313 72q71 0 130 50t72 121q12 69 -30.5 119t-111.5 50t-127.5 -50.5t-71.5 -120.5q-12 -70 28.5 -119.5t110.5 -49.5z" />
    <glyph glyph-name="c" unicode="c" horiz-adv-x="578" 
d="M540 117q-100 -123 -235 -123q-106 0 -167 71.5t-42 178.5t100.5 177.5t192.5 70.5q138 0 198 -130l-69 -39q-31 47 -62 68.5t-79 21.5q-74 0 -129.5 -47.5t-68.5 -120.5q-13 -70 26.5 -120t105.5 -50q95 0 179 90l56 -40z" />
    <glyph glyph-name="d" unicode="d" horiz-adv-x="607" 
d="M395 492q109 0 158 -68l41 235h76l-116 -659h-76l12 68q-90 -74 -196 -74q-98 0 -157 74.5t-41 177.5q19 103 105 174.5t194 71.5zM319 73q70 0 128 50t71 120q12 69 -29 119.5t-110 50.5t-128.5 -50t-71.5 -119q-13 -71 28 -121t112 -50z" />
    <glyph glyph-name="e" unicode="e" horiz-adv-x="596" 
d="M577 202h-403q8 -129 141 -129q51 0 90 17.5t82 59.5l56 -37q-43 -56 -105.5 -87.5t-130.5 -31.5q-110 0 -170 70.5t-41 178.5q19 105 103 177t189 72q107 0 161 -73.5t34 -190.5zM375 411q-125 0 -184 -128h313q-4 128 -129 128z" />
    <glyph glyph-name="f" unicode="f" horiz-adv-x="392" 
d="M202 415h-76l14 77h76l1 8q15 84 47 121t113 37l58 -1l-14 -76h-52q-39 0 -54 -21t-21 -62q-1 -2 -1 -6h132l-14 -77h-130l-73 -415h-79z" />
    <glyph glyph-name="g" unicode="g" horiz-adv-x="610" 
d="M639 480l-76 -430q-27 -125 -99.5 -181.5t-198.5 -56.5q-65 0 -110 27.5t-86 94.5l77 42q19 -31 38 -49.5t41 -26t35.5 -9t38.5 -1.5q78 0 129 48q40 39 56 123q-69 -67 -180 -67q-107 0 -167 70t-42 171l3 22q17 93 101.5 164.5t178.5 71.5q52 0 93 -14t77 -58l11 59h80
zM318 75q70 0 127.5 48t69.5 118q13 71 -28 121t-112 50q-70 0 -128 -49t-70 -119q-13 -71 28 -120t113 -49z" />
    <glyph glyph-name="h" unicode="h" horiz-adv-x="514" 
d="M486 448q45 -52 18 -196q-3 -20 -7 -42.5t-9 -50t-8 -42.5q-13 -61 -22 -117h-76l33 185l6 27q5 28 7 38q6 42 6 78t-23.5 60t-70.5 25q-39 -1 -69.5 -18t-48 -39t-31.5 -59.5t-19.5 -63.5t-12.5 -68q-4 -19 -5 -31l-24 -134h-77l116 659h77l-22 -127q-1 -4 -3.5 -20
t-4.5 -24q-1 -14 -5 -33v-1v-3q53 42 147 42q83 0 128 -45z" />
    <glyph glyph-name="i" unicode="i" horiz-adv-x="215" 
d="M160 606q4 23 21 38t42 15q26 0 38.5 -14.5t7.5 -38.5q-4 -24 -21.5 -38.5t-43.5 -14.5q-24 0 -36 14.5t-8 38.5zM229 480l-85 -480h-76l85 480h76z" />
    <glyph glyph-name="j" unicode="j" horiz-adv-x="292" 
d="M236 606q4 24 22 38.5t42 14.5q25 0 37.5 -14.5t7.5 -38.5q-4 -24 -21.5 -38.5t-42.5 -14.5q-24 0 -36.5 14.5t-8.5 38.5zM220 -3q-7 -39 -13 -62.5t-17.5 -49.5t-28 -39.5t-43 -22.5t-62.5 -9h-36l14 79q9 0 16 -0.5t8 -0.5q4 -1 12 -1q27 0 43 12q19 16 31 95
q5 24 8 44q10 50 18 104l59 334h77z" />
    <glyph glyph-name="k" unicode="k" horiz-adv-x="512" 
d="M169 659h76l-66 -376l251 209h101l-298 -246l225 -246h-104l-190 204l-36 -204h-75z" />
    <glyph glyph-name="l" unicode="l" horiz-adv-x="181" 
d="M245 659l-116 -659h-75l114 659h77z" />
    <glyph glyph-name="m" unicode="m" horiz-adv-x="783" 
d="M631 492q46 0 86 -18.5t58 -53.5q22 -50 -1 -175l-6 -33q-1 -5 -3 -16t-3 -16l-34 -180h-77l48 275q24 138 -80 138q-30 0 -54 -12t-37.5 -26.5t-25 -39.5t-15 -37t-8.5 -33q0 -2 -4 -17l-44 -248h-83l47 252q26 161 -74 161q-38 0 -66 -17t-45 -50.5t-26 -65t-17 -77.5
l-6 -37q-2 -12 -6 -34l-23 -132h-79l89 492h77l-7 -35q19 16 41 24.5t37 9.5t44 1q43 0 74.5 -14t56.5 -56q34 40 72.5 55t93.5 15z" />
    <glyph glyph-name="n" unicode="n" horiz-adv-x="516" 
d="M354 492q74 0 119 -40.5t45 -110.5q-1 -31 -11 -91l-44 -250h-79l37 210q4 21 5 29q8 51 7.5 90t-22.5 62.5t-67 23.5q-50 0 -83.5 -15t-52 -45.5t-27 -63t-14.5 -81.5l-37 -210h-77l89 492h77l-9 -46q54 46 144 46z" />
    <glyph glyph-name="o" unicode="o" horiz-adv-x="611" 
d="M395 492q104 0 164 -71t42 -173q-18 -103 -103.5 -175.5t-191.5 -72.5q-105 0 -166 73t-43 175q18 101 105.5 172.5t192.5 71.5zM320 77q72 0 130 51t71 120q12 68 -30 117.5t-112 49.5q-71 0 -129 -49t-71 -118q-12 -71 29 -121t112 -50z" />
    <glyph glyph-name="p" unicode="p" horiz-adv-x="606" 
d="M298 0q-107 0 -157 68l-45 -255h-76l118 667h76l-10 -55q82 68 185 68q99 0 161.5 -75t45.5 -174q-18 -103 -103.5 -173.5t-194.5 -70.5zM373 415q-70 0 -128.5 -49.5t-71.5 -119.5q-12 -69 29 -118.5t111 -49.5t129 49.5t71 118.5q12 68 -29 118.5t-111 50.5z" />
    <glyph glyph-name="q" unicode="q" horiz-adv-x="606" 
d="M307 -6q-109 0 -169.5 71.5t-42.5 174.5q18 102 103 177t184 75q106 0 168 -75l11 63h76l-117 -667h-76l44 249q-74 -68 -181 -68zM378 412q-70 0 -128.5 -50t-70.5 -119q-13 -71 28.5 -121t111.5 -50t128 50.5t71 121.5q12 70 -29 119t-111 49z" />
    <glyph glyph-name="r" unicode="r" horiz-adv-x="354" 
d="M192 433q38 37 85 48t111 11l-15 -85q-20 5 -39 5q-52 0 -94 -22t-50 -66q-3 -20 -9 -47l-18 -102l-31 -175h-79l85 480h76l-5 -30z" />
    <glyph glyph-name="s" unicode="s" horiz-adv-x="477" 
d="M220 352q-2 -12 2.5 -22t12 -16.5t23 -13t26 -10t31.5 -9.5q37 -11 55 -18t43.5 -22.5t33.5 -39t2 -56.5q-11 -65 -67.5 -105t-140.5 -40q-58 0 -96 24t-72 89l74 44q23 -44 45 -60.5t66 -16.5q46 0 75 16.5t34 43.5q3 15 -3.5 26t-23 19.5t-30.5 13.5t-40 12
q-29 8 -44 13.5t-38 17t-34 24t-17.5 33t-1.5 46.5q11 65 65 106t133 41q48 0 81 -20.5t75 -80.5l-72 -44q-20 26 -29.5 37t-27.5 20t-42 9q-39 0 -66.5 -16.5t-31.5 -44.5z" />
    <glyph glyph-name="t" unicode="t" horiz-adv-x="416" 
d="M263 176q-11 -49 -1 -74t47 -25q24 0 69 12l-13 -79q-12 -3 -22 -3q-40 -7 -60 -7q-54 0 -81 24t-28 62.5t6 87.5l42 239h-96l14 79h96l21 119h82l-21 -119h132l-14 -79h-131z" />
    <glyph glyph-name="u" unicode="u" horiz-adv-x="516" 
d="M246 -6q-72 0 -118 42t-45 111q1 36 12 90l45 255h77l-38 -213l-6 -31q-14 -84 3 -130t81 -46q89 0 124.5 45t49.5 137q2 16 4 24l37 214h77l-87 -492h-79l9 42q-56 -48 -146 -48z" />
    <glyph glyph-name="v" unicode="v" 
d="M308 108l224 384h84l-286 -492h-83l-107 492h87z" />
    <glyph glyph-name="w" unicode="w" horiz-adv-x="783" 
d="M202 0l-62 492h86l38 -360l181 360h72l49 -359l169 359h82l-238 -492h-73l-54 342l-171 -342h-79z" />
    <glyph glyph-name="x" unicode="x" horiz-adv-x="567" 
d="M601 492l-227 -248l140 -244h-91l-107 181l-170 -181h-93l227 244l-140 248h91l106 -189l173 189h91z" />
    <glyph glyph-name="y" unicode="y" 
d="M409 110q-84 -170 -169 -246q-59 -51 -147 -51l13 72q58 10 100 44t49 78q4 20 -13 77q-16 52 -21 75l-81 333h84l98 -381q53 94 126 231q51 96 82 150h86z" />
    <glyph glyph-name="z" unicode="z" horiz-adv-x="500" 
d="M169 492h365l-323 -415h242l-14 -77h-386l329 413h-227z" />
    <glyph glyph-name="braceleft" unicode="{" horiz-adv-x="386" 
d="M270 227q-16 -79 -17 -84q-2 -9 -5.5 -28t-5.5 -28q-11 -48 -1 -70t57 -33q3 -1 13 -4t17 -6l-13 -65h-45q-57 0 -84.5 26t-28 68t7.5 95q2 8 5 24t5 24q6 24 9 45q10 41 0 65t-50 37q-14 4 -26 10q2 10 5 30l4 30q35 12 58 17q31 9 37.5 14.5t10.5 26.5l21 131
q9 51 20 84t31.5 62t54 42.5t81.5 13.5q14 2 32 2q-7 -43 -8 -68q-17 -5 -35 -9q-50 -10 -65.5 -28.5t-24.5 -68.5l-3 -17q-1 -7 -3.5 -25t-4.5 -28q-7 -49 -12 -71.5t-22.5 -52.5t-49.5 -56q31 -41 36 -56.5t-1 -48.5z" />
    <glyph glyph-name="bar" unicode="|" horiz-adv-x="227" 
d="M268 645l-114 -644h-80l114 644h80z" />
    <glyph glyph-name="braceright" unicode="}" horiz-adv-x="386" 
d="M197 227q6 33 16.5 48t55.5 57q-28 33 -33 62.5t5 74.5q14 64 19 96l3 17q6 36 5 53q-5 33 -61 44q-16 4 -31 9q10 37 15 68q16 0 32 -2q42 0 66 -9q46 -17 55.5 -70.5t-6.5 -121.5l-12 -62q-3 -13 -7.5 -36.5t-6.5 -33.5q-4 -21 1 -26.5t33 -13.5q40 -13 52 -18
q-2 -14 -6 -30q-2 -16 -6 -30q-15 -7 -29 -10q-46 -13 -62.5 -36t-24.5 -71q-3 -12 -7 -43q-6 -42 -11 -68t-17.5 -61t-30 -55.5t-48 -35t-70.5 -14.5h-45l10 65q8 3 18.5 6t14.5 4q50 12 66 30.5t25 68.5q5 25 9 57q1 9 5.5 39t7.5 48z" />
    <glyph glyph-name="yen" unicode="&#xa5;" horiz-adv-x="605" 
d="M579 277l-9 -53h-189l-12 -65h189l-9 -53h-189l-17 -96h-80l17 96h-189l9 53h190l11 65h-189l9 53h189l4 23l-177 359h85l143 -294l249 294h86l-305 -358l-5 -24h189z" />
    <glyph glyph-name="copyright" unicode="&#xa9;" horiz-adv-x="769" 
d="M716 329q0 -136 -91 -236t-236 -100q-133 0 -234.5 101.5t-101.5 234.5q0 131 101.5 232.5t234.5 101.5q145 0 236 -99t91 -235zM656 329q0 110 -74 192t-192 82q-108 0 -191 -83.5t-83 -190.5q0 -106 84 -188t191 -87h3q112 4 187 86.5t75 188.5zM391 157
q-67 0 -116.5 51.5t-49.5 120.5q0 68 50 119t116 51q72 0 141 -63l-51 -57q-46 46 -86 46q-37 0 -64.5 -28.5t-27.5 -67.5q0 -40 26.5 -69t65.5 -29q38 0 86 46l51 -56q-67 -64 -141 -64z" />
    <glyph glyph-name="guillemotleft" unicode="&#xab;" horiz-adv-x="456" 
d="M200 326l81 -174h-93l-77 174l138 171h91zM350 325l80 -173h-93l-76 173l137 172h92z" />
    <glyph glyph-name="registered" unicode="&#xae;" horiz-adv-x="762" 
d="M709 321q0 -129 -100 -228.5t-228 -99.5q-129 0 -228.5 99.5t-99.5 228.5q0 128 99.5 228t228.5 100q127 0 227.5 -100.5t100.5 -227.5zM648 321q0 104 -81.5 185.5t-185.5 81.5t-185 -81.5t-81 -185.5t81 -185t185 -81q102 0 183.5 81.5t83.5 184.5zM532 159h-81
l-71 113h-47v-113h-67v322h121q51 0 83.5 -26.5t32.5 -77.5q0 -68 -54 -93zM333 418v-84h52q52 0 52 43q0 41 -52 41h-52z" />
    <glyph glyph-name="guillemotright" unicode="&#xbb;" horiz-adv-x="456" 
d="M80 152l141 173l-78 172h91l77 -172l-138 -173h-93zM230 152l141 174l-79 171h92l77 -171l-138 -174h-93z" />
    <glyph glyph-name="divide" unicode="&#xf7;" horiz-adv-x="459" 
d="M251 444q5 25 24 42t46 17q26 0 39.5 -17t8.5 -42t-23.5 -41t-45.5 -16t-40.5 16t-8.5 41zM456 279h-354l13 74h354zM206 188q5 25 24 41.5t46 16.5q26 0 39.5 -16.5t8.5 -41.5q-5 -26 -23.5 -42t-45.5 -16t-40.5 16t-8.5 42z" />
    <glyph glyph-name="tilde" unicode="&#x2dc;" horiz-adv-x="520" 
d="M543 571q-12 -65 -47 -102t-81 -37q-50 0 -71 29l-25 30q-1 1 -4.5 5t-5 5.5l-5 5t-5.5 5t-5.5 3t-6.5 2.5t-7 1q-18 0 -33 -23.5t-21 -58.5h-65l4 20q11 66 45.5 102.5t82.5 36.5q31 0 48.5 -12.5t36.5 -39.5q10 -13 15.5 -18.5t14.5 -11t19 -5.5q18 0 32 22.5t21 57.5
h66z" />
    <glyph glyph-name="endash" unicode="&#x2013;" horiz-adv-x="580" 
d="M555 157h-474l13 73h474z" />
    <glyph glyph-name="quoteleft" unicode="&#x2018;" horiz-adv-x="242" 
d="M246 716q46 17 74 24q-41 -120 -57 -165l-24 -68q-20 1 -45 1q-26 0 -52 -2q22 46 35 78q42 94 65 130z" />
    <glyph glyph-name="quoteright" unicode="&#x2019;" horiz-adv-x="246" 
d="M212 524q-27 -11 -65 -20q19 60 57 165l24 68q20 -2 44 -2q28 0 52 2q-7 -14 -34 -74q-39 -91 -67 -134z" />
    <glyph glyph-name="quotesinglbase" unicode="&#x201a;" horiz-adv-x="239" 
d="M123 131q55 0 86 -3q-12 -26 -30 -68q-42 -95 -64 -131q-20 -12 -48 -23l-33 -13q21 74 66 197l15 41h8z" />
    <glyph glyph-name="quotedblleft" unicode="&#x201c;" horiz-adv-x="369" 
d="M377 718q29 12 73 25q-35 -106 -59 -172l-22 -63q-20 3 -44 3q-25 0 -52 -4l31 71q41 94 69 139zM253 716q49 18 72 24q-44 -138 -80 -233q-12 1 -45 1q-25 0 -51 -2q5 9 16.5 35.5t15.5 35.5q38 90 68 137z" />
    <glyph glyph-name="quotedblright" unicode="&#x201d;" horiz-adv-x="371" 
d="M352 530q-33 -14 -72 -24q24 78 58 171l22 64q21 -4 44 -4q25 0 52 4q-29 -65 -31 -70q-42 -97 -69 -139zM227 527q-40 -15 -72 -23q44 138 80 233q24 -2 45 -2q25 0 51 3q-10 -21 -31 -71q-35 -84 -69 -139z" />
    <glyph glyph-name="quotedblbase" unicode="&#x201e;" horiz-adv-x="367" 
d="M39 -89q11 37 60 178l16 42h94l-29 -68q-38 -90 -65 -135q-20 -12 -54 -23q-8 -5 -27 -10zM251 128q18 1 86 1q-5 -10 -15 -34t-13 -31q-37 -89 -63 -130q-20 -15 -47 -26q-9 -3 -35 -16q18 74 60 184q2 7 9 26t10 26h8z" />
    <glyph glyph-name="ellipsis" unicode="&#x2026;" horiz-adv-x="649" 
d="M279 87q5 27 24.5 42.5t45.5 15.5q27 0 41 -15.5t10 -42.5q-5 -24 -24.5 -41t-46.5 -17q-26 0 -40 17t-10 41zM492 87q11 58 69 58q27 0 40 -15t9 -43q-5 -25 -24 -41.5t-46 -16.5q-26 0 -39.5 17t-8.5 41zM68 85q4 27 23.5 43t47.5 16q26 0 39 -16t9 -43
q-5 -25 -23.5 -41t-45.5 -16t-41 16t-9 41z" />
    <glyph glyph-name="guilsinglleft" unicode="&#x2039;" horiz-adv-x="307" 
d="M202 326l79 -174h-93l-77 174l138 171h91z" />
    <glyph glyph-name="guilsinglright" unicode="&#x203a;" horiz-adv-x="307" 
d="M80 152l141 174l-78 171h91l78 -171l-139 -174h-93z" />
    <glyph glyph-name="Euro" unicode="&#x20ac;" 
d="M552 609q-77 0 -146.5 -38t-118.5 -111h326l-40 -71l-318 3q-13 -43 -15 -89h346l-48 -68h-289q24 -71 79.5 -108t130.5 -37q47 0 107 18l-12 -71q-57 -18 -118 -18q-104 0 -178.5 58t-93.5 158h-101l12 66l85 1q2 36 15 90h-82l12 68h96q54 103 150 162t204 59
q69 0 122 -22l-13 -72q-60 22 -112 22z" />
    <glyph glyph-name="trademark" unicode="&#x2122;" horiz-adv-x="739" 
d="M530 596v48l-21 -36q-52 -85 -57 -94q-67 109 -77 125l-1 2l-1 1v-30v-37v-115h-62l1 110v88v43h-96v-242h-65v242h-105v63h276v-2h49q37 -57 80 -130q16 24 32 52q24 42 48 78h60v-302h-61v136z" />
    <glyph glyph-name="fraction" horiz-adv-x="320" 
d="M23 18h-81l508 839h82z" />
    <glyph glyph-name="exclamdown" horiz-adv-x="225" 
d="M159 602q5 25 24.5 41t46.5 16q26 0 39.5 -16t8.5 -41q-5 -27 -23.5 -43.5t-45.5 -16.5t-41 16.5t-9 43.5zM236 495q-24 -184 -71 -495h-102q31 149 33 159q46 216 73 336h67z" />
    <glyph glyph-name="questiondown" horiz-adv-x="523" 
d="M295 602q5 27 24 42t46 15t40.5 -15t9.5 -42q-5 -25 -24.5 -41.5t-45.5 -16.5q-27 0 -41 16.5t-9 41.5zM263 0q-133 0 -175 112q-4 12 -11 26q35 16 75 38q28 -55 52.5 -74t64.5 -19q59 0 97 25t46 67q4 24 -6 49.5t-20.5 40t-34.5 42.5q-44 51 -53.5 80.5t-9.5 98.5
l30 1q6 1 21 2t20 1q43 -109 84 -158q24 -29 33.5 -42.5t19.5 -46t4 -67.5q-14 -75 -81.5 -125.5t-155.5 -50.5z" />
    <glyph glyph-name="CR" horiz-adv-x="282" 
 />
    <glyph glyph-name="cent" horiz-adv-x="578" 
d="M546 125l-6 -8q-85 -105 -202 -121l-13 -77h-75l14 78q-91 14 -138 82.5t-30 164.5q18 98 86 165.5t166 79.5l16 90h77l-16 -89q109 -13 162 -128l-69 -39q-27 40 -51 61t-56 27l-58 -332q66 10 137 86zM179 245q-11 -62 17 -108.5t82 -57.5l56 329q-60 -11 -102 -55.5
t-53 -107.5z" />
    <glyph glyph-name="sterling" horiz-adv-x="539" 
d="M503 477q7 50 -22.5 83.5t-80.5 33.5q-55 0 -97 -36.5t-51 -90.5l-22 -120h218l-55 -69h-175l-36 -209h275l21 117h73l-33 -186h-497l10 57l70 11l38 210h-59l12 69h59l22 125q15 87 82 142t158 55q87 0 132 -56.5t30 -145.5h-73z" />
    <glyph glyph-name="greaterequal" horiz-adv-x="312" 
d="M1 219l16 93l297 111l-258 107l16 94l360 -162l-13 -77z" />
    <glyph glyph-name="lessequal" horiz-adv-x="312" 
d="M444 530l-296 -107l258 -111l-17 -93l-359 166l14 77l417 162z" />
    <glyph glyph-name="NULL" horiz-adv-x="282" 
 />
    <glyph glyph-name="_FSHallmark" horiz-adv-x="754" 
d="M701 603v-74h-630v74h630zM619 388q0 14 -16.5 27t-38.5 13q-20 0 -36 -9.5t-16 -21.5q0 -17 9 -26.5t39 -17.5l27 -6q27 -6 37.5 -9t28.5 -9.5t25.5 -13.5t14 -18.5t7.5 -27.5q1 -42 -36.5 -68t-98.5 -26q-68 0 -103.5 34t-35.5 79l73 -1q0 -8 4 -18t21 -21.5t44 -11.5
q24 0 39.5 8.5t15.5 19.5q0 22 -60 36q-56 14 -92 33q-38 20 -38 63q0 41 37.5 67t94.5 26q60 0 95 -30.5t35 -70.5h-76zM305 347v-70h-151v-102h-83v313h265v-71h-182v-70h151zM329 213q0 15 11 26t27 11q17 0 29.5 -11t12.5 -26q0 -16 -12 -26t-30 -10q-16 0 -27 10.5
t-11 25.5zM700 136v-75h-631v75h631z" />
    <glyph glyph-name="_Fontastica" horiz-adv-x="754" 
d="M513 260h-295v-147h-87q-1 1 -1 4v510h382v-78h-294v-210h295v-79zM569 402h-296v79h296v146h87v-513h-383v78h296v210zM569 63q-11 -7 -1 -19q3 -4 9 -4q7 0 14 4l4 -4q-6 -9 -18 -9q-8 0 -16 5q-6 6 -6.5 16t5.5 17q8 8 17 8q10 0 18 -8l-4 -6q-10 5 -12 5h-2
q-6 -2 -8 -5zM142 32h-11v44h32v-8h-21v-12h20v-7h-20v-17zM203 76q15 0 22 -12q7 -8 1.5 -20t-18.5 -13q-4 -2 -6 -2q-6 0 -9 3q-14 6 -14 19q0 11 7 18t17 7zM279 76h9v-44q-2 0 -3.5 -0.5t-2.5 -0.5q-3 0 -7 5q-7 10 -17 23v-27h-10v44q10 0 13 -6l9 -12l9 -12v30z
M321 68h-14v8h37v-8h-14v-36h-9v36zM444 55q9 -1 9 -10q2 -8 -8 -13q-2 -1 -8 -1q-14 0 -21 7l3 6l14 -4h6l2 1q1 0 1 1q0 4 -2 5q-1 2 -8 4l-2 1q-3 1 -4 1q-7 2 -7 10q-1 7 6 11q3 2 10 2q11 0 18 -4l-4 -8q-2 1 -5.5 2.5t-4.5 1.5h-6q-3 0 -3 -3q-2 -2 3 -6q6 -1 11 -4z
M482 68h-14v8h38v-8h-14v-36h-10v36zM535 32h-11v44h11v-44zM640 76q2 -4 8 -19.5t11 -24.5h-10l-4 9h-21l-4 -9h-10q10 20 18 44h12zM382 74q9 -17 18 -42h-10l-3 9h-20q-2 -7 -4 -9h-9q5 13 18 42h10zM216 54q0 14 -12 14q-1 0 -2.5 -0.5t-2.5 -0.5q-15 -7 -9 -18
q3 -10 13 -10q3 0 4 1q9 2 9 13v1zM369 49h15q-6 9 -7 16zM627 49h14q-2 2 -3.5 8t-3.5 8z" />
    </font>
</defs>
</svg>
